<svg version="1.1" xmlns="http://www.w3.org/2000/svg" xmlns:xlink="http://www.w3.org/1999/xlink" stroke-linecap="round" stroke-linejoin="round" stroke-width="0" fill-rule="evenodd" width="137.09mm" height="83.058mm" viewBox="5300 1016 137090 83058" id="rZynOPiO49LNDFpGdzUL"><defs><rect x="-650" y="-750" width="1300" height="1500" id="rZynOPiO49LNDFpGdzUL_pad-10"/><rect x="-475" y="-625" width="950" height="1250" id="rZynOPiO49LNDFpGdzUL_pad-11"/><rect x="-1600" y="-625" width="3200" height="1250" id="rZynOPiO49LNDFpGdzUL_pad-12"/><rect x="-500" y="-1425" width="1000" height="2850" id="rZynOPiO49LNDFpGdzUL_pad-13"/><rect x="-2775" y="-2975" width="5550" height="5950" id="rZynOPiO49LNDFpGdzUL_pad-14"/><rect x="-775" y="-350" width="1550" height="700" id="rZynOPiO49LNDFpGdzUL_pad-15"/><circle cx="0" cy="0" r="1050" id="rZynOPiO49LNDFpGdzUL_pad-16"/><rect x="-1000" y="-1000" width="2000" height="2000" id="rZynOPiO49LNDFpGdzUL_pad-17"/><rect x="-600" y="-600" width="1200" height="1200" id="rZynOPiO49LNDFpGdzUL_pad-19"/><rect x="-1035" y="-1035" width="2070" height="2070" id="rZynOPiO49LNDFpGdzUL_pad-20"/><circle cx="0" cy="0" r="1035" id="rZynOPiO49LNDFpGdzUL_pad-21"/><rect x="-650" y="-800" width="1300" height="1600" id="rZynOPiO49LNDFpGdzUL_pad-22"/><circle cx="0" cy="0" r="378.2" id="rZynOPiO49LNDFpGdzUL_pad-25"/></defs><g transform="translate(0,85090) scale(1,-1)" fill="currentColor" stroke="currentColor"><use xlink:href="#rZynOPiO49LNDFpGdzUL_pad-10" x="111440" y="20320"/><use xlink:href="#rZynOPiO49LNDFpGdzUL_pad-10" x="109540" y="20320"/><use xlink:href="#rZynOPiO49LNDFpGdzUL_pad-10" x="114620" y="20320"/><use xlink:href="#rZynOPiO49LNDFpGdzUL_pad-10" x="116520" y="20320"/><use xlink:href="#rZynOPiO49LNDFpGdzUL_pad-10" x="98613" y="20320"/><use xlink:href="#rZynOPiO49LNDFpGdzUL_pad-10" x="96713" y="20320"/><use xlink:href="#rZynOPiO49LNDFpGdzUL_pad-10" x="101793" y="20320"/><use xlink:href="#rZynOPiO49LNDFpGdzUL_pad-10" x="103693" y="20320"/><use xlink:href="#rZynOPiO49LNDFpGdzUL_pad-11" x="103900" y="12290"/><use xlink:href="#rZynOPiO49LNDFpGdzUL_pad-11" x="101600" y="12290"/><use xlink:href="#rZynOPiO49LNDFpGdzUL_pad-11" x="99300" y="12290"/><use xlink:href="#rZynOPiO49LNDFpGdzUL_pad-12" x="101600" y="5490"/><use xlink:href="#rZynOPiO49LNDFpGdzUL_pad-13" x="116590" y="14310"/><use xlink:href="#rZynOPiO49LNDFpGdzUL_pad-13" x="114300" y="14310"/><use xlink:href="#rZynOPiO49LNDFpGdzUL_pad-13" x="112010" y="14310"/><use xlink:href="#rZynOPiO49LNDFpGdzUL_pad-14" x="114300" y="7560"/><use xlink:href="#rZynOPiO49LNDFpGdzUL_pad-15" x="50615" y="46990"/><use xlink:href="#rZynOPiO49LNDFpGdzUL_pad-15" x="50615" y="45720"/><use xlink:href="#rZynOPiO49LNDFpGdzUL_pad-15" x="50615" y="44450"/><use xlink:href="#rZynOPiO49LNDFpGdzUL_pad-15" x="50615" y="43180"/><use xlink:href="#rZynOPiO49LNDFpGdzUL_pad-15" x="50615" y="41910"/><use xlink:href="#rZynOPiO49LNDFpGdzUL_pad-15" x="50615" y="40640"/><use xlink:href="#rZynOPiO49LNDFpGdzUL_pad-15" x="50615" y="39370"/><use xlink:href="#rZynOPiO49LNDFpGdzUL_pad-15" x="56065" y="39370"/><use xlink:href="#rZynOPiO49LNDFpGdzUL_pad-15" x="56065" y="40640"/><use xlink:href="#rZynOPiO49LNDFpGdzUL_pad-15" x="56065" y="41910"/><use xlink:href="#rZynOPiO49LNDFpGdzUL_pad-15" x="56065" y="43180"/><use xlink:href="#rZynOPiO49LNDFpGdzUL_pad-15" x="56065" y="44450"/><use xlink:href="#rZynOPiO49LNDFpGdzUL_pad-15" x="56065" y="45720"/><use xlink:href="#rZynOPiO49LNDFpGdzUL_pad-15" x="56065" y="46990"/><use xlink:href="#rZynOPiO49LNDFpGdzUL_pad-16" x="6350" y="33020"/><use xlink:href="#rZynOPiO49LNDFpGdzUL_pad-16" x="6350" y="38020"/><use xlink:href="#rZynOPiO49LNDFpGdzUL_pad-16" x="6350" y="43020"/><use xlink:href="#rZynOPiO49LNDFpGdzUL_pad-16" x="6350" y="48020"/><use xlink:href="#rZynOPiO49LNDFpGdzUL_pad-16" x="6350" y="53020"/><use xlink:href="#rZynOPiO49LNDFpGdzUL_pad-16" x="6350" y="5080"/><use xlink:href="#rZynOPiO49LNDFpGdzUL_pad-16" x="6350" y="10080"/><use xlink:href="#rZynOPiO49LNDFpGdzUL_pad-16" x="6350" y="15080"/><use xlink:href="#rZynOPiO49LNDFpGdzUL_pad-16" x="6350" y="20080"/><use xlink:href="#rZynOPiO49LNDFpGdzUL_pad-16" x="6350" y="25080"/><use xlink:href="#rZynOPiO49LNDFpGdzUL_pad-16" x="6350" y="60960"/><use xlink:href="#rZynOPiO49LNDFpGdzUL_pad-16" x="6350" y="65960"/><use xlink:href="#rZynOPiO49LNDFpGdzUL_pad-16" x="6350" y="70960"/><use xlink:href="#rZynOPiO49LNDFpGdzUL_pad-16" x="6350" y="75960"/><use xlink:href="#rZynOPiO49LNDFpGdzUL_pad-16" x="6350" y="80960"/><use xlink:href="#rZynOPiO49LNDFpGdzUL_pad-17" x="130390" y="6069"/><use xlink:href="#rZynOPiO49LNDFpGdzUL_pad-17" x="130390" y="12219"/><use xlink:href="#rZynOPiO49LNDFpGdzUL_pad-17" x="141390" y="6069"/><use xlink:href="#rZynOPiO49LNDFpGdzUL_pad-17" x="141390" y="12219"/><path d="M 72390 80518 72390 82042 M 74930 82042 74930 80518 M 77470 80518 77470 82042 M 80010 82042 80010 80518 M 114300 80518 114300 82042 M 116840 82042 116840 80518 M 119380 80518 119380 82042 M 121920 82042 121920 80518 M 53340 5842 53340 4318 M 55880 4318 55880 5842 M 58420 5842 58420 4318 M 67310 4318 67310 5842 M 69850 5842 69850 4318 M 72390 4318 72390 5842 M 81280 5842 81280 4318 M 83820 4318 83820 5842 M 86360 5842 86360 4318 M 74930 30988 74930 32512 M 77470 32512 77470 30988 M 80010 30988 80010 32512 M 82550 32512 82550 30988 M 85090 30988 85090 32512 M 87630 32512 87630 30988 M 90170 30988 90170 32512 M 92710 32512 92710 30988 M 95250 30988 95250 32512 M 97790 32512 97790 30988 M 100330 30988 100330 32512 M 102870 32512 102870 30988 M 105410 30988 105410 32512 M 107950 32512 107950 30988 M 110490 30988 110490 32512 M 113030 32512 113030 30988 M 115570 30988 115570 32512 M 118110 32512 118110 30988 M 120650 30988 120650 32512 M 74930 56388 74930 57912 M 77470 57912 77470 56388 M 80010 56388 80010 57912 M 82550 57912 82550 56388 M 85090 56388 85090 57912 M 87630 57912 87630 56388 M 90170 56388 90170 57912 M 92710 57912 92710 56388 M 95250 56388 95250 57912 M 97790 57912 97790 56388 M 100330 56388 100330 57912 M 102870 57912 102870 56388 M 105410 56388 105410 57912 M 107950 57912 107950 56388 M 110490 56388 110490 57912 M 113030 57912 113030 56388 M 115570 56388 115570 57912 M 118110 57912 118110 56388 M 120650 56388 120650 57912 M 137668 39370 139192 39370 M 139192 41910 137668 41910 M 137668 44450 139192 44450 M 139192 46990 137668 46990 M 137668 49530 139192 49530 M 139192 52070 137668 52070 M 137668 54610 139192 54610 M 139192 57150 137668 57150" fill="none" stroke-width="1524"/><use xlink:href="#rZynOPiO49LNDFpGdzUL_pad-16" x="34700" y="49060"/><use xlink:href="#rZynOPiO49LNDFpGdzUL_pad-16" x="22500" y="49060"/><use xlink:href="#rZynOPiO49LNDFpGdzUL_pad-16" x="20500" y="43060"/><use xlink:href="#rZynOPiO49LNDFpGdzUL_pad-16" x="22500" y="37060"/><use xlink:href="#rZynOPiO49LNDFpGdzUL_pad-16" x="34700" y="37060"/><use xlink:href="#rZynOPiO49LNDFpGdzUL_pad-16" x="34700" y="21120"/><use xlink:href="#rZynOPiO49LNDFpGdzUL_pad-16" x="22500" y="21120"/><use xlink:href="#rZynOPiO49LNDFpGdzUL_pad-16" x="20500" y="15120"/><use xlink:href="#rZynOPiO49LNDFpGdzUL_pad-16" x="22500" y="9120"/><use xlink:href="#rZynOPiO49LNDFpGdzUL_pad-16" x="34700" y="9120"/><use xlink:href="#rZynOPiO49LNDFpGdzUL_pad-16" x="34700" y="77000"/><use xlink:href="#rZynOPiO49LNDFpGdzUL_pad-16" x="22500" y="77000"/><use xlink:href="#rZynOPiO49LNDFpGdzUL_pad-16" x="20500" y="71000"/><use xlink:href="#rZynOPiO49LNDFpGdzUL_pad-16" x="22500" y="65000"/><use xlink:href="#rZynOPiO49LNDFpGdzUL_pad-16" x="34700" y="65000"/><use xlink:href="#rZynOPiO49LNDFpGdzUL_pad-19" x="139480" y="30480"/><use xlink:href="#rZynOPiO49LNDFpGdzUL_pad-19" x="137380" y="30480"/><use xlink:href="#rZynOPiO49LNDFpGdzUL_pad-19" x="139480" y="26670"/><use xlink:href="#rZynOPiO49LNDFpGdzUL_pad-19" x="137380" y="26670"/><use xlink:href="#rZynOPiO49LNDFpGdzUL_pad-20" x="107950" y="71120"/><use xlink:href="#rZynOPiO49LNDFpGdzUL_pad-21" x="105410" y="71120"/><use xlink:href="#rZynOPiO49LNDFpGdzUL_pad-21" x="102870" y="71120"/><use xlink:href="#rZynOPiO49LNDFpGdzUL_pad-20" x="121920" y="71120"/><use xlink:href="#rZynOPiO49LNDFpGdzUL_pad-21" x="119380" y="71120"/><use xlink:href="#rZynOPiO49LNDFpGdzUL_pad-21" x="116840" y="71120"/><use xlink:href="#rZynOPiO49LNDFpGdzUL_pad-20" x="135890" y="71120"/><use xlink:href="#rZynOPiO49LNDFpGdzUL_pad-21" x="133350" y="71120"/><use xlink:href="#rZynOPiO49LNDFpGdzUL_pad-21" x="130810" y="71120"/><use xlink:href="#rZynOPiO49LNDFpGdzUL_pad-20" x="66040" y="71120"/><use xlink:href="#rZynOPiO49LNDFpGdzUL_pad-21" x="63500" y="71120"/><use xlink:href="#rZynOPiO49LNDFpGdzUL_pad-21" x="60960" y="71120"/><use xlink:href="#rZynOPiO49LNDFpGdzUL_pad-20" x="80010" y="71120"/><use xlink:href="#rZynOPiO49LNDFpGdzUL_pad-21" x="77470" y="71120"/><use xlink:href="#rZynOPiO49LNDFpGdzUL_pad-21" x="74930" y="71120"/><use xlink:href="#rZynOPiO49LNDFpGdzUL_pad-20" x="93980" y="71120"/><use xlink:href="#rZynOPiO49LNDFpGdzUL_pad-21" x="91440" y="71120"/><use xlink:href="#rZynOPiO49LNDFpGdzUL_pad-21" x="88900" y="71120"/><use xlink:href="#rZynOPiO49LNDFpGdzUL_pad-20" x="50800" y="15240"/><use xlink:href="#rZynOPiO49LNDFpGdzUL_pad-21" x="53340" y="15240"/><use xlink:href="#rZynOPiO49LNDFpGdzUL_pad-21" x="55880" y="15240"/><use xlink:href="#rZynOPiO49LNDFpGdzUL_pad-20" x="64770" y="15240"/><use xlink:href="#rZynOPiO49LNDFpGdzUL_pad-21" x="67310" y="15240"/><use xlink:href="#rZynOPiO49LNDFpGdzUL_pad-21" x="69850" y="15240"/><use xlink:href="#rZynOPiO49LNDFpGdzUL_pad-20" x="78740" y="15240"/><use xlink:href="#rZynOPiO49LNDFpGdzUL_pad-21" x="81280" y="15240"/><use xlink:href="#rZynOPiO49LNDFpGdzUL_pad-21" x="83820" y="15240"/><use xlink:href="#rZynOPiO49LNDFpGdzUL_pad-22" x="131130" y="30480"/><use xlink:href="#rZynOPiO49LNDFpGdzUL_pad-22" x="133030" y="30480"/><use xlink:href="#rZynOPiO49LNDFpGdzUL_pad-22" x="131130" y="26670"/><use xlink:href="#rZynOPiO49LNDFpGdzUL_pad-22" x="133030" y="26670"/><use xlink:href="#rZynOPiO49LNDFpGdzUL_pad-22" x="65720" y="48260"/><use xlink:href="#rZynOPiO49LNDFpGdzUL_pad-22" x="63820" y="48260"/><use xlink:href="#rZynOPiO49LNDFpGdzUL_pad-22" x="65720" y="38100"/><use xlink:href="#rZynOPiO49LNDFpGdzUL_pad-22" x="63820" y="38100"/><use xlink:href="#rZynOPiO49LNDFpGdzUL_pad-22" x="65720" y="43180"/><use xlink:href="#rZynOPiO49LNDFpGdzUL_pad-22" x="63820" y="43180"/><path d="M 88900 80518 88900 82042 M 91440 82042 91440 80518 M 93980 80518 93980 82042 M 102870 82042 102870 80518 M 105410 80518 105410 82042 M 107950 82042 107950 80518 M 63500 80518 63500 82042 M 60960 82042 60960 80518 M 58420 80518 58420 82042 M 55880 82042 55880 80518 M 53340 80518 53340 82042 M 129540 82042 129540 80518 M 132080 80518 132080 82042 M 134620 82042 134620 80518 M 137160 80518 137160 82042" fill="none" stroke-width="1524"/><use xlink:href="#rZynOPiO49LNDFpGdzUL_pad-22" x="131130" y="22860"/><use xlink:href="#rZynOPiO49LNDFpGdzUL_pad-22" x="133030" y="22860"/><use xlink:href="#rZynOPiO49LNDFpGdzUL_pad-19" x="139480" y="22860"/><use xlink:href="#rZynOPiO49LNDFpGdzUL_pad-19" x="137380" y="22860"/><path d="M 114620 20320 114300 20000 114300 14310 M 98613 19835 98613 20320 M 99300 19148 99300 12290 M 99300 19148 98613 19835 M 114300 14310 114300 8890 114300 7560 M 114620 20320 114620 22540 M 98613 21143 98613 20320 M 114300 22860 114620 22540 M 114300 22860 100330 22860 98613 21143" fill="none" stroke-width="508"/><path d="M 58420 46990 56065 46990" fill="none" stroke-width="254"/><use xlink:href="#rZynOPiO49LNDFpGdzUL_pad-25" x="58420" y="46990"/><use xlink:href="#rZynOPiO49LNDFpGdzUL_pad-25" x="99060" y="22860"/><path d="M 99060 22860 100330 22860 M 114300 8890 118110 8890 120650 11430 M 120650 17460 120650 31750 M 120650 17460 120650 11430 M 120650 31750 128270 31750 130810 34290" fill="none" stroke-width="254"/><use xlink:href="#rZynOPiO49LNDFpGdzUL_pad-25" x="130810" y="34290"/><path d="M 131130 26670 129860 26670 120650 17460" fill="none" stroke-width="254"/><path d="M 116520 17780 116520 20320 M 116520 14380 116590 14310 M 104074 19939 103693 20320 M 104074 19939 104074 15240 104074 12464 103900 12290 M 141390 9105 141390 6069 M 141390 9105 141351 9144" fill="none" stroke-width="508"/><use xlink:href="#rZynOPiO49LNDFpGdzUL_pad-25" x="141351" y="9144"/><path d="M 141390 9105 141390 12219 141390 15582 141351 15621" fill="none" stroke-width="508"/><use xlink:href="#rZynOPiO49LNDFpGdzUL_pad-25" x="141351" y="15621"/><path d="M 68580 38100 65720 38100" fill="none" stroke-width="254"/><use xlink:href="#rZynOPiO49LNDFpGdzUL_pad-25" x="68580" y="38100"/><path d="M 68580 43180 65720 43180" fill="none" stroke-width="254"/><use xlink:href="#rZynOPiO49LNDFpGdzUL_pad-25" x="68580" y="43180"/><path d="M 68580 48260 65720 48260" fill="none" stroke-width="254"/><use xlink:href="#rZynOPiO49LNDFpGdzUL_pad-25" x="68580" y="48260"/><path d="M 50615 46990 48260 46990" fill="none" stroke-width="254"/><use xlink:href="#rZynOPiO49LNDFpGdzUL_pad-25" x="48260" y="46990"/><path d="M 48260 39370 50615 39370" fill="none" stroke-width="254"/><use xlink:href="#rZynOPiO49LNDFpGdzUL_pad-25" x="48260" y="39370"/><path d="M 48260 43180 50615 43180" fill="none" stroke-width="254"/><use xlink:href="#rZynOPiO49LNDFpGdzUL_pad-25" x="48260" y="43180"/><path d="M 56065 41910 57531 41910 58420 42799" fill="none" stroke-width="254"/><use xlink:href="#rZynOPiO49LNDFpGdzUL_pad-25" x="58420" y="42799"/><path d="M 95250 20320 96713 20320" fill="none" stroke-width="254"/><use xlink:href="#rZynOPiO49LNDFpGdzUL_pad-25" x="95250" y="20320"/><path d="M 105410 20320 107950 20320 109540 20320" fill="none" stroke-width="254"/><use xlink:href="#rZynOPiO49LNDFpGdzUL_pad-25" x="107950" y="20320"/><path d="M 116520 20320 118110 20320" fill="none" stroke-width="254"/><use xlink:href="#rZynOPiO49LNDFpGdzUL_pad-25" x="118110" y="20320"/><use xlink:href="#rZynOPiO49LNDFpGdzUL_pad-25" x="104074" y="15240"/><use xlink:href="#rZynOPiO49LNDFpGdzUL_pad-25" x="116520" y="17780"/><path d="M 116520 17780 116520 14380" fill="none" stroke-width="508"/><path d="M 139480 21810 139480 22860 M 139480 21810 139700 21590" fill="none" stroke-width="254"/><use xlink:href="#rZynOPiO49LNDFpGdzUL_pad-25" x="139700" y="21590"/><path d="M 139480 22860 139480 26670 139480 30480 139480 31530 139700 31750" fill="none" stroke-width="254"/><use xlink:href="#rZynOPiO49LNDFpGdzUL_pad-25" x="139700" y="31750"/><path d="M 105410 20320 103693 20320" fill="none" stroke-width="254"/><use xlink:href="#rZynOPiO49LNDFpGdzUL_pad-25" x="105410" y="20320"/><path d="M 80010 57150 80010 59690 M 136271 62230 138303 64262 M 138303 76073 134620 79756 134620 81280 M 82550 62230 80010 59690 M 82550 62230 136271 62230 M 138303 64262 138303 76073 M 88900 60960 87630 59690 M 88900 60960 136652 60960 M 139827 76835 137160 79502 137160 81280 M 87630 59690 87630 57150 M 136652 60960 139827 64135 139827 76835 M 135890 71120 135890 64516 134874 63500 M 73660 50800 72390 52070" fill="none" stroke-width="254"/><use xlink:href="#rZynOPiO49LNDFpGdzUL_pad-25" x="73660" y="50800"/><path d="M 77470 63500 134874 63500 M 77470 63500 72390 58420 72390 52070 M 107950 67310 107950 71120 M 107950 67310 106680 66040 M 74930 66040 69850 60960 69850 50546 72136 48260 M 77470 48260 78740 46990" fill="none" stroke-width="254"/><use xlink:href="#rZynOPiO49LNDFpGdzUL_pad-25" x="78740" y="46990"/><path d="M 74930 66040 106680 66040 M 77470 48260 72136 48260 M 121920 66040 121920 71120 M 121920 66040 120650 64770 76200 64770 71120 59690 M 71120 51181 72771 49530 78740 49530 81280 46990" fill="none" stroke-width="254"/><use xlink:href="#rZynOPiO49LNDFpGdzUL_pad-25" x="81280" y="46990"/><path d="M 71120 51181 71120 59690" fill="none" stroke-width="254"/><use xlink:href="#rZynOPiO49LNDFpGdzUL_pad-25" x="104140" y="67310"/><path d="M 71628 67310 70485 68453 70485 72517 M 71628 67310 104140 67310" fill="none" stroke-width="254"/><use xlink:href="#rZynOPiO49LNDFpGdzUL_pad-25" x="70485" y="72517"/><use xlink:href="#rZynOPiO49LNDFpGdzUL_pad-25" x="67310" y="53467"/><path d="M 55880 64897 55880 81280 M 55880 64897 67310 53467 M 105410 31750 105410 29210 101600 25400 M 94234 25400 89154 20320 79248 20320 78740 19812 78740 15240 M 94234 25400 101600 25400 M 102870 29210 102870 31750 M 102870 29210 100330 26670 M 93599 26670 88519 21590 M 65278 21590 64770 21082 64770 15240 M 93599 26670 100330 26670 M 88519 21590 65278 21590 M 100330 29210 100330 31750 M 100330 29210 99060 27940 92710 27940 87630 22860 51562 22860 50800 22098 50800 15240 M 62423 43180 63820 43180 M 62423 43180 61915 42672 61915 40452 59309 37846 54483 37846 53340 38989 53340 45339 52959 45720 50615 45720 M 63820 43180 63820 41590 64770 40640 M 109220 40640 110490 39370 110490 31750 M 109220 40640 64770 40640 M 63820 38100 62550 38100 61508.6 37058.6 54060.7 37058.6 M 52558.4 41486.7 52135.1 41910 50615 41910 M 52558.4 38560.9 54060.7 37058.6 M 52558.4 38560.9 52558.4 41486.7 M 63820 38100 63820 36510 64770 35560 93980 35560 95250 34290 95250 31750 M 58420 40640 56065 40640 M 59690 41910 59690 46990 60960 48260 63820 48260 M 59690 41910 58420 40640 M 63820 46670 63820 48260 M 63820 46670 64770 45720 M 97790 44450 97790 41910 M 97790 44450 96520 45720" fill="none" stroke-width="254"/><use xlink:href="#rZynOPiO49LNDFpGdzUL_pad-25" x="97790" y="41910"/><path d="M 96520 45720 64770 45720 M 120650 39370 138430 39370 M 120650 39370 115570 44450" fill="none" stroke-width="254"/><use xlink:href="#rZynOPiO49LNDFpGdzUL_pad-25" x="115570" y="44450"/><path d="M 123190 41910 138430 41910" fill="none" stroke-width="254"/><use xlink:href="#rZynOPiO49LNDFpGdzUL_pad-25" x="121920" y="43180"/><path d="M 121920 43180 123190 41910" fill="none" stroke-width="254"/><use xlink:href="#rZynOPiO49LNDFpGdzUL_pad-25" x="119380" y="44450"/><path d="M 119380 44450 138430 44450 M 77470 54610 77470 57150 M 77470 54610 85090 46990 138430 46990 M 138430 49530 96520 49530 95250 50800 95250 57150 M 58420 67310 58420 81280 M 63500 62230 67310 62230 M 63500 62230 58420 67310" fill="none" stroke-width="254"/><use xlink:href="#rZynOPiO49LNDFpGdzUL_pad-25" x="67310" y="62230"/><path d="M 14190 65960 6350 65960 M 19230 71000 20500 71000 M 19230 71000 14190 65960 M 6350 75960 6350 80960 M 6350 70960 11270 70960 14224 73914 32004 73914 34700 76610 34700 77000 M 30660 60960 6350 60960 M 30660 60960 34700 65000 M 6350 25080 6350 20080 M 6350 5080 30660 5080 34700 9120 M 14190 10080 6350 10080 M 19230 15120 20500 15120 M 19230 15120 14190 10080 M 11270 15080 6350 15080 M 11270 15080 14224 18034 M 31614 18034 34700 21120 M 31614 18034 14224 18034 M 11270 43020 6350 43020 M 11270 43020 14478 46228 M 31868 46228 34700 49060 M 31868 46228 14478 46228 M 14190 38020 6350 38020 M 19230 43060 20500 43060 M 19230 43060 14190 38020 M 6350 33020 30660 33020 34700 37060 M 6350 48020 6350 53020" fill="none" stroke-width="609.6"/><path d="M 22500 49060 25455 52015 M 45720 44450 50615 44450 M 45720 44450 44450 45720 M 44450 50800 43180 52070 43125 52015 25455 52015 M 44450 50800 44450 45720 M 25510 24130 22500 21120 M 25510 24130 43307 24130 44450 25273 44450 39370 45720 40640 50615 40640 M 22500 77000 25510 80010 45720 80010 M 54610 39370 56065 39370 M 54610 39370 54229 39751 54229 49530 52070 51689 48768 51689 47752 52705 M 47752 77978 45720 80010 M 47752 77978 47752 52705" fill="none" stroke-width="254"/><path d="M 101600 20127 101600 16256 101600 12290 101600 9271 101600 8382 101600 5490" fill="none" stroke-width="508"/><path d="M 129540 30480 131130 30480" fill="none" stroke-width="254"/><use xlink:href="#rZynOPiO49LNDFpGdzUL_pad-25" x="128270" y="29210"/><path d="M 101727 16383 101600 16256 M 105410 81280 105410 82550 104140 83820 92710 83820 91440 82550 91440 81280 M 91440 82550 90170 83820 54610 83820 53340 82550 53340 81280 M 128270 29210 129540 30480" fill="none" stroke-width="254"/><use xlink:href="#rZynOPiO49LNDFpGdzUL_pad-25" x="105410" y="8890"/><path d="M 105410 8890 102108 8890 101600 8382 M 101981 8890 102108 8890 M 101981 8890 101600 9271 M 111440 19558 112010 18988 M 111440 19558 111440 20320 M 112010 18988 112010 14310 M 130390 6069 130390 2259 129401 1270 M 112010 14310 110830 14310 M 110490 1270 129401 1270 M 110490 1270 109220 2540 109220 12700 110830 14310 M 109220 2540 107950 1270 M 85090 1270 83820 2540 83820 5080 M 85090 1270 107950 1270 M 130390 6069 130390 12219 130390 16510 M 114300 82169 115951 83820 M 131235 17355 130390 16510" fill="none" stroke-width="508"/><use xlink:href="#rZynOPiO49LNDFpGdzUL_pad-25" x="114300" y="82169"/><path d="M 131130 22860 131130 17460 131235 17355" fill="none" stroke-width="254"/><path d="M 55880 5080 55880 2540 57150 1270 68580 1270 69850 2540 69850 5080 M 69850 2540 71120 1270 82550 1270 83820 2540 M 141290 82550 140020 83820 115951 83820 M 131235 17355 140545 17355 141290 18100 141290 82550 M 105410 73660 105410 71120 M 105410 73660 106680 74930 115570 74930 116840 76200 116840 81280 M 119380 81280 119380 71120 M 132080 74930 133350 73660 M 132080 74930 123190 74930 121920 76200 121920 81280 M 133350 73660 133350 71120 M 53340 15240 53340 5080 M 67310 5080 67310 15240 M 81280 15240 81280 5080" fill="none" stroke-width="508"/><path d="M 133030 26670 137380 26670 M 137380 30480 133030 30480" fill="none" stroke-width="406.4"/><path d="M 133030 22860 137380 22860" fill="none" stroke-width="254"/><path d="M 63500 71120 63500 73660 64770 74930 73660 74930 74930 76200 74930 81280 M 77470 81280 77470 71120 M 81280 74930 80010 76200 M 81280 74930 90170 74930 91440 73660 91440 71120 M 80010 76200 80010 81280" fill="none" stroke-width="508"/></g></svg>