<svg version="1.1" xmlns="http://www.w3.org/2000/svg" xmlns:xlink="http://www.w3.org/1999/xlink" stroke-linecap="round" stroke-linejoin="round" stroke-width="0" fill-rule="evenodd" width="135.876mm" height="83.28mm" viewBox="5650 1540 135876 83280" id="K0bXOg2bA_Ajzg8Ep4xB"><defs><circle cx="0" cy="0" r="1000" id="K0bXOg2bA_Ajzg8Ep4xB_pad-1"/><circle cx="0" cy="0" r="950" id="K0bXOg2bA_Ajzg8Ep4xB_pad-2"/><circle cx="0" cy="0" r="850" id="K0bXOg2bA_Ajzg8Ep4xB_pad-3"/><circle cx="0" cy="0" r="700" id="K0bXOg2bA_Ajzg8Ep4xB_pad-4"/><circle cx="0" cy="0" r="690" id="K0bXOg2bA_Ajzg8Ep4xB_pad-5"/><circle cx="0" cy="0" r="508" id="K0bXOg2bA_Ajzg8Ep4xB_pad-6"/><circle cx="0" cy="0" r="175" id="K0bXOg2bA_Ajzg8Ep4xB_pad-7"/></defs><g transform="translate(0,86360) scale(1,-1)" fill="currentColor" stroke="currentColor"><use xlink:href="#K0bXOg2bA_Ajzg8Ep4xB_pad-1" x="12700" y="2540"/><use xlink:href="#K0bXOg2bA_Ajzg8Ep4xB_pad-1" x="125730" y="3810"/><use xlink:href="#K0bXOg2bA_Ajzg8Ep4xB_pad-1" x="12700" y="83820"/><use xlink:href="#K0bXOg2bA_Ajzg8Ep4xB_pad-1" x="125730" y="81280"/><use xlink:href="#K0bXOg2bA_Ajzg8Ep4xB_pad-2" x="135890" y="10569"/><use xlink:href="#K0bXOg2bA_Ajzg8Ep4xB_pad-3" x="135890" y="6069"/><use xlink:href="#K0bXOg2bA_Ajzg8Ep4xB_pad-4" x="22500" y="9120"/><use xlink:href="#K0bXOg2bA_Ajzg8Ep4xB_pad-4" x="20500" y="15120"/><use xlink:href="#K0bXOg2bA_Ajzg8Ep4xB_pad-4" x="22500" y="21120"/><use xlink:href="#K0bXOg2bA_Ajzg8Ep4xB_pad-4" x="34700" y="21120"/><use xlink:href="#K0bXOg2bA_Ajzg8Ep4xB_pad-4" x="34700" y="77000"/><use xlink:href="#K0bXOg2bA_Ajzg8Ep4xB_pad-4" x="34700" y="65000"/><use xlink:href="#K0bXOg2bA_Ajzg8Ep4xB_pad-4" x="22500" y="65000"/><use xlink:href="#K0bXOg2bA_Ajzg8Ep4xB_pad-4" x="34700" y="37060"/><use xlink:href="#K0bXOg2bA_Ajzg8Ep4xB_pad-4" x="20500" y="71000"/><use xlink:href="#K0bXOg2bA_Ajzg8Ep4xB_pad-4" x="22500" y="77000"/><use xlink:href="#K0bXOg2bA_Ajzg8Ep4xB_pad-4" x="20500" y="43060"/><use xlink:href="#K0bXOg2bA_Ajzg8Ep4xB_pad-4" x="22500" y="49060"/><use xlink:href="#K0bXOg2bA_Ajzg8Ep4xB_pad-4" x="6350" y="43020"/><use xlink:href="#K0bXOg2bA_Ajzg8Ep4xB_pad-4" x="22500" y="37060"/><use xlink:href="#K0bXOg2bA_Ajzg8Ep4xB_pad-4" x="34700" y="9120"/><use xlink:href="#K0bXOg2bA_Ajzg8Ep4xB_pad-4" x="6350" y="33020"/><use xlink:href="#K0bXOg2bA_Ajzg8Ep4xB_pad-4" x="6350" y="38020"/><use xlink:href="#K0bXOg2bA_Ajzg8Ep4xB_pad-4" x="34700" y="49060"/><use xlink:href="#K0bXOg2bA_Ajzg8Ep4xB_pad-4" x="6350" y="48020"/><use xlink:href="#K0bXOg2bA_Ajzg8Ep4xB_pad-4" x="6350" y="53020"/><use xlink:href="#K0bXOg2bA_Ajzg8Ep4xB_pad-4" x="6350" y="5080"/><use xlink:href="#K0bXOg2bA_Ajzg8Ep4xB_pad-4" x="6350" y="10080"/><use xlink:href="#K0bXOg2bA_Ajzg8Ep4xB_pad-4" x="6350" y="15080"/><use xlink:href="#K0bXOg2bA_Ajzg8Ep4xB_pad-4" x="6350" y="20080"/><use xlink:href="#K0bXOg2bA_Ajzg8Ep4xB_pad-4" x="6350" y="25080"/><use xlink:href="#K0bXOg2bA_Ajzg8Ep4xB_pad-4" x="6350" y="60960"/><use xlink:href="#K0bXOg2bA_Ajzg8Ep4xB_pad-4" x="6350" y="65960"/><use xlink:href="#K0bXOg2bA_Ajzg8Ep4xB_pad-4" x="6350" y="70960"/><use xlink:href="#K0bXOg2bA_Ajzg8Ep4xB_pad-4" x="6350" y="75960"/><use xlink:href="#K0bXOg2bA_Ajzg8Ep4xB_pad-4" x="6350" y="80960"/><use xlink:href="#K0bXOg2bA_Ajzg8Ep4xB_pad-5" x="77470" y="71120"/><use xlink:href="#K0bXOg2bA_Ajzg8Ep4xB_pad-5" x="80010" y="71120"/><use xlink:href="#K0bXOg2bA_Ajzg8Ep4xB_pad-5" x="63500" y="71120"/><use xlink:href="#K0bXOg2bA_Ajzg8Ep4xB_pad-5" x="66040" y="71120"/><use xlink:href="#K0bXOg2bA_Ajzg8Ep4xB_pad-5" x="130810" y="71120"/><use xlink:href="#K0bXOg2bA_Ajzg8Ep4xB_pad-5" x="133350" y="71120"/><use xlink:href="#K0bXOg2bA_Ajzg8Ep4xB_pad-5" x="135890" y="71120"/><use xlink:href="#K0bXOg2bA_Ajzg8Ep4xB_pad-5" x="116840" y="71120"/><use xlink:href="#K0bXOg2bA_Ajzg8Ep4xB_pad-5" x="119380" y="71120"/><use xlink:href="#K0bXOg2bA_Ajzg8Ep4xB_pad-5" x="121920" y="71120"/><use xlink:href="#K0bXOg2bA_Ajzg8Ep4xB_pad-5" x="102870" y="71120"/><use xlink:href="#K0bXOg2bA_Ajzg8Ep4xB_pad-5" x="105410" y="71120"/><use xlink:href="#K0bXOg2bA_Ajzg8Ep4xB_pad-5" x="107950" y="71120"/><use xlink:href="#K0bXOg2bA_Ajzg8Ep4xB_pad-5" x="55880" y="15240"/><use xlink:href="#K0bXOg2bA_Ajzg8Ep4xB_pad-5" x="60960" y="71120"/><use xlink:href="#K0bXOg2bA_Ajzg8Ep4xB_pad-5" x="88900" y="71120"/><use xlink:href="#K0bXOg2bA_Ajzg8Ep4xB_pad-5" x="91440" y="71120"/><use xlink:href="#K0bXOg2bA_Ajzg8Ep4xB_pad-5" x="93980" y="71120"/><use xlink:href="#K0bXOg2bA_Ajzg8Ep4xB_pad-5" x="74930" y="71120"/><use xlink:href="#K0bXOg2bA_Ajzg8Ep4xB_pad-5" x="50800" y="15240"/><use xlink:href="#K0bXOg2bA_Ajzg8Ep4xB_pad-5" x="53340" y="15240"/><use xlink:href="#K0bXOg2bA_Ajzg8Ep4xB_pad-5" x="64770" y="15240"/><use xlink:href="#K0bXOg2bA_Ajzg8Ep4xB_pad-5" x="67310" y="15240"/><use xlink:href="#K0bXOg2bA_Ajzg8Ep4xB_pad-5" x="69850" y="15240"/><use xlink:href="#K0bXOg2bA_Ajzg8Ep4xB_pad-5" x="78740" y="15240"/><use xlink:href="#K0bXOg2bA_Ajzg8Ep4xB_pad-5" x="81280" y="15240"/><use xlink:href="#K0bXOg2bA_Ajzg8Ep4xB_pad-5" x="83820" y="15240"/><use xlink:href="#K0bXOg2bA_Ajzg8Ep4xB_pad-6" x="53340" y="5080"/><use xlink:href="#K0bXOg2bA_Ajzg8Ep4xB_pad-6" x="55880" y="5080"/><use xlink:href="#K0bXOg2bA_Ajzg8Ep4xB_pad-6" x="58420" y="5080"/><use xlink:href="#K0bXOg2bA_Ajzg8Ep4xB_pad-6" x="67310" y="5080"/><use xlink:href="#K0bXOg2bA_Ajzg8Ep4xB_pad-6" x="69850" y="5080"/><use xlink:href="#K0bXOg2bA_Ajzg8Ep4xB_pad-6" x="72390" y="5080"/><use xlink:href="#K0bXOg2bA_Ajzg8Ep4xB_pad-6" x="81280" y="5080"/><use xlink:href="#K0bXOg2bA_Ajzg8Ep4xB_pad-6" x="83820" y="5080"/><use xlink:href="#K0bXOg2bA_Ajzg8Ep4xB_pad-6" x="86360" y="5080"/><use xlink:href="#K0bXOg2bA_Ajzg8Ep4xB_pad-6" x="74930" y="31750"/><use xlink:href="#K0bXOg2bA_Ajzg8Ep4xB_pad-6" x="77470" y="31750"/><use xlink:href="#K0bXOg2bA_Ajzg8Ep4xB_pad-6" x="80010" y="31750"/><use xlink:href="#K0bXOg2bA_Ajzg8Ep4xB_pad-6" x="82550" y="31750"/><use xlink:href="#K0bXOg2bA_Ajzg8Ep4xB_pad-6" x="85090" y="31750"/><use xlink:href="#K0bXOg2bA_Ajzg8Ep4xB_pad-6" x="87630" y="31750"/><use xlink:href="#K0bXOg2bA_Ajzg8Ep4xB_pad-6" x="90170" y="31750"/><use xlink:href="#K0bXOg2bA_Ajzg8Ep4xB_pad-6" x="92710" y="31750"/><use xlink:href="#K0bXOg2bA_Ajzg8Ep4xB_pad-6" x="95250" y="31750"/><use xlink:href="#K0bXOg2bA_Ajzg8Ep4xB_pad-6" x="97790" y="31750"/><use xlink:href="#K0bXOg2bA_Ajzg8Ep4xB_pad-6" x="100330" y="31750"/><use xlink:href="#K0bXOg2bA_Ajzg8Ep4xB_pad-6" x="102870" y="31750"/><use xlink:href="#K0bXOg2bA_Ajzg8Ep4xB_pad-6" x="105410" y="31750"/><use xlink:href="#K0bXOg2bA_Ajzg8Ep4xB_pad-6" x="107950" y="31750"/><use xlink:href="#K0bXOg2bA_Ajzg8Ep4xB_pad-6" x="110490" y="31750"/><use xlink:href="#K0bXOg2bA_Ajzg8Ep4xB_pad-6" x="113030" y="31750"/><use xlink:href="#K0bXOg2bA_Ajzg8Ep4xB_pad-6" x="115570" y="31750"/><use xlink:href="#K0bXOg2bA_Ajzg8Ep4xB_pad-6" x="118110" y="31750"/><use xlink:href="#K0bXOg2bA_Ajzg8Ep4xB_pad-6" x="120650" y="31750"/><use xlink:href="#K0bXOg2bA_Ajzg8Ep4xB_pad-6" x="74930" y="57150"/><use xlink:href="#K0bXOg2bA_Ajzg8Ep4xB_pad-6" x="77470" y="57150"/><use xlink:href="#K0bXOg2bA_Ajzg8Ep4xB_pad-6" x="80010" y="57150"/><use xlink:href="#K0bXOg2bA_Ajzg8Ep4xB_pad-6" x="82550" y="57150"/><use xlink:href="#K0bXOg2bA_Ajzg8Ep4xB_pad-6" x="85090" y="57150"/><use xlink:href="#K0bXOg2bA_Ajzg8Ep4xB_pad-6" x="87630" y="57150"/><use xlink:href="#K0bXOg2bA_Ajzg8Ep4xB_pad-6" x="90170" y="57150"/><use xlink:href="#K0bXOg2bA_Ajzg8Ep4xB_pad-6" x="92710" y="57150"/><use xlink:href="#K0bXOg2bA_Ajzg8Ep4xB_pad-6" x="95250" y="57150"/><use xlink:href="#K0bXOg2bA_Ajzg8Ep4xB_pad-6" x="97790" y="57150"/><use xlink:href="#K0bXOg2bA_Ajzg8Ep4xB_pad-6" x="100330" y="57150"/><use xlink:href="#K0bXOg2bA_Ajzg8Ep4xB_pad-6" x="102870" y="57150"/><use xlink:href="#K0bXOg2bA_Ajzg8Ep4xB_pad-6" x="105410" y="57150"/><use xlink:href="#K0bXOg2bA_Ajzg8Ep4xB_pad-6" x="107950" y="57150"/><use xlink:href="#K0bXOg2bA_Ajzg8Ep4xB_pad-6" x="110490" y="57150"/><use xlink:href="#K0bXOg2bA_Ajzg8Ep4xB_pad-6" x="113030" y="57150"/><use xlink:href="#K0bXOg2bA_Ajzg8Ep4xB_pad-6" x="115570" y="57150"/><use xlink:href="#K0bXOg2bA_Ajzg8Ep4xB_pad-6" x="118110" y="57150"/><use xlink:href="#K0bXOg2bA_Ajzg8Ep4xB_pad-6" x="120650" y="57150"/><use xlink:href="#K0bXOg2bA_Ajzg8Ep4xB_pad-6" x="138430" y="39370"/><use xlink:href="#K0bXOg2bA_Ajzg8Ep4xB_pad-6" x="138430" y="41910"/><use xlink:href="#K0bXOg2bA_Ajzg8Ep4xB_pad-6" x="138430" y="44450"/><use xlink:href="#K0bXOg2bA_Ajzg8Ep4xB_pad-6" x="138430" y="46990"/><use xlink:href="#K0bXOg2bA_Ajzg8Ep4xB_pad-6" x="138430" y="49530"/><use xlink:href="#K0bXOg2bA_Ajzg8Ep4xB_pad-6" x="138430" y="52070"/><use xlink:href="#K0bXOg2bA_Ajzg8Ep4xB_pad-6" x="138430" y="54610"/><use xlink:href="#K0bXOg2bA_Ajzg8Ep4xB_pad-6" x="138430" y="57150"/><use xlink:href="#K0bXOg2bA_Ajzg8Ep4xB_pad-6" x="72390" y="81280"/><use xlink:href="#K0bXOg2bA_Ajzg8Ep4xB_pad-6" x="74930" y="81280"/><use xlink:href="#K0bXOg2bA_Ajzg8Ep4xB_pad-6" x="77470" y="81280"/><use xlink:href="#K0bXOg2bA_Ajzg8Ep4xB_pad-6" x="80010" y="81280"/><use xlink:href="#K0bXOg2bA_Ajzg8Ep4xB_pad-6" x="114300" y="81280"/><use xlink:href="#K0bXOg2bA_Ajzg8Ep4xB_pad-6" x="116840" y="81280"/><use xlink:href="#K0bXOg2bA_Ajzg8Ep4xB_pad-6" x="119380" y="81280"/><use xlink:href="#K0bXOg2bA_Ajzg8Ep4xB_pad-6" x="121920" y="81280"/><use xlink:href="#K0bXOg2bA_Ajzg8Ep4xB_pad-6" x="88900" y="81280"/><use xlink:href="#K0bXOg2bA_Ajzg8Ep4xB_pad-6" x="91440" y="81280"/><use xlink:href="#K0bXOg2bA_Ajzg8Ep4xB_pad-6" x="93980" y="81280"/><use xlink:href="#K0bXOg2bA_Ajzg8Ep4xB_pad-6" x="102870" y="81280"/><use xlink:href="#K0bXOg2bA_Ajzg8Ep4xB_pad-6" x="105410" y="81280"/><use xlink:href="#K0bXOg2bA_Ajzg8Ep4xB_pad-6" x="107950" y="81280"/><use xlink:href="#K0bXOg2bA_Ajzg8Ep4xB_pad-6" x="63500" y="81280"/><use xlink:href="#K0bXOg2bA_Ajzg8Ep4xB_pad-6" x="60960" y="81280"/><use xlink:href="#K0bXOg2bA_Ajzg8Ep4xB_pad-6" x="58420" y="81280"/><use xlink:href="#K0bXOg2bA_Ajzg8Ep4xB_pad-6" x="55880" y="81280"/><use xlink:href="#K0bXOg2bA_Ajzg8Ep4xB_pad-6" x="53340" y="81280"/><use xlink:href="#K0bXOg2bA_Ajzg8Ep4xB_pad-6" x="129540" y="81280"/><use xlink:href="#K0bXOg2bA_Ajzg8Ep4xB_pad-6" x="132080" y="81280"/><use xlink:href="#K0bXOg2bA_Ajzg8Ep4xB_pad-6" x="134620" y="81280"/><use xlink:href="#K0bXOg2bA_Ajzg8Ep4xB_pad-6" x="137160" y="81280"/><use xlink:href="#K0bXOg2bA_Ajzg8Ep4xB_pad-7" x="48260" y="43180"/><use xlink:href="#K0bXOg2bA_Ajzg8Ep4xB_pad-7" x="48260" y="39370"/><use xlink:href="#K0bXOg2bA_Ajzg8Ep4xB_pad-7" x="48260" y="46990"/><use xlink:href="#K0bXOg2bA_Ajzg8Ep4xB_pad-7" x="68580" y="48260"/><use xlink:href="#K0bXOg2bA_Ajzg8Ep4xB_pad-7" x="68580" y="43180"/><use xlink:href="#K0bXOg2bA_Ajzg8Ep4xB_pad-7" x="68580" y="38100"/><use xlink:href="#K0bXOg2bA_Ajzg8Ep4xB_pad-7" x="141351" y="15621"/><use xlink:href="#K0bXOg2bA_Ajzg8Ep4xB_pad-7" x="141351" y="9144"/><use xlink:href="#K0bXOg2bA_Ajzg8Ep4xB_pad-7" x="130810" y="34290"/><use xlink:href="#K0bXOg2bA_Ajzg8Ep4xB_pad-7" x="99060" y="22860"/><use xlink:href="#K0bXOg2bA_Ajzg8Ep4xB_pad-7" x="78740" y="46990"/><use xlink:href="#K0bXOg2bA_Ajzg8Ep4xB_pad-7" x="114300" y="82169"/><use xlink:href="#K0bXOg2bA_Ajzg8Ep4xB_pad-7" x="58420" y="46990"/><use xlink:href="#K0bXOg2bA_Ajzg8Ep4xB_pad-7" x="105410" y="8890"/><use xlink:href="#K0bXOg2bA_Ajzg8Ep4xB_pad-7" x="128270" y="29210"/><use xlink:href="#K0bXOg2bA_Ajzg8Ep4xB_pad-7" x="67310" y="62230"/><use xlink:href="#K0bXOg2bA_Ajzg8Ep4xB_pad-7" x="119380" y="44450"/><use xlink:href="#K0bXOg2bA_Ajzg8Ep4xB_pad-7" x="121920" y="43180"/><use xlink:href="#K0bXOg2bA_Ajzg8Ep4xB_pad-7" x="115570" y="44450"/><use xlink:href="#K0bXOg2bA_Ajzg8Ep4xB_pad-7" x="97790" y="41910"/><use xlink:href="#K0bXOg2bA_Ajzg8Ep4xB_pad-7" x="67310" y="53467"/><use xlink:href="#K0bXOg2bA_Ajzg8Ep4xB_pad-7" x="70485" y="72517"/><use xlink:href="#K0bXOg2bA_Ajzg8Ep4xB_pad-7" x="104140" y="67310"/><use xlink:href="#K0bXOg2bA_Ajzg8Ep4xB_pad-7" x="81280" y="46990"/><use xlink:href="#K0bXOg2bA_Ajzg8Ep4xB_pad-7" x="73660" y="50800"/><use xlink:href="#K0bXOg2bA_Ajzg8Ep4xB_pad-7" x="105410" y="20320"/><use xlink:href="#K0bXOg2bA_Ajzg8Ep4xB_pad-7" x="139700" y="31750"/><use xlink:href="#K0bXOg2bA_Ajzg8Ep4xB_pad-7" x="139700" y="21590"/><use xlink:href="#K0bXOg2bA_Ajzg8Ep4xB_pad-7" x="116520" y="17780"/><use xlink:href="#K0bXOg2bA_Ajzg8Ep4xB_pad-7" x="104074" y="15240"/><use xlink:href="#K0bXOg2bA_Ajzg8Ep4xB_pad-7" x="118110" y="20320"/><use xlink:href="#K0bXOg2bA_Ajzg8Ep4xB_pad-7" x="107950" y="20320"/><use xlink:href="#K0bXOg2bA_Ajzg8Ep4xB_pad-7" x="95250" y="20320"/><use xlink:href="#K0bXOg2bA_Ajzg8Ep4xB_pad-7" x="58420" y="42799"/></g></svg>