<svg version="1.1" xmlns="http://www.w3.org/2000/svg" xmlns:xlink="http://www.w3.org/1999/xlink" stroke-linecap="round" stroke-linejoin="round" stroke-width="0" fill-rule="evenodd" width="143.49mm" height="86.03mm" viewBox="0 0 143490 86030" id="VyIxAxzqIm9J9ReCTyHB"><g transform="translate(0,86030) scale(1,-1)" fill="currentColor" stroke="currentColor"><path d="M 0 0 143490 0 143490 86030 0 86030 0 0 M 13700 83776.3 13692.4 83689.4 13677.2 83603.4 13654.6 83519 13624.8 83437 13587.9 83357.8 13544.2 83282.2 13494.1 83210.7 13438 83143.8 13376.2 83082 13309.3 83025.9 13237.8 82975.8 13162.2 82932.1 13083 82895.2 13001 82865.4 12916.6 82842.8 12830.7 82827.6 12743.7 82820 12656.3 82820 12569.4 82827.6 12483.4 82842.8 12399 82865.4 12317 82895.2 12237.8 82932.1 12162.2 82975.8 12090.7 83025.9 12023.8 83082 11962 83143.8 11905.9 83210.7 11855.8 83282.2 11812.1 83357.8 11775.2 83437 11745.4 83519 11722.8 83603.4 11707.6 83689.4 11700 83776.3 11700 83863.7 11707.6 83950.7 11722.8 84036.6 11745.4 84121 11775.2 84203 11812.1 84282.2 11855.8 84357.8 11905.9 84429.3 11962 84496.2 12023.8 84558 12090.7 84614.1 12162.2 84664.2 12237.8 84707.9 12317 84744.8 12399 84774.6 12483.4 84797.2 12569.4 84812.4 12656.3 84820 12743.7 84820 12830.7 84812.4 12916.6 84797.2 13001 84774.6 13083 84744.8 13162.2 84707.9 13237.8 84664.2 13309.3 84614.1 13376.2 84558 13438 84496.2 13494.1 84429.3 13544.2 84357.8 13587.9 84282.2 13624.8 84203 13654.6 84121 13677.2 84036.6 13692.4 83950.7 13700 83863.7 13700 83776.3 M 13700 2496.3 13692.4 2409.4 13677.2 2323.4 13654.6 2239 13624.8 2157 13587.9 2077.8 13544.2 2002.2 13494.1 1930.7 13438 1863.8 13376.2 1802 13309.3 1745.9 13237.8 1695.8 13162.2 1652.1 13083 1615.2 13001 1585.4 12916.6 1562.8 12830.7 1547.6 12743.7 1540 12656.3 1540 12569.4 1547.6 12483.4 1562.8 12399 1585.4 12317 1615.2 12237.8 1652.1 12162.2 1695.8 12090.7 1745.9 12023.8 1802 11962 1863.8 11905.9 1930.7 11855.8 2002.2 11812.1 2077.8 11775.2 2157 11745.4 2239 11722.8 2323.4 11707.6 2409.4 11700 2496.3 11700 2583.7 11707.6 2670.7 11722.8 2756.6 11745.4 2841 11775.2 2923 11812.1 3002.2 11855.8 3077.8 11905.9 3149.3 11962 3216.2 12023.8 3278 12090.7 3334.1 12162.2 3384.2 12237.8 3427.9 12317 3464.8 12399 3494.6 12483.4 3517.2 12569.4 3532.4 12656.3 3540 12743.7 3540 12830.7 3532.4 12916.6 3517.2 13001 3494.6 13083 3464.8 13162.2 3427.9 13237.8 3384.2 13309.3 3334.1 13376.2 3278 13438 3216.2 13494.1 3149.3 13544.2 3077.8 13587.9 3002.2 13624.8 2923 13654.6 2841 13677.2 2756.6 13692.4 2670.7 13700 2583.7 13700 2496.3 M 126730 3766.3 126722.4 3679.4 126707.2 3593.4 126684.6 3509 126654.8 3427 126617.9 3347.8 126574.2 3272.2 126524.1 3200.7 126468 3133.8 126406.2 3072 126339.3 3015.9 126267.8 2965.8 126192.2 2922.1 126113 2885.2 126031 2855.4 125946.6 2832.8 125860.7 2817.6 125773.7 2810 125686.3 2810 125599.4 2817.6 125513.4 2832.8 125429 2855.4 125347 2885.2 125267.8 2922.1 125192.2 2965.8 125120.7 3015.9 125053.8 3072 124992 3133.8 124935.9 3200.7 124885.8 3272.2 124842.1 3347.8 124805.2 3427 124775.4 3509 124752.8 3593.4 124737.6 3679.4 124730 3766.3 124730 3853.7 124737.6 3940.7 124752.8 4026.6 124775.4 4111 124805.2 4193 124842.1 4272.2 124885.8 4347.8 124935.9 4419.3 124992 4486.2 125053.8 4548 125120.7 4604.1 125192.2 4654.2 125267.8 4697.9 125347 4734.8 125429 4764.6 125513.4 4787.2 125599.4 4802.4 125686.3 4810 125773.7 4810 125860.7 4802.4 125946.6 4787.2 126031 4764.6 126113 4734.8 126192.2 4697.9 126267.8 4654.2 126339.3 4604.1 126406.2 4548 126468 4486.2 126524.1 4419.3 126574.2 4347.8 126617.9 4272.2 126654.8 4193 126684.6 4111 126707.2 4026.6 126722.4 3940.7 126730 3853.7 126730 3766.3 M 126730 81236.3 126722.4 81149.4 126707.2 81063.4 126684.6 80979 126654.8 80897 126617.9 80817.8 126574.2 80742.2 126524.1 80670.7 126468 80603.8 126406.2 80542 126339.3 80485.9 126267.8 80435.8 126192.2 80392.1 126113 80355.2 126031 80325.4 125946.6 80302.8 125860.7 80287.6 125773.7 80280 125686.3 80280 125599.4 80287.6 125513.4 80302.8 125429 80325.4 125347 80355.2 125267.8 80392.1 125192.2 80435.8 125120.7 80485.9 125053.8 80542 124992 80603.8 124935.9 80670.7 124885.8 80742.2 124842.1 80817.8 124805.2 80897 124775.4 80979 124752.8 81063.4 124737.6 81149.4 124730 81236.3 124730 81323.7 124737.6 81410.7 124752.8 81496.6 124775.4 81581 124805.2 81663 124842.1 81742.2 124885.8 81817.8 124935.9 81889.3 124992 81956.2 125053.8 82018 125120.7 82074.1 125192.2 82124.2 125267.8 82167.9 125347 82204.8 125429 82234.6 125513.4 82257.2 125599.4 82272.4 125686.3 82280 125773.7 82280 125860.7 82272.4 125946.6 82257.2 126031 82234.6 126113 82204.8 126192.2 82167.9 126267.8 82124.2 126339.3 82074.1 126406.2 82018 126468 81956.2 126524.1 81889.3 126574.2 81817.8 126617.9 81742.2 126654.8 81663 126684.6 81581 126707.2 81496.6 126722.4 81410.7 126730 81323.7 126730 81236.3 M 135927.1 6919 136001.1 6912.5 136074.2 6899.6 136145.8 6880.4 136215.6 6855 136282.9 6823.7 136347.1 6786.6 136407.9 6744 136464.8 6696.3 136517.3 6643.8 136565 6586.9 136607.6 6526.1 136644.7 6461.9 136676 6394.6 136701.4 6324.8 136720.6 6253.2 136733.5 6180.1 136740 6106.1 136740 6031.9 136733.5 5957.9 136720.6 5884.9 136701.4 5813.2 136676 5743.4 136644.7 5676.1 136607.6 5611.9 136565 5551.1 136517.3 5494.2 136464.8 5441.7 136407.9 5394 136347.1 5351.4 136282.9 5314.3 136215.6 5283 136145.8 5257.6 136074.2 5238.4 136001.1 5225.5 135927.1 5219 135852.9 5219 135778.9 5225.5 135705.9 5238.4 135634.2 5257.6 135564.4 5283 135497.1 5314.3 135432.9 5351.4 135372.1 5394 135315.2 5441.7 135262.7 5494.2 135215 5551.1 135172.4 5611.9 135135.3 5676.1 135104 5743.4 135078.6 5813.2 135059.4 5884.9 135046.5 5957.9 135040 6031.9 135040 6106.1 135046.5 6180.1 135059.4 6253.2 135078.6 6324.8 135104 6394.6 135135.3 6461.9 135172.4 6526.1 135215 6586.9 135262.7 6643.8 135315.2 6696.3 135372.1 6744 135432.9 6786.6 135497.1 6823.7 135564.4 6855 135634.2 6880.4 135705.9 6899.6 135778.9 6912.5 135852.9 6919 135927.1 6919 M 135931.5 11519 136014.1 11511.8 136095.8 11497.4 136175.9 11475.9 136253.9 11447.5 136329.1 11412.5 136400.9 11371 136468.9 11323.4 136532.4 11270.1 136591.1 11211.4 136644.4 11147.9 136692 11079.9 136733.5 11008.1 136768.5 10932.9 136796.9 10854.9 136818.4 10774.8 136832.8 10693.1 136840 10610.5 136840 10527.5 136832.8 10444.9 136818.4 10363.2 136796.9 10283.1 136768.5 10205.1 136733.5 10129.9 136692 10058.1 136644.4 9990.1 136591.1 9926.6 136532.4 9867.9 136468.9 9814.6 136400.9 9767 136329.1 9725.5 136253.9 9690.5 136175.9 9662.1 136095.8 9640.6 136014.1 9626.2 135931.5 9619 135848.5 9619 135765.9 9626.2 135684.2 9640.6 135604.1 9662.1 135526.1 9690.5 135450.9 9725.5 135379.1 9767 135311.1 9814.6 135247.6 9867.9 135188.9 9926.6 135135.6 9990.1 135088 10058.1 135046.5 10129.9 135011.5 10205.1 134983.1 10283.1 134961.6 10363.2 134947.2 10444.9 134940 10527.5 134940 10610.5 134947.2 10693.1 134961.6 10774.8 134983.1 10854.9 135011.5 10932.9 135046.5 11008.1 135088 11079.9 135135.6 11147.9 135188.9 11211.4 135247.6 11270.1 135311.1 11323.4 135379.1 11371 135450.9 11412.5 135526.1 11447.5 135604.1 11475.9 135684.2 11497.4 135765.9 11511.8 135848.5 11519 135931.5 11519" fill="none" stroke-width="254"/></g></svg>