<svg version="1.1" xmlns="http://www.w3.org/2000/svg" xmlns:xlink="http://www.w3.org/1999/xlink" stroke-linecap="round" stroke-linejoin="round" stroke-width="0" fill-rule="evenodd" width="44.958mm" height="84.328mm" viewBox="1016 1016 44958 84328" id="H1qlJQiPinbKgn5S1DPT"><g transform="translate(0,86360) scale(1,-1)" fill="currentColor" stroke="currentColor"><path d="M 12852.4 18548.4 12852.4 17769.4 12852.6 17750.6 12853.3 17731.8 12854.4 17713 12856 17694.2 12858.1 17675.5 12860.6 17656.9 12863.5 17638.3 12866.9 17619.8 12870.8 17601.3 12875 17583 12879.8 17564.8 12884.9 17546.7 12890.5 17528.7 12896.6 17510.9 12903 17493.2 12909.9 17475.7 12917.2 17458.3 12924.9 17441.2 12933.1 17424.2 12941.6 17407.4 12950.6 17390.9 12959.9 17374.5 12969.6 17358.4 12979.8 17342.6 12990.3 17326.9 13001.2 17311.6 13012.4 17296.5 13024 17281.7 13036 17267.1 13048.3 17252.9 13060.9 17239 13073.9 17225.3 13087.2 17212 13100.9 17199 13114.8 17186.4 13129 17174.1 13143.6 17162.1 13158.4 17150.5 13173.5 17139.3 13188.8 17128.4 13204.5 17117.9 13220.3 17107.7 13236.4 17098 13252.8 17088.7 13269.3 17079.7 13286.1 17071.2 13303.1 17063 13320.2 17055.3 13337.6 17048 13355.1 17041.1 13372.8 17034.7 13390.6 17028.6 13408.6 17023 13426.7 17017.9 13444.9 17013.1 13463.2 17008.9 13481.7 17005 13500.2 17001.6 13518.8 16998.7 13537.4 16996.2 13556.1 16994.1 13574.9 16992.5 13593.7 16991.4 13612.5 16990.7 13631.3 16990.5 15578.7 16990.5 15597.8 16990.7 15616.9 16991.4 15636 16992.6 15655 16994.3 15674 16996.4 15693 16998.9 15711.9 17002 15730.7 17005.5 15749.4 17009.4 15768 17013.8 15786.4 17018.7 15804.8 17024 15823 17029.8 15841.1 17036 15859 17042.7 15876.8 17049.8 15894.3 17057.3 15911.7 17065.3 15928.9 17073.7 15945.9 17082.5 15962.6 17091.7 15979.1 17101.3 15995.4 17111.3 16011.4 17121.8 16027.2 17132.6 16042.7 17143.8 16057.9 17155.4 16072.8 17167.3 16087.5 17179.6 16101.8 17192.3 16115.8 17205.3 16129.5 17218.6 16142.8 17232.3 16155.8 17246.3 16168.5 17260.6 16180.8 17275.3 16192.7 17290.2 16204.3 17305.4 16215.5 17320.9 16226.3 17336.7 16236.8 17352.7 16246.8 17369 16256.4 17385.5 16265.6 17402.2 16274.4 17419.2 16282.8 17436.4 16290.8 17453.8 16298.3 17471.3 16305.4 17489.1 16312.1 17507 16318.3 17525.1 16324.1 17543.3 16329.4 17561.7 16334.3 17580.1 16338.7 17598.7 16342.6 17617.4 16346.1 17636.2 16349.2 17655.1 16351.7 17674.1 16353.8 17693.1 16355.5 17712.1 16356.7 17731.2 16357.4 17750.3 16357.6 17769.4 16357.6 18548.4 M 16357.6 20344.6 12852.4 19176.2 M 12852.4 21513 16357.6 20344.6 M 13728.7 21220.9 13728.7 19468.3 M 13826.1 22323.6 16357.6 22323.6 M 13826.1 22323.6 13802.4 22323.9 13778.7 22324.8 13755 22326.2 13731.4 22328.2 13707.8 22330.8 13684.3 22334 13660.9 22337.7 13637.6 22342 13614.4 22346.9 13591.3 22352.3 13568.4 22358.3 13545.6 22364.9 13523 22372 13500.5 22379.6 13478.3 22387.8 13456.2 22396.6 13434.4 22405.9 13412.8 22415.7 13391.5 22426 13370.4 22436.8 13349.6 22448.2 13329 22460 13308.8 22472.4 13288.8 22485.2 13269.2 22498.6 13249.9 22512.4 13231 22526.6 13212.4 22541.3 13194.2 22556.5 13176.3 22572.1 13158.9 22588.2 13141.8 22604.6 13125.1 22621.5 13108.9 22638.7 13093.1 22656.4 13077.7 22674.5 13062.7 22692.9 13048.2 22711.6 13034.2 22730.7 13020.6 22750.2 13007.6 22770 12995 22790.1 12982.9 22810.4 12971.2 22831.1 12960.1 22852.1 12949.6 22873.3 12939.5 22894.8 12930 22916.5 12921 22938.4 12912.5 22960.6 12904.6 22982.9 12897.2 23005.4 12890.3 23028.2 12884.1 23051 12878.3 23074 12873.2 23097.2 12868.6 23120.4 12864.6 23143.8 12861.1 23167.3 12858.2 23190.8 12855.9 23214.4 12854.2 23238.1 12853 23261.7 12852.5 23285.4 12852.5 23309.2 12853 23332.9 12854.2 23356.5 12855.9 23380.2 12858.2 23403.8 12861.1 23427.3 12864.6 23450.8 12868.6 23474.2 12873.2 23497.4 12878.3 23520.6 12884.1 23543.6 12890.3 23566.4 12897.2 23589.2 12904.6 23611.7 12912.5 23634 12921 23656.2 12930 23678.1 12939.5 23699.8 12949.6 23721.3 12960.1 23742.5 12971.2 23763.5 12982.9 23784.2 12995 23804.5 13007.6 23824.6 13020.6 23844.4 13034.2 23863.9 13048.2 23883 13062.7 23901.7 13077.7 23920.1 13093.1 23938.2 13108.9 23955.9 13125.1 23973.1 13141.8 23990 13158.9 24006.4 13176.3 24022.5 13194.2 24038.1 13212.4 24053.3 13231 24068 13249.9 24082.2 13269.2 24096 13288.8 24109.4 13308.8 24122.2 13329 24134.6 13349.6 24146.4 13370.4 24157.8 13391.5 24168.6 13412.8 24178.9 13434.4 24188.7 13456.2 24198 13478.3 24206.8 13500.5 24215 13523 24222.6 13545.6 24229.7 13568.4 24236.3 13591.3 24242.3 13614.4 24247.7 13637.6 24252.6 13660.9 24256.9 13684.3 24260.6 13707.8 24263.8 13731.4 24266.4 13755 24268.4 13778.7 24269.8 13802.4 24270.7 13826.1 24271 16357.6 24271 M 16357.6 26059.6 12852.4 26059.6 M 16357.6 25085.9 16357.6 27033.2 M 16357.6 28155.1 12852.4 28155.1 M 12852.4 28544.5 12852.4 27765.6 M 16357.6 27765.6 16357.6 28544.5 M 15383.9 29467.4 13826.1 29467.4 M 15383.9 29467.4 15407.6 29467.7 15431.3 29468.6 15455 29470 15478.6 29472 15502.2 29474.6 15525.7 29477.8 15549.1 29481.5 15572.4 29485.8 15595.6 29490.7 15618.7 29496.1 15641.6 29502.1 15664.4 29508.7 15687 29515.8 15709.5 29523.4 15731.7 29531.6 15753.8 29540.4 15775.6 29549.7 15797.2 29559.5 15818.5 29569.8 15839.6 29580.6 15860.4 29592 15881 29603.8 15901.2 29616.2 15921.2 29629 15940.8 29642.4 15960.1 29656.2 15979 29670.4 15997.6 29685.1 16015.8 29700.3 16033.7 29715.9 16051.1 29732 16068.2 29748.4 16084.9 29765.3 16101.1 29782.5 16116.9 29800.2 16132.3 29818.3 16147.3 29836.7 16161.8 29855.4 16175.8 29874.5 16189.4 29894 16202.4 29913.8 16215 29933.9 16227.1 29954.3 16238.8 29974.9 16249.9 29995.9 16260.4 30017.1 16270.5 30038.6 16280 30060.3 16289 30082.2 16297.5 30104.4 16305.4 30126.7 16312.8 30149.2 16319.7 30172 16325.9 30194.8 16331.7 30217.8 16336.8 30241 16341.4 30264.2 16345.4 30287.6 16348.9 30311.1 16351.8 30334.6 16354.1 30358.2 16355.8 30381.9 16357 30405.5 16357.5 30429.2 16357.5 30453 16357 30476.7 16355.8 30500.3 16354.1 30524 16351.8 30547.6 16348.9 30571.1 16345.4 30594.6 16341.4 30618 16336.8 30641.2 16331.7 30664.4 16325.9 30687.4 16319.7 30710.2 16312.8 30733 16305.4 30755.5 16297.5 30777.8 16289 30800 16280 30821.9 16270.5 30843.6 16260.4 30865.1 16249.9 30886.3 16238.8 30907.3 16227.1 30928 16215 30948.3 16202.4 30968.4 16189.4 30988.2 16175.8 31007.7 16161.8 31026.8 16147.3 31045.5 16132.3 31063.9 16116.9 31082 16101.1 31099.7 16084.9 31116.9 16068.2 31133.8 16051.1 31150.2 16033.7 31166.3 16015.8 31181.9 15997.6 31197.1 15979 31211.8 15960.1 31226 15940.8 31239.8 15921.2 31253.2 15901.2 31266 15881 31278.4 15860.4 31290.2 15839.6 31301.6 15818.5 31312.4 15797.2 31322.7 15775.6 31332.5 15753.8 31341.8 15731.7 31350.6 15709.5 31358.8 15687 31366.4 15664.4 31373.5 15641.6 31380.1 15618.7 31386.1 15595.6 31391.5 15572.4 31396.4 15549.1 31400.7 15525.7 31404.4 15502.2 31407.6 15478.6 31410.2 15455 31412.2 15431.3 31413.6 15407.6 31414.5 15383.9 31414.8 M 15383.9 31414.7 13826.1 31414.7 M 13826.1 31414.8 13802.4 31414.5 13778.7 31413.6 13755 31412.2 13731.4 31410.2 13707.8 31407.6 13684.3 31404.4 13660.9 31400.7 13637.6 31396.4 13614.4 31391.5 13591.3 31386.1 13568.4 31380.1 13545.6 31373.5 13523 31366.4 13500.5 31358.8 13478.3 31350.6 13456.2 31341.8 13434.4 31332.5 13412.8 31322.7 13391.5 31312.4 13370.4 31301.6 13349.6 31290.2 13329 31278.4 13308.8 31266 13288.8 31253.2 13269.2 31239.8 13249.9 31226 13231 31211.8 13212.4 31197.1 13194.2 31181.9 13176.3 31166.3 13158.9 31150.2 13141.8 31133.8 13125.1 31116.9 13108.9 31099.7 13093.1 31082 13077.7 31063.9 13062.7 31045.5 13048.2 31026.8 13034.2 31007.7 13020.6 30988.2 13007.6 30968.4 12995 30948.3 12982.9 30928 12971.2 30907.3 12960.1 30886.3 12949.6 30865.1 12939.5 30843.6 12930 30821.9 12921 30800 12912.5 30777.8 12904.6 30755.5 12897.2 30733 12890.3 30710.2 12884.1 30687.4 12878.3 30664.4 12873.2 30641.2 12868.6 30618 12864.6 30594.6 12861.1 30571.1 12858.2 30547.6 12855.9 30524 12854.2 30500.3 12853 30476.7 12852.5 30453 12852.5 30429.2 12853 30405.5 12854.2 30381.9 12855.9 30358.2 12858.2 30334.6 12861.1 30311.1 12864.6 30287.6 12868.6 30264.2 12873.2 30241 12878.3 30217.8 12884.1 30194.8 12890.3 30172 12897.2 30149.2 12904.6 30126.7 12912.5 30104.4 12921 30082.2 12930 30060.3 12939.5 30038.6 12949.6 30017.1 12960.1 29995.9 12971.2 29974.9 12982.9 29954.2 12995 29933.9 13007.6 29913.8 13020.6 29894 13034.2 29874.5 13048.2 29855.4 13062.7 29836.7 13077.7 29818.3 13093.1 29800.2 13108.9 29782.5 13125.1 29765.3 13141.8 29748.4 13158.9 29732 13176.3 29715.9 13194.2 29700.3 13212.4 29685.1 13231 29670.4 13249.9 29656.2 13269.2 29642.4 13288.8 29629 13308.8 29616.2 13329 29603.8 13349.6 29592 13370.4 29580.6 13391.5 29569.8 13412.8 29559.5 13434.4 29549.7 13456.2 29540.4 13478.3 29531.6 13500.5 29523.4 13523 29515.8 13545.6 29508.7 13568.4 29502.1 13591.3 29496.1 13614.4 29490.7 13637.6 29485.8 13660.9 29481.5 13684.3 29477.8 13707.8 29474.6 13731.4 29472 13755 29470 13778.7 29468.6 13802.4 29467.7 13826.1 29467.4 M 12852.4 32420.1 16357.6 32420.1 12852.4 34367.5 16357.6 34367.5 M 16357.6 37967.9 16357.3 37989.1 16356.6 38010.2 16355.3 38031.4 16353.5 38052.5 16351.2 38073.5 16348.4 38094.5 16345.1 38115.4 16341.3 38136.3 16337 38157 16332.1 38177.6 16326.8 38198.1 16321 38218.5 16314.7 38238.7 16307.9 38258.8 16300.7 38278.6 16292.9 38298.3 16284.7 38317.9 16276 38337.2 16266.8 38356.3 16257.2 38375.1 16247.2 38393.8 16236.6 38412.1 16225.7 38430.3 16214.3 38448.1 16202.5 38465.7 16190.2 38483 16177.6 38500 16164.5 38516.6 16151.1 38533 16137.2 38549 16123 38564.7 16108.4 38580 16093.4 38595 16078.1 38609.6 16062.4 38623.8 16046.4 38637.7 16030 38651.1 16013.4 38664.2 15996.4 38676.8 15979.1 38689.1 15961.5 38700.9 15943.7 38712.3 15925.5 38723.2 15907.2 38733.8 15888.5 38743.8 15869.7 38753.4 15850.6 38762.6 15831.3 38771.3 15811.7 38779.5 15792 38787.3 15772.2 38794.5 15752.1 38801.3 15731.9 38807.6 15711.5 38813.4 15691 38818.7 15670.4 38823.6 15649.7 38827.9 15628.8 38831.7 15607.9 38835 15586.9 38837.8 15565.9 38840.1 15544.8 38841.9 15523.6 38843.2 15502.5 38843.9 15481.3 38844.2 M 16357.6 37967.9 16357.3 37940.7 16356.3 37913.5 16354.6 37886.3 16352.3 37859.2 16349.4 37832.1 16345.8 37805.1 16341.5 37778.2 16336.6 37751.4 16331 37724.8 16324.8 37698.3 16318 37671.9 16310.5 37645.7 16302.4 37619.8 16293.7 37594 16284.3 37568.4 16274.4 37543.1 16263.8 37518 16252.6 37493.1 16240.8 37468.6 16228.5 37444.3 16215.5 37420.4 16202 37396.8 16187.9 37373.5 16173.2 37350.5 16158 37327.9 16142.3 37305.7 16126 37283.9 16109.2 37262.5 16091.9 37241.5 16074.1 37220.9 16055.8 37200.7 16037 37181 16017.7 37161.8 15998 37143 15977.8 37124.7 15957.2 37107 15936.2 37089.7 15914.7 37072.9 15892.9 37056.6 15870.6 37040.9 15848 37025.7 15825.1 37011.1 15801.8 36997 15778.1 36983.5 15754.2 36970.6 15729.9 36958.3 15705.3 36946.5 15680.5 36935.4 15655.4 36924.8 15630 36914.9 15604.5 36905.6 15578.7 36896.9 M 14799.7 38552.1 14815.9 38568.6 14832.4 38584.8 14849.3 38600.5 14866.6 38615.8 14884.3 38630.6 14902.3 38645.1 14920.7 38659 14939.4 38672.6 14958.5 38685.6 14977.8 38698.2 14997.5 38710.3 15017.5 38722 15037.7 38733.1 15058.2 38743.7 15079 38753.9 15100 38763.5 15121.2 38772.6 15142.6 38781.2 15164.3 38789.2 15186.1 38796.7 15208.1 38803.7 15230.3 38810.1 15252.7 38816 15275.1 38821.3 15297.7 38826.1 15320.4 38830.3 15343.2 38834 15366.1 38837.1 15389.1 38839.7 15412.1 38841.7 15435.1 38843.1 15458.2 38843.9 15481.3 38844.2 M 14799.7 38552.1 12852.4 36896.9 12852.4 38844.2 M 13631.3 39754.4 16357.6 40533.3 M 13631.3 39754.4 13631.3 41701.7 M 12852.4 41117.5 14410.3 41117.5 M 14605 42611.9 14674 42612.7 14742.9 42615.2 14811.7 42619.3 14880.4 42625.1 14949 42632.5 15017.3 42641.5 15085.5 42652.1 15153.3 42664.4 15220.9 42678.3 15288.1 42693.8 15354.9 42710.9 15421.2 42729.6 15487.1 42749.9 15552.6 42771.7 15617.4 42795.1 15681.7 42820.1 15745.4 42846.5 15808.4 42874.5 15870.8 42904 15887.3 42909.9 15903.6 42916.2 15919.8 42922.9 15935.9 42930 15951.7 42937.4 15967.4 42945.3 15982.9 42953.5 15998.2 42962.1 16013.2 42971.1 16028 42980.4 16042.6 42990.1 16057 43000.1 16071.1 43010.5 16085 43021.2 16098.6 43032.3 16111.9 43043.7 16124.9 43055.4 16137.7 43067.4 16150.1 43079.7 16162.3 43092.4 16174.1 43105.3 16185.7 43118.5 16196.9 43132 16207.7 43145.7 16218.3 43159.7 16228.4 43174 16238.3 43188.5 16247.8 43203.2 16256.9 43218.2 16265.6 43233.4 16274 43248.8 16282 43264.4 16289.6 43280.1 16296.9 43296.1 16303.7 43312.2 16310.2 43328.5 16316.2 43345 16321.9 43361.6 16327.1 43378.3 16332 43395.1 16336.4 43412.1 16340.4 43429.1 16344 43446.3 16347.2 43463.5 16349.9 43480.8 16352.3 43498.2 16354.2 43515.6 16355.7 43533.1 16356.7 43550.6 16357.4 43568.1 16357.6 43585.6 16357.4 43603.1 16356.7 43620.6 16355.7 43638.1 16354.2 43655.6 16352.3 43673 16349.9 43690.4 16347.2 43707.7 16344 43724.9 16340.4 43742.1 16336.4 43759.1 16332 43776.1 16327.1 43792.9 16321.9 43809.6 16316.2 43826.2 16310.2 43842.7 16303.7 43859 16296.9 43875.1 16289.6 43891.1 16282 43906.9 16274 43922.4 16265.6 43937.8 16256.9 43953 16247.8 43968 16238.3 43982.7 16228.4 43997.2 16218.3 44011.5 16207.7 44025.5 16196.9 44039.2 16185.7 44052.7 16174.1 44065.9 16162.3 44078.8 16150.1 44091.5 16137.7 44103.8 16124.9 44115.8 16111.9 44127.5 16098.6 44138.9 16085 44150 16071.1 44160.7 16057 44171.1 16042.6 44181.1 16028 44190.8 16013.2 44200.1 15998.1 44209.1 15982.9 44217.7 15967.4 44225.9 15951.7 44233.8 15935.9 44241.2 15919.8 44248.3 15903.6 44255 15887.3 44261.3 15870.8 44267.2 M 15870.8 44267.1 15808.4 44296.6 15745.4 44324.6 15681.7 44351 15617.4 44376 15552.6 44399.4 15487.1 44421.2 15421.2 44441.5 15354.9 44460.2 15288.1 44477.3 15220.9 44492.8 15153.3 44506.7 15085.5 44519 15017.3 44529.6 14949 44538.6 14880.4 44546 14811.7 44551.8 14742.9 44555.9 14674 44558.4 14605 44559.2 M 14605 42611.8 14536 42612.6 14467.1 42615.1 14398.3 42619.2 14329.6 42625 14261 42632.4 14192.6 42641.4 14124.5 42652 14056.7 42664.3 13989.1 42678.2 13921.9 42693.7 13855.1 42710.8 13788.7 42729.5 13722.8 42749.8 13657.4 42771.6 13592.6 42795 13528.3 42820 13464.6 42846.4 13401.6 42874.4 13339.2 42903.9 M 13339.2 42904 13322.7 42909.9 13306.4 42916.2 13290.2 42922.9 13274.1 42930 13258.3 42937.4 13242.6 42945.3 13227.1 42953.5 13211.8 42962.1 13196.8 42971.1 13182 42980.4 13167.3 42990.1 13153 43000.1 13138.9 43010.5 13125 43021.2 13111.4 43032.3 13098.1 43043.7 13085.1 43055.4 13072.3 43067.4 13059.9 43079.7 13047.7 43092.4 13035.9 43105.3 13024.3 43118.5 13013.1 43132 13002.3 43145.7 12991.7 43159.7 12981.6 43174 12971.7 43188.5 12962.2 43203.2 12953.1 43218.2 12944.4 43233.4 12936 43248.8 12928 43264.4 12920.4 43280.1 12913.1 43296.1 12906.3 43312.2 12899.8 43328.5 12893.8 43345 12888.1 43361.6 12882.9 43378.3 12878 43395.1 12873.6 43412.1 12869.6 43429.1 12866 43446.3 12862.8 43463.5 12860.1 43480.8 12857.7 43498.2 12855.8 43515.6 12854.3 43533.1 12853.3 43550.6 12852.6 43568.1 12852.4 43585.6 M 13339.2 44267.2 13401.6 44296.7 13464.6 44324.7 13528.3 44351.1 13592.6 44376.1 13657.4 44399.5 13722.8 44421.3 13788.7 44441.6 13855.1 44460.3 13921.9 44477.4 13989.1 44492.9 14056.7 44506.8 14124.5 44519.1 14192.6 44529.7 14261 44538.7 14329.6 44546.1 14398.3 44551.9 14467.1 44556 14536 44558.5 14605 44559.3 M 13339.2 44267.2 13322.7 44261.3 13306.4 44255 13290.2 44248.3 13274.1 44241.2 13258.3 44233.8 13242.6 44225.9 13227.1 44217.7 13211.8 44209.1 13196.8 44200.1 13182 44190.8 13167.4 44181.1 13153 44171.1 13138.9 44160.7 13125 44150 13111.4 44138.9 13098.1 44127.5 13085.1 44115.8 13072.3 44103.8 13059.9 44091.5 13047.7 44078.8 13035.9 44065.9 13024.3 44052.7 13013.1 44039.2 13002.3 44025.5 12991.7 44011.5 12981.6 43997.2 12971.7 43982.7 12962.2 43968 12953.1 43953 12944.4 43937.8 12936 43922.4 12928 43906.9 12920.4 43891.1 12913.1 43875.1 12906.3 43859 12899.8 43842.7 12893.8 43826.2 12888.1 43809.6 12882.9 43792.9 12878 43776.1 12873.6 43759.1 12869.6 43742.1 12866 43724.9 12862.8 43707.7 12860.1 43690.4 12857.7 43673 12855.8 43655.6 12854.3 43638.1 12853.3 43620.6 12852.6 43603.1 12852.4 43585.6 M 13631.3 42806.6 15578.7 44364.5 M 16357.6 46798.7 12852.4 47967.1 16357.6 49135.5 M 15383.9 49850.9 13826.1 49850.9 M 15383.9 49850.9 15407.6 49851.2 15431.3 49852.1 15455 49853.5 15478.6 49855.5 15502.2 49858.1 15525.7 49861.3 15549.1 49865 15572.4 49869.3 15595.6 49874.2 15618.7 49879.6 15641.6 49885.6 15664.4 49892.2 15687 49899.3 15709.5 49906.9 15731.7 49915.1 15753.8 49923.9 15775.6 49933.2 15797.2 49943 15818.5 49953.3 15839.6 49964.1 15860.4 49975.5 15881 49987.3 15901.2 49999.7 15921.2 50012.5 15940.8 50025.9 15960.1 50039.7 15979 50053.9 15997.6 50068.6 16015.8 50083.8 16033.7 50099.4 16051.1 50115.5 16068.2 50131.9 16084.9 50148.8 16101.1 50166 16116.9 50183.7 16132.3 50201.8 16147.3 50220.2 16161.8 50238.9 16175.8 50258 16189.4 50277.5 16202.4 50297.3 16215 50317.4 16227.1 50337.8 16238.8 50358.4 16249.9 50379.4 16260.4 50400.6 16270.5 50422.1 16280 50443.8 16289 50465.7 16297.5 50487.9 16305.4 50510.2 16312.8 50532.7 16319.7 50555.5 16325.9 50578.3 16331.7 50601.3 16336.8 50624.5 16341.4 50647.7 16345.4 50671.1 16348.9 50694.6 16351.8 50718.1 16354.1 50741.7 16355.8 50765.4 16357 50789 16357.5 50812.7 16357.5 50836.5 16357 50860.2 16355.8 50883.8 16354.1 50907.5 16351.8 50931.1 16348.9 50954.6 16345.4 50978.1 16341.4 51001.5 16336.8 51024.7 16331.7 51047.9 16325.9 51070.9 16319.7 51093.7 16312.8 51116.5 16305.4 51139 16297.5 51161.3 16289 51183.5 16280 51205.4 16270.5 51227.1 16260.4 51248.6 16249.9 51269.8 16238.8 51290.8 16227.1 51311.5 16215 51331.8 16202.4 51351.9 16189.4 51371.7 16175.8 51391.2 16161.8 51410.3 16147.3 51429 16132.3 51447.4 16116.9 51465.5 16101.1 51483.2 16084.9 51500.4 16068.2 51517.3 16051.1 51533.7 16033.7 51549.8 16015.8 51565.4 15997.6 51580.6 15979 51595.3 15960.1 51609.5 15940.8 51623.3 15921.2 51636.7 15901.2 51649.5 15881 51661.9 15860.4 51673.7 15839.6 51685.1 15818.5 51695.9 15797.2 51706.2 15775.6 51716 15753.8 51725.3 15731.7 51734.1 15709.5 51742.3 15687 51749.9 15664.4 51757 15641.6 51763.6 15618.7 51769.6 15595.6 51775 15572.4 51779.9 15549.1 51784.2 15525.7 51787.9 15502.2 51791.1 15478.6 51793.7 15455 51795.7 15431.3 51797.1 15407.6 51798 15383.9 51798.3 M 15383.9 51798.2 13826.1 51798.2 M 13826.1 51798.3 13802.4 51798 13778.7 51797.1 13755 51795.7 13731.4 51793.7 13707.8 51791.1 13684.3 51787.9 13660.9 51784.2 13637.6 51779.9 13614.4 51775 13591.3 51769.6 13568.4 51763.6 13545.6 51757 13523 51749.9 13500.5 51742.3 13478.3 51734.1 13456.2 51725.3 13434.4 51716 13412.8 51706.2 13391.5 51695.9 13370.4 51685.1 13349.6 51673.7 13329 51661.9 13308.8 51649.5 13288.8 51636.7 13269.2 51623.3 13249.9 51609.5 13231 51595.3 13212.4 51580.6 13194.2 51565.4 13176.3 51549.8 13158.9 51533.7 13141.8 51517.3 13125.1 51500.4 13108.9 51483.2 13093.1 51465.5 13077.7 51447.4 13062.7 51429 13048.2 51410.3 13034.2 51391.2 13020.6 51371.7 13007.6 51351.9 12995 51331.8 12982.9 51311.5 12971.2 51290.8 12960.1 51269.8 12949.6 51248.6 12939.5 51227.1 12930 51205.4 12921 51183.5 12912.5 51161.3 12904.6 51139 12897.2 51116.5 12890.3 51093.7 12884.1 51070.9 12878.3 51047.9 12873.2 51024.7 12868.6 51001.5 12864.6 50978.1 12861.1 50954.6 12858.2 50931.1 12855.9 50907.5 12854.2 50883.8 12853 50860.2 12852.5 50836.5 12852.5 50812.7 12853 50789 12854.2 50765.4 12855.9 50741.7 12858.2 50718.1 12861.1 50694.6 12864.6 50671.1 12868.6 50647.7 12873.2 50624.5 12878.3 50601.3 12884.1 50578.3 12890.3 50555.5 12897.2 50532.7 12904.6 50510.2 12912.5 50487.9 12921 50465.7 12930 50443.8 12939.5 50422.1 12949.6 50400.6 12960.1 50379.4 12971.2 50358.4 12982.9 50337.7 12995 50317.4 13007.6 50297.3 13020.6 50277.5 13034.2 50258 13048.2 50238.9 13062.7 50220.2 13077.7 50201.8 13093.1 50183.7 13108.9 50166 13125.1 50148.8 13141.8 50131.9 13158.9 50115.5 13176.3 50099.4 13194.2 50083.8 13212.4 50068.6 13231 50053.9 13249.9 50039.7 13269.2 50025.9 13288.8 50012.5 13308.8 49999.7 13329 49987.3 13349.6 49975.5 13370.4 49964.1 13391.5 49953.3 13412.8 49943 13434.4 49933.2 13456.2 49923.9 13478.3 49915.1 13500.5 49906.9 13523 49899.3 13545.6 49892.2 13568.4 49885.6 13591.3 49879.6 13614.4 49874.2 13637.6 49869.3 13660.9 49865 13684.3 49861.3 13707.8 49858.1 13731.4 49855.5 13755 49853.5 13778.7 49852.1 13802.4 49851.2 13826.1 49850.9 M 12852.4 52802.2 16357.6 52802.2 M 12852.4 52802.2 12852.4 54360.1 M 12852.4 55968.1 16357.6 55968.1 M 16357.6 56941.7 16357.6 54994.4 M 16357.6 60159.1 12852.4 58990.7 M 12852.4 61327.5 16357.6 60159.1 M 13728.7 61035.4 13728.7 59282.8 M 12462.9 61951.9 16747.1 63509.7 M 12852.4 65108.7 12852.4 65887.6 M 12852.4 65108.7 12852.6 65089.9 12853.3 65071.1 12854.4 65052.3 12856 65033.5 12858.1 65014.8 12860.6 64996.2 12863.5 64977.6 12866.9 64959.1 12870.8 64940.6 12875 64922.3 12879.8 64904.1 12884.9 64886 12890.5 64868 12896.6 64850.2 12903 64832.5 12909.9 64815 12917.2 64797.6 12924.9 64780.5 12933.1 64763.5 12941.6 64746.7 12950.6 64730.2 12959.9 64713.8 12969.6 64697.7 12979.8 64681.9 12990.3 64666.2 13001.2 64650.9 13012.4 64635.8 13024 64621 13036 64606.4 13048.3 64592.2 13060.9 64578.3 13073.9 64564.6 13087.2 64551.3 13100.9 64538.3 13114.8 64525.7 13129 64513.4 13143.6 64501.4 13158.4 64489.8 13173.5 64478.6 13188.8 64467.7 13204.5 64457.2 13220.3 64447 13236.4 64437.3 13252.8 64428 13269.3 64419 13286.1 64410.5 13303.1 64402.3 13320.2 64394.6 13337.6 64387.3 13355.1 64380.4 13372.8 64374 13390.6 64367.9 13408.6 64362.3 13426.7 64357.2 13444.9 64352.4 13463.2 64348.2 13481.7 64344.3 13500.2 64340.9 13518.8 64338 13537.4 64335.5 13556.1 64333.4 13574.9 64331.8 13593.7 64330.7 13612.5 64330 13631.3 64329.8 M 13631.3 64329.7 15578.7 64329.7 M 15578.7 64329.8 15597.8 64330 15616.9 64330.7 15636 64331.9 15655 64333.6 15674 64335.7 15693 64338.2 15711.9 64341.3 15730.7 64344.8 15749.4 64348.7 15768 64353.1 15786.4 64358 15804.8 64363.3 15823 64369.1 15841.1 64375.3 15859 64382 15876.8 64389.1 15894.3 64396.6 15911.7 64404.6 15928.9 64413 15945.9 64421.8 15962.6 64431 15979.1 64440.6 15995.4 64450.6 16011.4 64461.1 16027.2 64471.9 16042.7 64483.1 16057.9 64494.7 16072.8 64506.6 16087.5 64518.9 16101.8 64531.6 16115.8 64544.6 16129.5 64557.9 16142.8 64571.6 16155.8 64585.6 16168.5 64599.9 16180.8 64614.6 16192.7 64629.5 16204.3 64644.7 16215.5 64660.2 16226.3 64676 16236.8 64692 16246.8 64708.3 16256.4 64724.8 16265.6 64741.5 16274.4 64758.5 16282.8 64775.7 16290.8 64793.1 16298.3 64810.6 16305.4 64828.4 16312.1 64846.3 16318.3 64864.4 16324.1 64882.6 16329.4 64901 16334.3 64919.4 16338.7 64938 16342.6 64956.7 16346.1 64975.5 16349.2 64994.4 16351.7 65013.4 16353.8 65032.4 16355.5 65051.4 16356.7 65070.5 16357.4 65089.6 16357.6 65108.7 16357.6 65887.6" fill="none" stroke-width="304.8"/><path d="M 2540 85090 44450 85090 45720 83820 45720 2540 44450 1270 2540 1270 1270 2540 1270 83820 2540 85090" fill="none" stroke-width="508"/></g></svg>