<svg version="1.1" xmlns="http://www.w3.org/2000/svg" xmlns:xlink="http://www.w3.org/1999/xlink" stroke-linecap="round" stroke-linejoin="round" stroke-width="0" fill-rule="evenodd" width="92.55mm" height="44.475mm" viewBox="49840 4585 92550 44475" id="pjzOjS_GC-PBjLCUF3p4"><defs><rect x="-650" y="-750" width="1300" height="1500" id="pjzOjS_GC-PBjLCUF3p4_pad-10"/><rect x="-475" y="-625" width="950" height="1250" id="pjzOjS_GC-PBjLCUF3p4_pad-11"/><rect x="-1600" y="-625" width="3200" height="1250" id="pjzOjS_GC-PBjLCUF3p4_pad-12"/><rect x="-500" y="-1425" width="1000" height="2850" id="pjzOjS_GC-PBjLCUF3p4_pad-13"/><rect x="-2775" y="-2975" width="5550" height="5950" id="pjzOjS_GC-PBjLCUF3p4_pad-14"/><rect x="-775" y="-350" width="1550" height="700" id="pjzOjS_GC-PBjLCUF3p4_pad-15"/><rect x="-1000" y="-1000" width="2000" height="2000" id="pjzOjS_GC-PBjLCUF3p4_pad-16"/><rect x="-600" y="-600" width="1200" height="1200" id="pjzOjS_GC-PBjLCUF3p4_pad-17"/><rect x="-650" y="-800" width="1300" height="1600" id="pjzOjS_GC-PBjLCUF3p4_pad-18"/></defs><g transform="translate(0,53645) scale(1,-1)" fill="currentColor" stroke="currentColor"><use xlink:href="#pjzOjS_GC-PBjLCUF3p4_pad-10" x="111440" y="20320"/><use xlink:href="#pjzOjS_GC-PBjLCUF3p4_pad-10" x="109540" y="20320"/><use xlink:href="#pjzOjS_GC-PBjLCUF3p4_pad-10" x="114620" y="20320"/><use xlink:href="#pjzOjS_GC-PBjLCUF3p4_pad-10" x="116520" y="20320"/><use xlink:href="#pjzOjS_GC-PBjLCUF3p4_pad-10" x="98613" y="20320"/><use xlink:href="#pjzOjS_GC-PBjLCUF3p4_pad-10" x="96713" y="20320"/><use xlink:href="#pjzOjS_GC-PBjLCUF3p4_pad-10" x="101793" y="20320"/><use xlink:href="#pjzOjS_GC-PBjLCUF3p4_pad-10" x="103693" y="20320"/><use xlink:href="#pjzOjS_GC-PBjLCUF3p4_pad-11" x="103900" y="12290"/><use xlink:href="#pjzOjS_GC-PBjLCUF3p4_pad-11" x="101600" y="12290"/><use xlink:href="#pjzOjS_GC-PBjLCUF3p4_pad-11" x="99300" y="12290"/><use xlink:href="#pjzOjS_GC-PBjLCUF3p4_pad-12" x="101600" y="5490"/><use xlink:href="#pjzOjS_GC-PBjLCUF3p4_pad-13" x="116590" y="14310"/><use xlink:href="#pjzOjS_GC-PBjLCUF3p4_pad-13" x="114300" y="14310"/><use xlink:href="#pjzOjS_GC-PBjLCUF3p4_pad-13" x="112010" y="14310"/><use xlink:href="#pjzOjS_GC-PBjLCUF3p4_pad-14" x="114300" y="7560"/><use xlink:href="#pjzOjS_GC-PBjLCUF3p4_pad-15" x="50615" y="46990"/><use xlink:href="#pjzOjS_GC-PBjLCUF3p4_pad-15" x="50615" y="45720"/><use xlink:href="#pjzOjS_GC-PBjLCUF3p4_pad-15" x="50615" y="44450"/><use xlink:href="#pjzOjS_GC-PBjLCUF3p4_pad-15" x="50615" y="43180"/><use xlink:href="#pjzOjS_GC-PBjLCUF3p4_pad-15" x="50615" y="41910"/><use xlink:href="#pjzOjS_GC-PBjLCUF3p4_pad-15" x="50615" y="40640"/><use xlink:href="#pjzOjS_GC-PBjLCUF3p4_pad-15" x="50615" y="39370"/><use xlink:href="#pjzOjS_GC-PBjLCUF3p4_pad-15" x="56065" y="39370"/><use xlink:href="#pjzOjS_GC-PBjLCUF3p4_pad-15" x="56065" y="40640"/><use xlink:href="#pjzOjS_GC-PBjLCUF3p4_pad-15" x="56065" y="41910"/><use xlink:href="#pjzOjS_GC-PBjLCUF3p4_pad-15" x="56065" y="43180"/><use xlink:href="#pjzOjS_GC-PBjLCUF3p4_pad-15" x="56065" y="44450"/><use xlink:href="#pjzOjS_GC-PBjLCUF3p4_pad-15" x="56065" y="45720"/><use xlink:href="#pjzOjS_GC-PBjLCUF3p4_pad-15" x="56065" y="46990"/><use xlink:href="#pjzOjS_GC-PBjLCUF3p4_pad-16" x="130390" y="6069"/><use xlink:href="#pjzOjS_GC-PBjLCUF3p4_pad-16" x="130390" y="12219"/><use xlink:href="#pjzOjS_GC-PBjLCUF3p4_pad-16" x="141390" y="6069"/><use xlink:href="#pjzOjS_GC-PBjLCUF3p4_pad-16" x="141390" y="12219"/><use xlink:href="#pjzOjS_GC-PBjLCUF3p4_pad-17" x="139480" y="30480"/><use xlink:href="#pjzOjS_GC-PBjLCUF3p4_pad-17" x="137380" y="30480"/><use xlink:href="#pjzOjS_GC-PBjLCUF3p4_pad-17" x="139480" y="26670"/><use xlink:href="#pjzOjS_GC-PBjLCUF3p4_pad-17" x="137380" y="26670"/><use xlink:href="#pjzOjS_GC-PBjLCUF3p4_pad-18" x="131130" y="30480"/><use xlink:href="#pjzOjS_GC-PBjLCUF3p4_pad-18" x="133030" y="30480"/><use xlink:href="#pjzOjS_GC-PBjLCUF3p4_pad-18" x="131130" y="26670"/><use xlink:href="#pjzOjS_GC-PBjLCUF3p4_pad-18" x="133030" y="26670"/><use xlink:href="#pjzOjS_GC-PBjLCUF3p4_pad-18" x="65720" y="48260"/><use xlink:href="#pjzOjS_GC-PBjLCUF3p4_pad-18" x="63820" y="48260"/><use xlink:href="#pjzOjS_GC-PBjLCUF3p4_pad-18" x="65720" y="38100"/><use xlink:href="#pjzOjS_GC-PBjLCUF3p4_pad-18" x="63820" y="38100"/><use xlink:href="#pjzOjS_GC-PBjLCUF3p4_pad-18" x="65720" y="43180"/><use xlink:href="#pjzOjS_GC-PBjLCUF3p4_pad-18" x="63820" y="43180"/><use xlink:href="#pjzOjS_GC-PBjLCUF3p4_pad-18" x="131130" y="22860"/><use xlink:href="#pjzOjS_GC-PBjLCUF3p4_pad-18" x="133030" y="22860"/><use xlink:href="#pjzOjS_GC-PBjLCUF3p4_pad-17" x="139480" y="22860"/><use xlink:href="#pjzOjS_GC-PBjLCUF3p4_pad-17" x="137380" y="22860"/></g></svg>