<svg version="1.1" xmlns="http://www.w3.org/2000/svg" xmlns:xlink="http://www.w3.org/1999/xlink" stroke-linecap="round" stroke-linejoin="round" stroke-width="0" fill-rule="evenodd" width="137.2932mm" height="83.4832mm" viewBox="5198.4 1438.4 137293.2 83483.2" id="NTD4DAbMajG4grXAhtmC"><defs><circle cx="0" cy="0" r="1101.6" id="NTD4DAbMajG4grXAhtmC_pad-10"/><rect x="-751.6" y="-851.6" width="1503.2" height="1703.2" id="NTD4DAbMajG4grXAhtmC_pad-11"/><rect x="-576.6" y="-726.6" width="1153.2" height="1453.2" id="NTD4DAbMajG4grXAhtmC_pad-12"/><rect x="-1701.6" y="-726.6" width="3403.2" height="1453.2" id="NTD4DAbMajG4grXAhtmC_pad-13"/><rect x="-601.6" y="-1526.6" width="1203.2" height="3053.2" id="NTD4DAbMajG4grXAhtmC_pad-14"/><rect x="-2876.6" y="-3076.6" width="5753.2" height="6153.2" id="NTD4DAbMajG4grXAhtmC_pad-15"/><rect x="-876.6" y="-451.6" width="1753.2" height="903.2" id="NTD4DAbMajG4grXAhtmC_pad-16"/><circle cx="0" cy="0" r="1151.6" id="NTD4DAbMajG4grXAhtmC_pad-17"/><rect x="-1101.6" y="-1101.6" width="2203.2" height="2203.2" id="NTD4DAbMajG4grXAhtmC_pad-18"/><circle cx="0" cy="0" r="951.6" id="NTD4DAbMajG4grXAhtmC_pad-19"/><circle cx="0" cy="0" r="1051.6" id="NTD4DAbMajG4grXAhtmC_pad-20"/><rect x="-701.6" y="-701.6" width="1403.2" height="1403.2" id="NTD4DAbMajG4grXAhtmC_pad-22"/><rect x="-1136.6" y="-1136.6" width="2273.2" height="2273.2" id="NTD4DAbMajG4grXAhtmC_pad-23"/><circle cx="0" cy="0" r="1136.6" id="NTD4DAbMajG4grXAhtmC_pad-24"/><rect x="-751.6" y="-901.6" width="1503.2" height="1803.2" id="NTD4DAbMajG4grXAhtmC_pad-25"/><circle cx="0" cy="0" r="479.8" id="NTD4DAbMajG4grXAhtmC_pad-26"/></defs><g transform="translate(0,86360) scale(1,-1)" fill="currentColor" stroke="currentColor"><use xlink:href="#NTD4DAbMajG4grXAhtmC_pad-10" x="12700" y="83820"/><use xlink:href="#NTD4DAbMajG4grXAhtmC_pad-10" x="12700" y="2540"/><use xlink:href="#NTD4DAbMajG4grXAhtmC_pad-10" x="125730" y="3810"/><use xlink:href="#NTD4DAbMajG4grXAhtmC_pad-10" x="125730" y="81280"/><use xlink:href="#NTD4DAbMajG4grXAhtmC_pad-11" x="111440" y="20320"/><use xlink:href="#NTD4DAbMajG4grXAhtmC_pad-11" x="109540" y="20320"/><use xlink:href="#NTD4DAbMajG4grXAhtmC_pad-11" x="114620" y="20320"/><use xlink:href="#NTD4DAbMajG4grXAhtmC_pad-11" x="116520" y="20320"/><use xlink:href="#NTD4DAbMajG4grXAhtmC_pad-11" x="98613" y="20320"/><use xlink:href="#NTD4DAbMajG4grXAhtmC_pad-11" x="96713" y="20320"/><use xlink:href="#NTD4DAbMajG4grXAhtmC_pad-11" x="101793" y="20320"/><use xlink:href="#NTD4DAbMajG4grXAhtmC_pad-11" x="103693" y="20320"/><use xlink:href="#NTD4DAbMajG4grXAhtmC_pad-12" x="103900" y="12290"/><use xlink:href="#NTD4DAbMajG4grXAhtmC_pad-12" x="101600" y="12290"/><use xlink:href="#NTD4DAbMajG4grXAhtmC_pad-12" x="99300" y="12290"/><use xlink:href="#NTD4DAbMajG4grXAhtmC_pad-13" x="101600" y="5490"/><use xlink:href="#NTD4DAbMajG4grXAhtmC_pad-14" x="116590" y="14310"/><use xlink:href="#NTD4DAbMajG4grXAhtmC_pad-14" x="114300" y="14310"/><use xlink:href="#NTD4DAbMajG4grXAhtmC_pad-14" x="112010" y="14310"/><use xlink:href="#NTD4DAbMajG4grXAhtmC_pad-15" x="114300" y="7560"/><use xlink:href="#NTD4DAbMajG4grXAhtmC_pad-16" x="50615" y="46990"/><use xlink:href="#NTD4DAbMajG4grXAhtmC_pad-16" x="50615" y="45720"/><use xlink:href="#NTD4DAbMajG4grXAhtmC_pad-16" x="50615" y="44450"/><use xlink:href="#NTD4DAbMajG4grXAhtmC_pad-16" x="50615" y="43180"/><use xlink:href="#NTD4DAbMajG4grXAhtmC_pad-16" x="50615" y="41910"/><use xlink:href="#NTD4DAbMajG4grXAhtmC_pad-16" x="50615" y="40640"/><use xlink:href="#NTD4DAbMajG4grXAhtmC_pad-16" x="50615" y="39370"/><use xlink:href="#NTD4DAbMajG4grXAhtmC_pad-16" x="56065" y="39370"/><use xlink:href="#NTD4DAbMajG4grXAhtmC_pad-16" x="56065" y="40640"/><use xlink:href="#NTD4DAbMajG4grXAhtmC_pad-16" x="56065" y="41910"/><use xlink:href="#NTD4DAbMajG4grXAhtmC_pad-16" x="56065" y="43180"/><use xlink:href="#NTD4DAbMajG4grXAhtmC_pad-16" x="56065" y="44450"/><use xlink:href="#NTD4DAbMajG4grXAhtmC_pad-16" x="56065" y="45720"/><use xlink:href="#NTD4DAbMajG4grXAhtmC_pad-16" x="56065" y="46990"/><use xlink:href="#NTD4DAbMajG4grXAhtmC_pad-17" x="6350" y="33020"/><use xlink:href="#NTD4DAbMajG4grXAhtmC_pad-17" x="6350" y="38020"/><use xlink:href="#NTD4DAbMajG4grXAhtmC_pad-17" x="6350" y="43020"/><use xlink:href="#NTD4DAbMajG4grXAhtmC_pad-17" x="6350" y="48020"/><use xlink:href="#NTD4DAbMajG4grXAhtmC_pad-17" x="6350" y="53020"/><use xlink:href="#NTD4DAbMajG4grXAhtmC_pad-17" x="6350" y="5080"/><use xlink:href="#NTD4DAbMajG4grXAhtmC_pad-17" x="6350" y="10080"/><use xlink:href="#NTD4DAbMajG4grXAhtmC_pad-17" x="6350" y="15080"/><use xlink:href="#NTD4DAbMajG4grXAhtmC_pad-17" x="6350" y="20080"/><use xlink:href="#NTD4DAbMajG4grXAhtmC_pad-17" x="6350" y="25080"/><use xlink:href="#NTD4DAbMajG4grXAhtmC_pad-17" x="6350" y="60960"/><use xlink:href="#NTD4DAbMajG4grXAhtmC_pad-17" x="6350" y="65960"/><use xlink:href="#NTD4DAbMajG4grXAhtmC_pad-17" x="6350" y="70960"/><use xlink:href="#NTD4DAbMajG4grXAhtmC_pad-17" x="6350" y="75960"/><use xlink:href="#NTD4DAbMajG4grXAhtmC_pad-17" x="6350" y="80960"/><use xlink:href="#NTD4DAbMajG4grXAhtmC_pad-18" x="130390" y="6069"/><use xlink:href="#NTD4DAbMajG4grXAhtmC_pad-18" x="130390" y="12219"/><use xlink:href="#NTD4DAbMajG4grXAhtmC_pad-18" x="141390" y="6069"/><use xlink:href="#NTD4DAbMajG4grXAhtmC_pad-18" x="141390" y="12219"/><use xlink:href="#NTD4DAbMajG4grXAhtmC_pad-19" x="135890" y="6069"/><use xlink:href="#NTD4DAbMajG4grXAhtmC_pad-20" x="135890" y="10569"/><path d="M 72390 80518 72390 82042 M 74930 82042 74930 80518 M 77470 80518 77470 82042 M 80010 82042 80010 80518 M 114300 80518 114300 82042 M 116840 82042 116840 80518 M 119380 80518 119380 82042 M 121920 82042 121920 80518 M 53340 5842 53340 4318 M 55880 4318 55880 5842 M 58420 5842 58420 4318 M 67310 4318 67310 5842 M 69850 5842 69850 4318 M 72390 4318 72390 5842 M 81280 5842 81280 4318 M 83820 4318 83820 5842 M 86360 5842 86360 4318 M 74930 30988 74930 32512 M 77470 32512 77470 30988 M 80010 30988 80010 32512 M 82550 32512 82550 30988 M 85090 30988 85090 32512 M 87630 32512 87630 30988 M 90170 30988 90170 32512 M 92710 32512 92710 30988 M 95250 30988 95250 32512 M 97790 32512 97790 30988 M 100330 30988 100330 32512 M 102870 32512 102870 30988 M 105410 30988 105410 32512 M 107950 32512 107950 30988 M 110490 30988 110490 32512 M 113030 32512 113030 30988 M 115570 30988 115570 32512 M 118110 32512 118110 30988 M 120650 30988 120650 32512 M 74930 56388 74930 57912 M 77470 57912 77470 56388 M 80010 56388 80010 57912 M 82550 57912 82550 56388 M 85090 56388 85090 57912 M 87630 57912 87630 56388 M 90170 56388 90170 57912 M 92710 57912 92710 56388 M 95250 56388 95250 57912 M 97790 57912 97790 56388 M 100330 56388 100330 57912 M 102870 57912 102870 56388 M 105410 56388 105410 57912 M 107950 57912 107950 56388 M 110490 56388 110490 57912 M 113030 57912 113030 56388 M 115570 56388 115570 57912 M 118110 57912 118110 56388 M 120650 56388 120650 57912 M 137668 39370 139192 39370 M 139192 41910 137668 41910 M 137668 44450 139192 44450 M 139192 46990 137668 46990 M 137668 49530 139192 49530 M 139192 52070 137668 52070 M 137668 54610 139192 54610 M 139192 57150 137668 57150" fill="none" stroke-width="1727.2"/><use xlink:href="#NTD4DAbMajG4grXAhtmC_pad-17" x="34700" y="49060"/><use xlink:href="#NTD4DAbMajG4grXAhtmC_pad-17" x="22500" y="49060"/><use xlink:href="#NTD4DAbMajG4grXAhtmC_pad-17" x="20500" y="43060"/><use xlink:href="#NTD4DAbMajG4grXAhtmC_pad-17" x="22500" y="37060"/><use xlink:href="#NTD4DAbMajG4grXAhtmC_pad-17" x="34700" y="37060"/><use xlink:href="#NTD4DAbMajG4grXAhtmC_pad-17" x="34700" y="21120"/><use xlink:href="#NTD4DAbMajG4grXAhtmC_pad-17" x="22500" y="21120"/><use xlink:href="#NTD4DAbMajG4grXAhtmC_pad-17" x="20500" y="15120"/><use xlink:href="#NTD4DAbMajG4grXAhtmC_pad-17" x="22500" y="9120"/><use xlink:href="#NTD4DAbMajG4grXAhtmC_pad-17" x="34700" y="9120"/><use xlink:href="#NTD4DAbMajG4grXAhtmC_pad-17" x="34700" y="77000"/><use xlink:href="#NTD4DAbMajG4grXAhtmC_pad-17" x="22500" y="77000"/><use xlink:href="#NTD4DAbMajG4grXAhtmC_pad-17" x="20500" y="71000"/><use xlink:href="#NTD4DAbMajG4grXAhtmC_pad-17" x="22500" y="65000"/><use xlink:href="#NTD4DAbMajG4grXAhtmC_pad-17" x="34700" y="65000"/><use xlink:href="#NTD4DAbMajG4grXAhtmC_pad-22" x="139480" y="30480"/><use xlink:href="#NTD4DAbMajG4grXAhtmC_pad-22" x="137380" y="30480"/><use xlink:href="#NTD4DAbMajG4grXAhtmC_pad-22" x="139480" y="26670"/><use xlink:href="#NTD4DAbMajG4grXAhtmC_pad-22" x="137380" y="26670"/><use xlink:href="#NTD4DAbMajG4grXAhtmC_pad-23" x="107950" y="71120"/><use xlink:href="#NTD4DAbMajG4grXAhtmC_pad-24" x="105410" y="71120"/><use xlink:href="#NTD4DAbMajG4grXAhtmC_pad-24" x="102870" y="71120"/><use xlink:href="#NTD4DAbMajG4grXAhtmC_pad-23" x="121920" y="71120"/><use xlink:href="#NTD4DAbMajG4grXAhtmC_pad-24" x="119380" y="71120"/><use xlink:href="#NTD4DAbMajG4grXAhtmC_pad-24" x="116840" y="71120"/><use xlink:href="#NTD4DAbMajG4grXAhtmC_pad-23" x="135890" y="71120"/><use xlink:href="#NTD4DAbMajG4grXAhtmC_pad-24" x="133350" y="71120"/><use xlink:href="#NTD4DAbMajG4grXAhtmC_pad-24" x="130810" y="71120"/><use xlink:href="#NTD4DAbMajG4grXAhtmC_pad-23" x="66040" y="71120"/><use xlink:href="#NTD4DAbMajG4grXAhtmC_pad-24" x="63500" y="71120"/><use xlink:href="#NTD4DAbMajG4grXAhtmC_pad-24" x="60960" y="71120"/><use xlink:href="#NTD4DAbMajG4grXAhtmC_pad-23" x="80010" y="71120"/><use xlink:href="#NTD4DAbMajG4grXAhtmC_pad-24" x="77470" y="71120"/><use xlink:href="#NTD4DAbMajG4grXAhtmC_pad-24" x="74930" y="71120"/><use xlink:href="#NTD4DAbMajG4grXAhtmC_pad-23" x="93980" y="71120"/><use xlink:href="#NTD4DAbMajG4grXAhtmC_pad-24" x="91440" y="71120"/><use xlink:href="#NTD4DAbMajG4grXAhtmC_pad-24" x="88900" y="71120"/><use xlink:href="#NTD4DAbMajG4grXAhtmC_pad-23" x="50800" y="15240"/><use xlink:href="#NTD4DAbMajG4grXAhtmC_pad-24" x="53340" y="15240"/><use xlink:href="#NTD4DAbMajG4grXAhtmC_pad-24" x="55880" y="15240"/><use xlink:href="#NTD4DAbMajG4grXAhtmC_pad-23" x="64770" y="15240"/><use xlink:href="#NTD4DAbMajG4grXAhtmC_pad-24" x="67310" y="15240"/><use xlink:href="#NTD4DAbMajG4grXAhtmC_pad-24" x="69850" y="15240"/><use xlink:href="#NTD4DAbMajG4grXAhtmC_pad-23" x="78740" y="15240"/><use xlink:href="#NTD4DAbMajG4grXAhtmC_pad-24" x="81280" y="15240"/><use xlink:href="#NTD4DAbMajG4grXAhtmC_pad-24" x="83820" y="15240"/><use xlink:href="#NTD4DAbMajG4grXAhtmC_pad-25" x="131130" y="30480"/><use xlink:href="#NTD4DAbMajG4grXAhtmC_pad-25" x="133030" y="30480"/><use xlink:href="#NTD4DAbMajG4grXAhtmC_pad-25" x="131130" y="26670"/><use xlink:href="#NTD4DAbMajG4grXAhtmC_pad-25" x="133030" y="26670"/><use xlink:href="#NTD4DAbMajG4grXAhtmC_pad-25" x="65720" y="48260"/><use xlink:href="#NTD4DAbMajG4grXAhtmC_pad-25" x="63820" y="48260"/><use xlink:href="#NTD4DAbMajG4grXAhtmC_pad-25" x="65720" y="38100"/><use xlink:href="#NTD4DAbMajG4grXAhtmC_pad-25" x="63820" y="38100"/><use xlink:href="#NTD4DAbMajG4grXAhtmC_pad-25" x="65720" y="43180"/><use xlink:href="#NTD4DAbMajG4grXAhtmC_pad-25" x="63820" y="43180"/><path d="M 88900 80518 88900 82042 M 91440 82042 91440 80518 M 93980 80518 93980 82042 M 102870 82042 102870 80518 M 105410 80518 105410 82042 M 107950 82042 107950 80518 M 63500 80518 63500 82042 M 60960 82042 60960 80518 M 58420 80518 58420 82042 M 55880 82042 55880 80518 M 53340 80518 53340 82042 M 129540 82042 129540 80518 M 132080 80518 132080 82042 M 134620 82042 134620 80518 M 137160 80518 137160 82042" fill="none" stroke-width="1727.2"/><use xlink:href="#NTD4DAbMajG4grXAhtmC_pad-25" x="131130" y="22860"/><use xlink:href="#NTD4DAbMajG4grXAhtmC_pad-25" x="133030" y="22860"/><use xlink:href="#NTD4DAbMajG4grXAhtmC_pad-22" x="139480" y="22860"/><use xlink:href="#NTD4DAbMajG4grXAhtmC_pad-22" x="137380" y="22860"/><use xlink:href="#NTD4DAbMajG4grXAhtmC_pad-26" x="58420" y="46990"/><use xlink:href="#NTD4DAbMajG4grXAhtmC_pad-26" x="99060" y="22860"/><use xlink:href="#NTD4DAbMajG4grXAhtmC_pad-26" x="130810" y="34290"/><use xlink:href="#NTD4DAbMajG4grXAhtmC_pad-26" x="141351" y="9144"/><use xlink:href="#NTD4DAbMajG4grXAhtmC_pad-26" x="141351" y="15621"/><use xlink:href="#NTD4DAbMajG4grXAhtmC_pad-26" x="68580" y="38100"/><use xlink:href="#NTD4DAbMajG4grXAhtmC_pad-26" x="68580" y="43180"/><use xlink:href="#NTD4DAbMajG4grXAhtmC_pad-26" x="68580" y="48260"/><use xlink:href="#NTD4DAbMajG4grXAhtmC_pad-26" x="48260" y="46990"/><use xlink:href="#NTD4DAbMajG4grXAhtmC_pad-26" x="48260" y="39370"/><use xlink:href="#NTD4DAbMajG4grXAhtmC_pad-26" x="48260" y="43180"/><use xlink:href="#NTD4DAbMajG4grXAhtmC_pad-26" x="58420" y="42799"/><use xlink:href="#NTD4DAbMajG4grXAhtmC_pad-26" x="95250" y="20320"/><use xlink:href="#NTD4DAbMajG4grXAhtmC_pad-26" x="107950" y="20320"/><use xlink:href="#NTD4DAbMajG4grXAhtmC_pad-26" x="118110" y="20320"/><use xlink:href="#NTD4DAbMajG4grXAhtmC_pad-26" x="104074" y="15240"/><use xlink:href="#NTD4DAbMajG4grXAhtmC_pad-26" x="116520" y="17780"/><use xlink:href="#NTD4DAbMajG4grXAhtmC_pad-26" x="139700" y="21590"/><use xlink:href="#NTD4DAbMajG4grXAhtmC_pad-26" x="139700" y="31750"/><use xlink:href="#NTD4DAbMajG4grXAhtmC_pad-26" x="105410" y="20320"/><use xlink:href="#NTD4DAbMajG4grXAhtmC_pad-26" x="73660" y="50800"/><use xlink:href="#NTD4DAbMajG4grXAhtmC_pad-26" x="78740" y="46990"/><use xlink:href="#NTD4DAbMajG4grXAhtmC_pad-26" x="81280" y="46990"/><use xlink:href="#NTD4DAbMajG4grXAhtmC_pad-26" x="104140" y="67310"/><use xlink:href="#NTD4DAbMajG4grXAhtmC_pad-26" x="70485" y="72517"/><use xlink:href="#NTD4DAbMajG4grXAhtmC_pad-26" x="67310" y="53467"/><use xlink:href="#NTD4DAbMajG4grXAhtmC_pad-26" x="97790" y="41910"/><use xlink:href="#NTD4DAbMajG4grXAhtmC_pad-26" x="115570" y="44450"/><use xlink:href="#NTD4DAbMajG4grXAhtmC_pad-26" x="121920" y="43180"/><use xlink:href="#NTD4DAbMajG4grXAhtmC_pad-26" x="119380" y="44450"/><use xlink:href="#NTD4DAbMajG4grXAhtmC_pad-26" x="67310" y="62230"/><use xlink:href="#NTD4DAbMajG4grXAhtmC_pad-26" x="128270" y="29210"/><use xlink:href="#NTD4DAbMajG4grXAhtmC_pad-26" x="105410" y="8890"/><use xlink:href="#NTD4DAbMajG4grXAhtmC_pad-26" x="114300" y="82169"/></g></svg>