M48
;GenerationSoftware,Autodesk,EAGLE,9.3.0*%
;CreationDate,2021-05-06T22:55:39Z*%
FMAT,2
ICI,OFF
METRIC,TZ,000.000
T7C0.350
T6C1.016
T5C1.380
T4C1.400
T3C1.700
T2C1.900
T1C2.000
%
G90
M71
T1
X12700Y2540
X125730Y3810
X12700Y83820
X125730Y81280
T2
X135890Y10569
T3
X135890Y6069
T4
X22500Y9120
X20500Y15120
X22500Y21120
X34700Y21120
X34700Y77000
X34700Y65000
X22500Y65000
X34700Y37060
X20500Y71000
X22500Y77000
X20500Y43060
X22500Y49060
X6350Y43020
X22500Y37060
X34700Y9120
X6350Y33020
X6350Y38020
X34700Y49060
X6350Y48020
X6350Y53020
X6350Y5080
X6350Y10080
X6350Y15080
X6350Y20080
X6350Y25080
X6350Y60960
X6350Y65960
X6350Y70960
X6350Y75960
X6350Y80960
T5
X77470Y71120
X80010Y71120
X63500Y71120
X66040Y71120
X130810Y71120
X133350Y71120
X135890Y71120
X116840Y71120
X119380Y71120
X121920Y71120
X102870Y71120
X105410Y71120
X107950Y71120
X55880Y15240
X60960Y71120
X88900Y71120
X91440Y71120
X93980Y71120
X74930Y71120
X50800Y15240
X53340Y15240
X64770Y15240
X67310Y15240
X69850Y15240
X78740Y15240
X81280Y15240
X83820Y15240
T6
X53340Y5080
X55880Y5080
X58420Y5080
X67310Y5080
X69850Y5080
X72390Y5080
X81280Y5080
X83820Y5080
X86360Y5080
X74930Y31750
X77470Y31750
X80010Y31750
X82550Y31750
X85090Y31750
X87630Y31750
X90170Y31750
X92710Y31750
X95250Y31750
X97790Y31750
X100330Y31750
X102870Y31750
X105410Y31750
X107950Y31750
X110490Y31750
X113030Y31750
X115570Y31750
X118110Y31750
X120650Y31750
X74930Y57150
X77470Y57150
X80010Y57150
X82550Y57150
X85090Y57150
X87630Y57150
X90170Y57150
X92710Y57150
X95250Y57150
X97790Y57150
X100330Y57150
X102870Y57150
X105410Y57150
X107950Y57150
X110490Y57150
X113030Y57150
X115570Y57150
X118110Y57150
X120650Y57150
X138430Y39370
X138430Y41910
X138430Y44450
X138430Y46990
X138430Y49530
X138430Y52070
X138430Y54610
X138430Y57150
X72390Y81280
X74930Y81280
X77470Y81280
X80010Y81280
X114300Y81280
X116840Y81280
X119380Y81280
X121920Y81280
X88900Y81280
X91440Y81280
X93980Y81280
X102870Y81280
X105410Y81280
X107950Y81280
X63500Y81280
X60960Y81280
X58420Y81280
X55880Y81280
X53340Y81280
X129540Y81280
X132080Y81280
X134620Y81280
X137160Y81280
T7
X48260Y43180
X48260Y39370
X48260Y46990
X68580Y48260
X68580Y43180
X68580Y38100
X141351Y15621
X141351Y9144
X130810Y34290
X99060Y22860
X78740Y46990
X114300Y82169
X58420Y46990
X105410Y8890
X128270Y29210
X67310Y62230
X119380Y44450
X121920Y43180
X115570Y44450
X97790Y41910
X67310Y53467
X70485Y72517
X104140Y67310
X81280Y46990
X73660Y50800
X105410Y20320
X139700Y31750
X139700Y21590
X116520Y17780
X104074Y15240
X118110Y20320
X107950Y20320
X95250Y20320
X58420Y42799
M30