G04 EAGLE Gerber RS-274X export*
G75*
%MOMM*%
%FSLAX34Y34*%
%LPD*%
%INTop Copper*%
%IPPOS*%
%AMOC8*
5,1,8,0,0,1.08239X$1,22.5*%
G01*
%ADD10R,1.300000X1.500000*%
%ADD11R,0.950000X1.250000*%
%ADD12R,3.200000X1.250000*%
%ADD13R,1.000000X2.850000*%
%ADD14R,5.550000X5.950000*%
%ADD15R,1.550000X0.700000*%
%ADD16C,2.100000*%
%ADD17R,2.000000X2.000000*%
%ADD18C,1.524000*%
%ADD19R,1.200000X1.200000*%
%ADD20R,2.070000X2.070000*%
%ADD21C,2.070000*%
%ADD22R,1.300000X1.600000*%
%ADD23C,0.508000*%
%ADD24C,0.254000*%
%ADD25C,0.756400*%
%ADD26C,0.609600*%
%ADD27C,0.406400*%


D10*
X1114400Y203200D03*
X1095400Y203200D03*
X1146200Y203200D03*
X1165200Y203200D03*
X986130Y203200D03*
X967130Y203200D03*
X1017930Y203200D03*
X1036930Y203200D03*
D11*
X1039000Y122900D03*
X1016000Y122900D03*
X993000Y122900D03*
D12*
X1016000Y54900D03*
D13*
X1165900Y143100D03*
X1143000Y143100D03*
X1120100Y143100D03*
D14*
X1143000Y75600D03*
D15*
X506150Y469900D03*
X506150Y457200D03*
X506150Y444500D03*
X506150Y431800D03*
X506150Y419100D03*
X506150Y406400D03*
X506150Y393700D03*
X560650Y393700D03*
X560650Y406400D03*
X560650Y419100D03*
X560650Y431800D03*
X560650Y444500D03*
X560650Y457200D03*
X560650Y469900D03*
D16*
X63500Y330200D03*
X63500Y380200D03*
X63500Y430200D03*
X63500Y480200D03*
X63500Y530200D03*
X63500Y50800D03*
X63500Y100800D03*
X63500Y150800D03*
X63500Y200800D03*
X63500Y250800D03*
X63500Y609600D03*
X63500Y659600D03*
X63500Y709600D03*
X63500Y759600D03*
X63500Y809600D03*
D17*
X1303900Y60690D03*
X1303900Y122190D03*
X1413900Y60690D03*
X1413900Y122190D03*
D18*
X723900Y805180D02*
X723900Y820420D01*
X749300Y820420D02*
X749300Y805180D01*
X774700Y805180D02*
X774700Y820420D01*
X800100Y820420D02*
X800100Y805180D01*
X1143000Y805180D02*
X1143000Y820420D01*
X1168400Y820420D02*
X1168400Y805180D01*
X1193800Y805180D02*
X1193800Y820420D01*
X1219200Y820420D02*
X1219200Y805180D01*
X533400Y58420D02*
X533400Y43180D01*
X558800Y43180D02*
X558800Y58420D01*
X584200Y58420D02*
X584200Y43180D01*
X673100Y43180D02*
X673100Y58420D01*
X698500Y58420D02*
X698500Y43180D01*
X723900Y43180D02*
X723900Y58420D01*
X812800Y58420D02*
X812800Y43180D01*
X838200Y43180D02*
X838200Y58420D01*
X863600Y58420D02*
X863600Y43180D01*
X749300Y309880D02*
X749300Y325120D01*
X774700Y325120D02*
X774700Y309880D01*
X800100Y309880D02*
X800100Y325120D01*
X825500Y325120D02*
X825500Y309880D01*
X850900Y309880D02*
X850900Y325120D01*
X876300Y325120D02*
X876300Y309880D01*
X901700Y309880D02*
X901700Y325120D01*
X927100Y325120D02*
X927100Y309880D01*
X952500Y309880D02*
X952500Y325120D01*
X977900Y325120D02*
X977900Y309880D01*
X1003300Y309880D02*
X1003300Y325120D01*
X1028700Y325120D02*
X1028700Y309880D01*
X1054100Y309880D02*
X1054100Y325120D01*
X1079500Y325120D02*
X1079500Y309880D01*
X1104900Y309880D02*
X1104900Y325120D01*
X1130300Y325120D02*
X1130300Y309880D01*
X1155700Y309880D02*
X1155700Y325120D01*
X1181100Y325120D02*
X1181100Y309880D01*
X1206500Y309880D02*
X1206500Y325120D01*
X749300Y563880D02*
X749300Y579120D01*
X774700Y579120D02*
X774700Y563880D01*
X800100Y563880D02*
X800100Y579120D01*
X825500Y579120D02*
X825500Y563880D01*
X850900Y563880D02*
X850900Y579120D01*
X876300Y579120D02*
X876300Y563880D01*
X901700Y563880D02*
X901700Y579120D01*
X927100Y579120D02*
X927100Y563880D01*
X952500Y563880D02*
X952500Y579120D01*
X977900Y579120D02*
X977900Y563880D01*
X1003300Y563880D02*
X1003300Y579120D01*
X1028700Y579120D02*
X1028700Y563880D01*
X1054100Y563880D02*
X1054100Y579120D01*
X1079500Y579120D02*
X1079500Y563880D01*
X1104900Y563880D02*
X1104900Y579120D01*
X1130300Y579120D02*
X1130300Y563880D01*
X1155700Y563880D02*
X1155700Y579120D01*
X1181100Y579120D02*
X1181100Y563880D01*
X1206500Y563880D02*
X1206500Y579120D01*
X1376680Y393700D02*
X1391920Y393700D01*
X1391920Y419100D02*
X1376680Y419100D01*
X1376680Y444500D02*
X1391920Y444500D01*
X1391920Y469900D02*
X1376680Y469900D01*
X1376680Y495300D02*
X1391920Y495300D01*
X1391920Y520700D02*
X1376680Y520700D01*
X1376680Y546100D02*
X1391920Y546100D01*
X1391920Y571500D02*
X1376680Y571500D01*
D16*
X347000Y490600D03*
X225000Y490600D03*
X205000Y430600D03*
X225000Y370600D03*
X347000Y370600D03*
X347000Y211200D03*
X225000Y211200D03*
X205000Y151200D03*
X225000Y91200D03*
X347000Y91200D03*
X347000Y770000D03*
X225000Y770000D03*
X205000Y710000D03*
X225000Y650000D03*
X347000Y650000D03*
D19*
X1394800Y304800D03*
X1373800Y304800D03*
X1394800Y266700D03*
X1373800Y266700D03*
D20*
X1079500Y711200D03*
D21*
X1054100Y711200D03*
X1028700Y711200D03*
D20*
X1219200Y711200D03*
D21*
X1193800Y711200D03*
X1168400Y711200D03*
D20*
X1358900Y711200D03*
D21*
X1333500Y711200D03*
X1308100Y711200D03*
D20*
X660400Y711200D03*
D21*
X635000Y711200D03*
X609600Y711200D03*
D20*
X800100Y711200D03*
D21*
X774700Y711200D03*
X749300Y711200D03*
D20*
X939800Y711200D03*
D21*
X914400Y711200D03*
X889000Y711200D03*
D20*
X508000Y152400D03*
D21*
X533400Y152400D03*
X558800Y152400D03*
D20*
X647700Y152400D03*
D21*
X673100Y152400D03*
X698500Y152400D03*
D20*
X787400Y152400D03*
D21*
X812800Y152400D03*
X838200Y152400D03*
D22*
X1311300Y304800D03*
X1330300Y304800D03*
X1311300Y266700D03*
X1330300Y266700D03*
X657200Y482600D03*
X638200Y482600D03*
X657200Y381000D03*
X638200Y381000D03*
X657200Y431800D03*
X638200Y431800D03*
D18*
X889000Y805180D02*
X889000Y820420D01*
X914400Y820420D02*
X914400Y805180D01*
X939800Y805180D02*
X939800Y820420D01*
X1028700Y820420D02*
X1028700Y805180D01*
X1054100Y805180D02*
X1054100Y820420D01*
X1079500Y820420D02*
X1079500Y805180D01*
X635000Y805180D02*
X635000Y820420D01*
X609600Y820420D02*
X609600Y805180D01*
X584200Y805180D02*
X584200Y820420D01*
X558800Y820420D02*
X558800Y805180D01*
X533400Y805180D02*
X533400Y820420D01*
X1295400Y820420D02*
X1295400Y805180D01*
X1320800Y805180D02*
X1320800Y820420D01*
X1346200Y820420D02*
X1346200Y805180D01*
X1371600Y805180D02*
X1371600Y820420D01*
D22*
X1311300Y228600D03*
X1330300Y228600D03*
D19*
X1394800Y228600D03*
X1373800Y228600D03*
D23*
X1146200Y203200D02*
X1143000Y200000D01*
X1143000Y143100D01*
X986130Y198350D02*
X986130Y203200D01*
X993000Y191480D02*
X993000Y122900D01*
X993000Y191480D02*
X986130Y198350D01*
X1143000Y143100D02*
X1143000Y88900D01*
X1143000Y75600D01*
X1146200Y203200D02*
X1146200Y225400D01*
X986130Y211430D02*
X986130Y203200D01*
X1143000Y228600D02*
X1146200Y225400D01*
X1143000Y228600D02*
X1003300Y228600D01*
X986130Y211430D01*
D24*
X584200Y469900D02*
X560650Y469900D01*
D25*
X584200Y469900D03*
X990600Y228600D03*
D24*
X1003300Y228600D01*
X1143000Y88900D02*
X1181100Y88900D01*
X1206500Y114300D01*
X1206500Y174600D02*
X1206500Y317500D01*
X1206500Y174600D02*
X1206500Y114300D01*
X1206500Y317500D02*
X1282700Y317500D01*
X1308100Y342900D01*
D25*
X1308100Y342900D03*
D24*
X1311300Y266700D02*
X1298600Y266700D01*
X1206500Y174600D01*
D23*
X1165200Y177800D02*
X1165200Y203200D01*
X1165200Y143800D02*
X1165900Y143100D01*
X1040740Y199390D02*
X1036930Y203200D01*
X1040740Y199390D02*
X1040740Y152400D01*
X1040740Y124640D01*
X1039000Y122900D01*
X1413900Y91050D02*
X1413900Y60690D01*
X1413900Y91050D02*
X1413510Y91440D01*
D25*
X1413510Y91440D03*
D23*
X1413900Y91050D02*
X1413900Y122190D01*
X1413900Y155820D01*
X1413510Y156210D01*
D25*
X1413510Y156210D03*
D24*
X685800Y381000D02*
X657200Y381000D01*
D25*
X685800Y381000D03*
D24*
X685800Y431800D02*
X657200Y431800D01*
D25*
X685800Y431800D03*
D24*
X685800Y482600D02*
X657200Y482600D01*
D25*
X685800Y482600D03*
D24*
X506150Y469900D02*
X482600Y469900D01*
D25*
X482600Y469900D03*
D24*
X482600Y393700D02*
X506150Y393700D01*
D25*
X482600Y393700D03*
D24*
X482600Y431800D02*
X506150Y431800D01*
D25*
X482600Y431800D03*
D24*
X560650Y419100D02*
X575310Y419100D01*
X584200Y427990D01*
D25*
X584200Y427990D03*
D24*
X952500Y203200D02*
X967130Y203200D01*
D25*
X952500Y203200D03*
D24*
X1054100Y203200D02*
X1079500Y203200D01*
X1095400Y203200D01*
D25*
X1079500Y203200D03*
D24*
X1165200Y203200D02*
X1181100Y203200D01*
D25*
X1181100Y203200D03*
X1040740Y152400D03*
X1165200Y177800D03*
D23*
X1165200Y143800D01*
D24*
X1394800Y218100D02*
X1394800Y228600D01*
X1394800Y218100D02*
X1397000Y215900D01*
D25*
X1397000Y215900D03*
D24*
X1394800Y228600D02*
X1394800Y266700D01*
X1394800Y304800D01*
X1394800Y315300D01*
X1397000Y317500D01*
D25*
X1397000Y317500D03*
D24*
X1054100Y203200D02*
X1036930Y203200D01*
D25*
X1054100Y203200D03*
D24*
X800100Y571500D02*
X800100Y596900D01*
X1362710Y622300D02*
X1383030Y642620D01*
X1383030Y760730D02*
X1346200Y797560D01*
X1346200Y812800D01*
X825500Y622300D02*
X800100Y596900D01*
X825500Y622300D02*
X1362710Y622300D01*
X1383030Y642620D02*
X1383030Y760730D01*
X889000Y609600D02*
X876300Y596900D01*
X889000Y609600D02*
X1366520Y609600D01*
X1398270Y768350D02*
X1371600Y795020D01*
X1371600Y812800D01*
X876300Y596900D02*
X876300Y571500D01*
X1366520Y609600D02*
X1398270Y641350D01*
X1398270Y768350D01*
X1358900Y711200D02*
X1358900Y645160D01*
X1348740Y635000D01*
X736600Y508000D02*
X723900Y520700D01*
D25*
X736600Y508000D03*
D24*
X774700Y635000D02*
X1348740Y635000D01*
X774700Y635000D02*
X723900Y584200D01*
X723900Y520700D01*
X1079500Y673100D02*
X1079500Y711200D01*
X1079500Y673100D02*
X1066800Y660400D01*
X749300Y660400D02*
X698500Y609600D01*
X698500Y505460D01*
X721360Y482600D01*
X774700Y482600D02*
X787400Y469900D01*
D25*
X787400Y469900D03*
D24*
X749300Y660400D02*
X1066800Y660400D01*
X774700Y482600D02*
X721360Y482600D01*
X1219200Y660400D02*
X1219200Y711200D01*
X1219200Y660400D02*
X1206500Y647700D01*
X762000Y647700D01*
X711200Y596900D01*
X711200Y511810D02*
X727710Y495300D01*
X787400Y495300D01*
X812800Y469900D01*
D25*
X812800Y469900D03*
D24*
X711200Y511810D02*
X711200Y596900D01*
D25*
X1041400Y673100D03*
D24*
X716280Y673100D02*
X704850Y684530D01*
X704850Y725170D01*
X716280Y673100D02*
X1041400Y673100D01*
D25*
X704850Y725170D03*
X673100Y534670D03*
D24*
X558800Y648970D02*
X558800Y812800D01*
X558800Y648970D02*
X673100Y534670D01*
X1054100Y317500D02*
X1054100Y292100D01*
X1016000Y254000D01*
X942340Y254000D02*
X891540Y203200D01*
X792480Y203200D01*
X787400Y198120D01*
X787400Y152400D01*
X942340Y254000D02*
X1016000Y254000D01*
X1028700Y292100D02*
X1028700Y317500D01*
X1028700Y292100D02*
X1003300Y266700D01*
X935990Y266700D02*
X885190Y215900D01*
X652780Y215900D02*
X647700Y210820D01*
X647700Y152400D01*
X935990Y266700D02*
X1003300Y266700D01*
X885190Y215900D02*
X652780Y215900D01*
X1003300Y292100D02*
X1003300Y317500D01*
X1003300Y292100D02*
X990600Y279400D01*
X927100Y279400D01*
X876300Y228600D01*
X515620Y228600D01*
X508000Y220980D01*
X508000Y152400D01*
X624230Y431800D02*
X638200Y431800D01*
X624230Y431800D02*
X619150Y426720D01*
X619150Y404520D01*
X593090Y378460D01*
X544830Y378460D01*
X533400Y389890D01*
X533400Y453390D01*
X529590Y457200D01*
X506150Y457200D01*
X638200Y431800D02*
X638200Y415900D01*
X647700Y406400D01*
X1092200Y406400D02*
X1104900Y393700D01*
X1104900Y317500D01*
X1092200Y406400D02*
X647700Y406400D01*
X638200Y381000D02*
X625500Y381000D01*
X615086Y370586D01*
X540607Y370586D01*
X525584Y414867D02*
X521351Y419100D01*
X506150Y419100D01*
X525584Y385609D02*
X540607Y370586D01*
X525584Y385609D02*
X525584Y414867D01*
X638200Y381000D02*
X638200Y365100D01*
X647700Y355600D01*
X939800Y355600D01*
X952500Y342900D01*
X952500Y317500D01*
X584200Y406400D02*
X560650Y406400D01*
X596900Y419100D02*
X596900Y469900D01*
X609600Y482600D01*
X638200Y482600D01*
X596900Y419100D02*
X584200Y406400D01*
X638200Y466700D02*
X638200Y482600D01*
X638200Y466700D02*
X647700Y457200D01*
X977900Y444500D02*
X977900Y419100D01*
X977900Y444500D02*
X965200Y457200D01*
D25*
X977900Y419100D03*
D24*
X965200Y457200D02*
X647700Y457200D01*
X1206500Y393700D02*
X1384300Y393700D01*
X1206500Y393700D02*
X1155700Y444500D01*
D25*
X1155700Y444500D03*
D24*
X1231900Y419100D02*
X1384300Y419100D01*
D25*
X1219200Y431800D03*
D24*
X1231900Y419100D01*
D25*
X1193800Y444500D03*
D24*
X1384300Y444500D01*
X774700Y546100D02*
X774700Y571500D01*
X774700Y546100D02*
X850900Y469900D01*
X1384300Y469900D01*
X1384300Y495300D02*
X965200Y495300D01*
X952500Y508000D01*
X952500Y571500D01*
X584200Y673100D02*
X584200Y812800D01*
X635000Y622300D02*
X673100Y622300D01*
X635000Y622300D02*
X584200Y673100D01*
D25*
X673100Y622300D03*
D26*
X141900Y659600D02*
X63500Y659600D01*
X192300Y710000D02*
X205000Y710000D01*
X192300Y710000D02*
X141900Y659600D01*
X63500Y759600D02*
X63500Y809600D01*
X63500Y709600D02*
X112700Y709600D01*
X142240Y739140D01*
X320040Y739140D01*
X347000Y766100D01*
X347000Y770000D01*
X306600Y609600D02*
X63500Y609600D01*
X306600Y609600D02*
X347000Y650000D01*
X63500Y250800D02*
X63500Y200800D01*
X63500Y50800D02*
X306600Y50800D01*
X347000Y91200D01*
X141900Y100800D02*
X63500Y100800D01*
X192300Y151200D02*
X205000Y151200D01*
X192300Y151200D02*
X141900Y100800D01*
X112700Y150800D02*
X63500Y150800D01*
X112700Y150800D02*
X142240Y180340D01*
X316140Y180340D02*
X347000Y211200D01*
X316140Y180340D02*
X142240Y180340D01*
X112700Y430200D02*
X63500Y430200D01*
X112700Y430200D02*
X144780Y462280D01*
X318680Y462280D02*
X347000Y490600D01*
X318680Y462280D02*
X144780Y462280D01*
X141900Y380200D02*
X63500Y380200D01*
X192300Y430600D02*
X205000Y430600D01*
X192300Y430600D02*
X141900Y380200D01*
X63500Y330200D02*
X306600Y330200D01*
X347000Y370600D01*
X63500Y480200D02*
X63500Y530200D01*
D24*
X225000Y490600D02*
X254550Y520150D01*
X457200Y444500D02*
X506150Y444500D01*
X457200Y444500D02*
X444500Y457200D01*
X444500Y508000D02*
X431800Y520700D01*
X431250Y520150D01*
X254550Y520150D01*
X444500Y508000D02*
X444500Y457200D01*
X255100Y241300D02*
X225000Y211200D01*
X255100Y241300D02*
X433070Y241300D01*
X444500Y252730D01*
X444500Y393700D01*
X457200Y406400D01*
X506150Y406400D01*
X225000Y770000D02*
X255100Y800100D01*
X457200Y800100D01*
X546100Y393700D02*
X560650Y393700D01*
X546100Y393700D02*
X542290Y397510D01*
X542290Y495300D01*
X520700Y516890D01*
X487680Y516890D01*
X477520Y527050D01*
X477520Y779780D02*
X457200Y800100D01*
X477520Y779780D02*
X477520Y527050D01*
D23*
X1016000Y201270D02*
X1016000Y162560D01*
X1016000Y122900D01*
X1016000Y92710D01*
X1016000Y83820D01*
X1016000Y54900D01*
D24*
X1295400Y304800D02*
X1311300Y304800D01*
D25*
X1282700Y292100D03*
D24*
X1017270Y163830D02*
X1016000Y162560D01*
X1054100Y812800D02*
X1054100Y825500D01*
X1041400Y838200D01*
X927100Y838200D01*
X914400Y825500D01*
X914400Y812800D01*
X914400Y825500D02*
X901700Y838200D01*
X546100Y838200D01*
X533400Y825500D01*
X533400Y812800D01*
X1282700Y292100D02*
X1295400Y304800D01*
D25*
X1054100Y88900D03*
D23*
X1021080Y88900D01*
X1016000Y83820D01*
X1019810Y88900D02*
X1021080Y88900D01*
X1019810Y88900D02*
X1016000Y92710D01*
X1114400Y195580D02*
X1120100Y189880D01*
X1114400Y195580D02*
X1114400Y203200D01*
X1120100Y189880D02*
X1120100Y143100D01*
X1303900Y60690D02*
X1303900Y22590D01*
X1294010Y12700D01*
X1120100Y143100D02*
X1108300Y143100D01*
X1104900Y12700D02*
X1294010Y12700D01*
X1104900Y12700D02*
X1092200Y25400D01*
X1092200Y127000D01*
X1108300Y143100D01*
X1092200Y25400D02*
X1079500Y12700D01*
X850900Y12700D02*
X838200Y25400D01*
X838200Y50800D01*
X850900Y12700D02*
X1079500Y12700D01*
X1303900Y60690D02*
X1303900Y122190D01*
X1303900Y165100D01*
X1143000Y821690D02*
X1159510Y838200D01*
X1312350Y173550D02*
X1303900Y165100D01*
D25*
X1143000Y821690D03*
D24*
X1311300Y228600D02*
X1311300Y174600D01*
X1312350Y173550D01*
D23*
X558800Y50800D02*
X558800Y25400D01*
X571500Y12700D01*
X685800Y12700D01*
X698500Y25400D01*
X698500Y50800D01*
X698500Y25400D02*
X711200Y12700D01*
X825500Y12700D01*
X838200Y25400D01*
X1412900Y825500D02*
X1400200Y838200D01*
X1159510Y838200D01*
X1312350Y173550D02*
X1405450Y173550D01*
X1412900Y181000D01*
X1412900Y825500D01*
X1054100Y736600D02*
X1054100Y711200D01*
X1054100Y736600D02*
X1066800Y749300D01*
X1155700Y749300D01*
X1168400Y762000D01*
X1168400Y812800D01*
X1193800Y812800D02*
X1193800Y711200D01*
X1320800Y749300D02*
X1333500Y736600D01*
X1320800Y749300D02*
X1231900Y749300D01*
X1219200Y762000D01*
X1219200Y812800D01*
X1333500Y736600D02*
X1333500Y711200D01*
X533400Y152400D02*
X533400Y50800D01*
X673100Y50800D02*
X673100Y152400D01*
X812800Y152400D02*
X812800Y50800D01*
D27*
X1330300Y266700D02*
X1373800Y266700D01*
X1373800Y304800D02*
X1330300Y304800D01*
D24*
X1330300Y228600D02*
X1373800Y228600D01*
D23*
X635000Y711200D02*
X635000Y736600D01*
X647700Y749300D01*
X736600Y749300D01*
X749300Y762000D01*
X749300Y812800D01*
X774700Y812800D02*
X774700Y711200D01*
X812800Y749300D02*
X800100Y762000D01*
X812800Y749300D02*
X901700Y749300D01*
X914400Y736600D01*
X914400Y711200D01*
X800100Y762000D02*
X800100Y812800D01*
M02*
