G04 EAGLE Gerber RS-274X export*
G75*
%MOMM*%
%FSLAX34Y34*%
%LPD*%
%IN*%
%IPPOS*%
%AMOC8*
5,1,8,0,0,1.08239X$1,22.5*%
G01*
%ADD10C,0.254000*%


D10*
X0Y0D02*
X1434900Y0D01*
X1434900Y860300D01*
X0Y860300D01*
X0Y0D01*
X137000Y837763D02*
X136924Y836894D01*
X136772Y836034D01*
X136546Y835190D01*
X136248Y834370D01*
X135879Y833578D01*
X135442Y832822D01*
X134941Y832107D01*
X134380Y831438D01*
X133762Y830820D01*
X133093Y830259D01*
X132378Y829758D01*
X131622Y829321D01*
X130830Y828952D01*
X130010Y828654D01*
X129166Y828428D01*
X128307Y828276D01*
X127437Y828200D01*
X126563Y828200D01*
X125694Y828276D01*
X124834Y828428D01*
X123990Y828654D01*
X123170Y828952D01*
X122378Y829321D01*
X121622Y829758D01*
X120907Y830259D01*
X120238Y830820D01*
X119620Y831438D01*
X119059Y832107D01*
X118558Y832822D01*
X118121Y833578D01*
X117752Y834370D01*
X117454Y835190D01*
X117228Y836034D01*
X117076Y836894D01*
X117000Y837763D01*
X117000Y838637D01*
X117076Y839507D01*
X117228Y840366D01*
X117454Y841210D01*
X117752Y842030D01*
X118121Y842822D01*
X118558Y843578D01*
X119059Y844293D01*
X119620Y844962D01*
X120238Y845580D01*
X120907Y846141D01*
X121622Y846642D01*
X122378Y847079D01*
X123170Y847448D01*
X123990Y847746D01*
X124834Y847972D01*
X125694Y848124D01*
X126563Y848200D01*
X127437Y848200D01*
X128307Y848124D01*
X129166Y847972D01*
X130010Y847746D01*
X130830Y847448D01*
X131622Y847079D01*
X132378Y846642D01*
X133093Y846141D01*
X133762Y845580D01*
X134380Y844962D01*
X134941Y844293D01*
X135442Y843578D01*
X135879Y842822D01*
X136248Y842030D01*
X136546Y841210D01*
X136772Y840366D01*
X136924Y839507D01*
X137000Y838637D01*
X137000Y837763D01*
X137000Y24963D02*
X136924Y24094D01*
X136772Y23234D01*
X136546Y22390D01*
X136248Y21570D01*
X135879Y20778D01*
X135442Y20022D01*
X134941Y19307D01*
X134380Y18638D01*
X133762Y18020D01*
X133093Y17459D01*
X132378Y16958D01*
X131622Y16521D01*
X130830Y16152D01*
X130010Y15854D01*
X129166Y15628D01*
X128307Y15476D01*
X127437Y15400D01*
X126563Y15400D01*
X125694Y15476D01*
X124834Y15628D01*
X123990Y15854D01*
X123170Y16152D01*
X122378Y16521D01*
X121622Y16958D01*
X120907Y17459D01*
X120238Y18020D01*
X119620Y18638D01*
X119059Y19307D01*
X118558Y20022D01*
X118121Y20778D01*
X117752Y21570D01*
X117454Y22390D01*
X117228Y23234D01*
X117076Y24094D01*
X117000Y24963D01*
X117000Y25837D01*
X117076Y26707D01*
X117228Y27566D01*
X117454Y28410D01*
X117752Y29230D01*
X118121Y30022D01*
X118558Y30778D01*
X119059Y31493D01*
X119620Y32162D01*
X120238Y32780D01*
X120907Y33341D01*
X121622Y33842D01*
X122378Y34279D01*
X123170Y34648D01*
X123990Y34946D01*
X124834Y35172D01*
X125694Y35324D01*
X126563Y35400D01*
X127437Y35400D01*
X128307Y35324D01*
X129166Y35172D01*
X130010Y34946D01*
X130830Y34648D01*
X131622Y34279D01*
X132378Y33842D01*
X133093Y33341D01*
X133762Y32780D01*
X134380Y32162D01*
X134941Y31493D01*
X135442Y30778D01*
X135879Y30022D01*
X136248Y29230D01*
X136546Y28410D01*
X136772Y27566D01*
X136924Y26707D01*
X137000Y25837D01*
X137000Y24963D01*
X1267300Y37663D02*
X1267224Y36794D01*
X1267072Y35934D01*
X1266846Y35090D01*
X1266548Y34270D01*
X1266179Y33478D01*
X1265742Y32722D01*
X1265241Y32007D01*
X1264680Y31338D01*
X1264062Y30720D01*
X1263393Y30159D01*
X1262678Y29658D01*
X1261922Y29221D01*
X1261130Y28852D01*
X1260310Y28554D01*
X1259466Y28328D01*
X1258607Y28176D01*
X1257737Y28100D01*
X1256863Y28100D01*
X1255994Y28176D01*
X1255134Y28328D01*
X1254290Y28554D01*
X1253470Y28852D01*
X1252678Y29221D01*
X1251922Y29658D01*
X1251207Y30159D01*
X1250538Y30720D01*
X1249920Y31338D01*
X1249359Y32007D01*
X1248858Y32722D01*
X1248421Y33478D01*
X1248052Y34270D01*
X1247754Y35090D01*
X1247528Y35934D01*
X1247376Y36794D01*
X1247300Y37663D01*
X1247300Y38537D01*
X1247376Y39407D01*
X1247528Y40266D01*
X1247754Y41110D01*
X1248052Y41930D01*
X1248421Y42722D01*
X1248858Y43478D01*
X1249359Y44193D01*
X1249920Y44862D01*
X1250538Y45480D01*
X1251207Y46041D01*
X1251922Y46542D01*
X1252678Y46979D01*
X1253470Y47348D01*
X1254290Y47646D01*
X1255134Y47872D01*
X1255994Y48024D01*
X1256863Y48100D01*
X1257737Y48100D01*
X1258607Y48024D01*
X1259466Y47872D01*
X1260310Y47646D01*
X1261130Y47348D01*
X1261922Y46979D01*
X1262678Y46542D01*
X1263393Y46041D01*
X1264062Y45480D01*
X1264680Y44862D01*
X1265241Y44193D01*
X1265742Y43478D01*
X1266179Y42722D01*
X1266548Y41930D01*
X1266846Y41110D01*
X1267072Y40266D01*
X1267224Y39407D01*
X1267300Y38537D01*
X1267300Y37663D01*
X1267300Y812363D02*
X1267224Y811494D01*
X1267072Y810634D01*
X1266846Y809790D01*
X1266548Y808970D01*
X1266179Y808178D01*
X1265742Y807422D01*
X1265241Y806707D01*
X1264680Y806038D01*
X1264062Y805420D01*
X1263393Y804859D01*
X1262678Y804358D01*
X1261922Y803921D01*
X1261130Y803552D01*
X1260310Y803254D01*
X1259466Y803028D01*
X1258607Y802876D01*
X1257737Y802800D01*
X1256863Y802800D01*
X1255994Y802876D01*
X1255134Y803028D01*
X1254290Y803254D01*
X1253470Y803552D01*
X1252678Y803921D01*
X1251922Y804358D01*
X1251207Y804859D01*
X1250538Y805420D01*
X1249920Y806038D01*
X1249359Y806707D01*
X1248858Y807422D01*
X1248421Y808178D01*
X1248052Y808970D01*
X1247754Y809790D01*
X1247528Y810634D01*
X1247376Y811494D01*
X1247300Y812363D01*
X1247300Y813237D01*
X1247376Y814107D01*
X1247528Y814966D01*
X1247754Y815810D01*
X1248052Y816630D01*
X1248421Y817422D01*
X1248858Y818178D01*
X1249359Y818893D01*
X1249920Y819562D01*
X1250538Y820180D01*
X1251207Y820741D01*
X1251922Y821242D01*
X1252678Y821679D01*
X1253470Y822048D01*
X1254290Y822346D01*
X1255134Y822572D01*
X1255994Y822724D01*
X1256863Y822800D01*
X1257737Y822800D01*
X1258607Y822724D01*
X1259466Y822572D01*
X1260310Y822346D01*
X1261130Y822048D01*
X1261922Y821679D01*
X1262678Y821242D01*
X1263393Y820741D01*
X1264062Y820180D01*
X1264680Y819562D01*
X1265241Y818893D01*
X1265742Y818178D01*
X1266179Y817422D01*
X1266548Y816630D01*
X1266846Y815810D01*
X1267072Y814966D01*
X1267224Y814107D01*
X1267300Y813237D01*
X1267300Y812363D01*
X1359271Y69190D02*
X1360011Y69125D01*
X1360742Y68996D01*
X1361458Y68804D01*
X1362156Y68550D01*
X1362829Y68237D01*
X1363471Y67866D01*
X1364079Y67440D01*
X1364648Y66963D01*
X1365173Y66438D01*
X1365650Y65869D01*
X1366076Y65261D01*
X1366447Y64619D01*
X1366760Y63946D01*
X1367014Y63248D01*
X1367206Y62532D01*
X1367335Y61801D01*
X1367400Y61061D01*
X1367400Y60319D01*
X1367335Y59579D01*
X1367206Y58849D01*
X1367014Y58132D01*
X1366760Y57434D01*
X1366447Y56761D01*
X1366076Y56119D01*
X1365650Y55511D01*
X1365173Y54942D01*
X1364648Y54417D01*
X1364079Y53940D01*
X1363471Y53514D01*
X1362829Y53143D01*
X1362156Y52830D01*
X1361458Y52576D01*
X1360742Y52384D01*
X1360011Y52255D01*
X1359271Y52190D01*
X1358529Y52190D01*
X1357789Y52255D01*
X1357059Y52384D01*
X1356342Y52576D01*
X1355644Y52830D01*
X1354971Y53143D01*
X1354329Y53514D01*
X1353721Y53940D01*
X1353152Y54417D01*
X1352627Y54942D01*
X1352150Y55511D01*
X1351724Y56119D01*
X1351353Y56761D01*
X1351040Y57434D01*
X1350786Y58132D01*
X1350594Y58849D01*
X1350465Y59579D01*
X1350400Y60319D01*
X1350400Y61061D01*
X1350465Y61801D01*
X1350594Y62532D01*
X1350786Y63248D01*
X1351040Y63946D01*
X1351353Y64619D01*
X1351724Y65261D01*
X1352150Y65869D01*
X1352627Y66438D01*
X1353152Y66963D01*
X1353721Y67440D01*
X1354329Y67866D01*
X1354971Y68237D01*
X1355644Y68550D01*
X1356342Y68804D01*
X1357059Y68996D01*
X1357789Y69125D01*
X1358529Y69190D01*
X1359271Y69190D01*
X1359315Y115190D02*
X1360141Y115118D01*
X1360958Y114974D01*
X1361759Y114759D01*
X1362539Y114475D01*
X1363291Y114125D01*
X1364009Y113710D01*
X1364689Y113234D01*
X1365324Y112701D01*
X1365911Y112114D01*
X1366444Y111479D01*
X1366920Y110799D01*
X1367335Y110081D01*
X1367685Y109329D01*
X1367969Y108549D01*
X1368184Y107748D01*
X1368328Y106931D01*
X1368400Y106105D01*
X1368400Y105275D01*
X1368328Y104449D01*
X1368184Y103632D01*
X1367969Y102831D01*
X1367685Y102051D01*
X1367335Y101299D01*
X1366920Y100581D01*
X1366444Y99901D01*
X1365911Y99266D01*
X1365324Y98679D01*
X1364689Y98146D01*
X1364009Y97670D01*
X1363291Y97255D01*
X1362539Y96905D01*
X1361759Y96621D01*
X1360958Y96406D01*
X1360141Y96262D01*
X1359315Y96190D01*
X1358485Y96190D01*
X1357659Y96262D01*
X1356842Y96406D01*
X1356041Y96621D01*
X1355261Y96905D01*
X1354509Y97255D01*
X1353791Y97670D01*
X1353111Y98146D01*
X1352476Y98679D01*
X1351889Y99266D01*
X1351356Y99901D01*
X1350880Y100581D01*
X1350465Y101299D01*
X1350115Y102051D01*
X1349831Y102831D01*
X1349616Y103632D01*
X1349472Y104449D01*
X1349400Y105275D01*
X1349400Y106105D01*
X1349472Y106931D01*
X1349616Y107748D01*
X1349831Y108549D01*
X1350115Y109329D01*
X1350465Y110081D01*
X1350880Y110799D01*
X1351356Y111479D01*
X1351889Y112114D01*
X1352476Y112701D01*
X1353111Y113234D01*
X1353791Y113710D01*
X1354509Y114125D01*
X1355261Y114475D01*
X1356041Y114759D01*
X1356842Y114974D01*
X1357659Y115118D01*
X1358485Y115190D01*
X1359315Y115190D01*
M02*
