G04 EAGLE Gerber RS-274X export*
G75*
%MOMM*%
%FSLAX34Y34*%
%LPD*%
%INSilkscreen Bottom*%
%IPPOS*%
%AMOC8*
5,1,8,0,0,1.08239X$1,22.5*%
G01*
%ADD10C,0.304800*%
%ADD11C,0.508000*%


D10*
X128524Y185484D02*
X128524Y177694D01*
X128526Y177506D01*
X128533Y177318D01*
X128544Y177130D01*
X128560Y176942D01*
X128581Y176755D01*
X128606Y176569D01*
X128635Y176383D01*
X128669Y176198D01*
X128708Y176013D01*
X128750Y175830D01*
X128798Y175648D01*
X128849Y175467D01*
X128905Y175287D01*
X128966Y175109D01*
X129030Y174932D01*
X129099Y174757D01*
X129172Y174583D01*
X129249Y174412D01*
X129331Y174242D01*
X129416Y174074D01*
X129506Y173909D01*
X129599Y173745D01*
X129696Y173584D01*
X129798Y173426D01*
X129903Y173269D01*
X130012Y173116D01*
X130124Y172965D01*
X130240Y172817D01*
X130360Y172671D01*
X130483Y172529D01*
X130609Y172390D01*
X130739Y172253D01*
X130872Y172120D01*
X131009Y171990D01*
X131148Y171864D01*
X131290Y171741D01*
X131436Y171621D01*
X131584Y171505D01*
X131735Y171393D01*
X131888Y171284D01*
X132045Y171179D01*
X132203Y171077D01*
X132364Y170980D01*
X132528Y170887D01*
X132693Y170797D01*
X132861Y170712D01*
X133031Y170630D01*
X133202Y170553D01*
X133376Y170480D01*
X133551Y170411D01*
X133728Y170347D01*
X133906Y170286D01*
X134086Y170230D01*
X134267Y170179D01*
X134449Y170131D01*
X134632Y170089D01*
X134817Y170050D01*
X135002Y170016D01*
X135188Y169987D01*
X135374Y169962D01*
X135561Y169941D01*
X135749Y169925D01*
X135937Y169914D01*
X136125Y169907D01*
X136313Y169905D01*
X155787Y169905D01*
X155978Y169907D01*
X156169Y169914D01*
X156360Y169926D01*
X156550Y169943D01*
X156740Y169964D01*
X156930Y169989D01*
X157119Y170020D01*
X157307Y170055D01*
X157494Y170094D01*
X157680Y170138D01*
X157864Y170187D01*
X158048Y170240D01*
X158230Y170298D01*
X158411Y170360D01*
X158590Y170427D01*
X158768Y170498D01*
X158943Y170573D01*
X159117Y170653D01*
X159289Y170737D01*
X159459Y170825D01*
X159626Y170917D01*
X159791Y171013D01*
X159954Y171113D01*
X160114Y171218D01*
X160272Y171326D01*
X160427Y171438D01*
X160579Y171554D01*
X160728Y171673D01*
X160875Y171796D01*
X161018Y171923D01*
X161158Y172053D01*
X161295Y172186D01*
X161428Y172323D01*
X161558Y172463D01*
X161685Y172606D01*
X161808Y172753D01*
X161927Y172902D01*
X162043Y173054D01*
X162155Y173209D01*
X162263Y173367D01*
X162368Y173527D01*
X162468Y173690D01*
X162564Y173855D01*
X162656Y174022D01*
X162744Y174192D01*
X162828Y174364D01*
X162908Y174538D01*
X162983Y174713D01*
X163054Y174891D01*
X163121Y175070D01*
X163183Y175251D01*
X163241Y175433D01*
X163294Y175617D01*
X163343Y175801D01*
X163387Y175987D01*
X163426Y176174D01*
X163461Y176362D01*
X163492Y176551D01*
X163517Y176741D01*
X163538Y176931D01*
X163555Y177121D01*
X163567Y177312D01*
X163574Y177503D01*
X163576Y177694D01*
X163576Y185484D01*
X163576Y203446D02*
X128524Y191762D01*
X128524Y215130D02*
X163576Y203446D01*
X137287Y212209D02*
X137287Y194683D01*
X138261Y223236D02*
X163576Y223236D01*
X138261Y223236D02*
X138024Y223239D01*
X137787Y223248D01*
X137550Y223262D01*
X137314Y223282D01*
X137078Y223308D01*
X136843Y223340D01*
X136609Y223377D01*
X136376Y223420D01*
X136144Y223469D01*
X135913Y223523D01*
X135684Y223583D01*
X135456Y223649D01*
X135230Y223720D01*
X135005Y223796D01*
X134783Y223878D01*
X134562Y223966D01*
X134344Y224059D01*
X134128Y224157D01*
X133915Y224260D01*
X133704Y224368D01*
X133496Y224482D01*
X133290Y224600D01*
X133088Y224724D01*
X132888Y224852D01*
X132692Y224986D01*
X132499Y225124D01*
X132310Y225266D01*
X132124Y225413D01*
X131942Y225565D01*
X131763Y225721D01*
X131589Y225882D01*
X131418Y226046D01*
X131251Y226215D01*
X131089Y226387D01*
X130931Y226564D01*
X130777Y226745D01*
X130627Y226929D01*
X130482Y227116D01*
X130342Y227307D01*
X130206Y227502D01*
X130076Y227700D01*
X129950Y227901D01*
X129829Y228104D01*
X129712Y228311D01*
X129601Y228521D01*
X129496Y228733D01*
X129395Y228948D01*
X129300Y229165D01*
X129210Y229384D01*
X129125Y229606D01*
X129046Y229829D01*
X128972Y230054D01*
X128903Y230282D01*
X128841Y230510D01*
X128783Y230740D01*
X128732Y230972D01*
X128686Y231204D01*
X128646Y231438D01*
X128611Y231673D01*
X128582Y231908D01*
X128559Y232144D01*
X128542Y232381D01*
X128530Y232617D01*
X128525Y232854D01*
X128525Y233092D01*
X128530Y233329D01*
X128542Y233565D01*
X128559Y233802D01*
X128582Y234038D01*
X128611Y234273D01*
X128646Y234508D01*
X128686Y234742D01*
X128732Y234974D01*
X128783Y235206D01*
X128841Y235436D01*
X128903Y235664D01*
X128972Y235892D01*
X129046Y236117D01*
X129125Y236340D01*
X129210Y236562D01*
X129300Y236781D01*
X129395Y236998D01*
X129496Y237213D01*
X129601Y237425D01*
X129712Y237635D01*
X129829Y237842D01*
X129950Y238045D01*
X130076Y238246D01*
X130206Y238444D01*
X130342Y238639D01*
X130482Y238830D01*
X130627Y239017D01*
X130777Y239201D01*
X130931Y239382D01*
X131089Y239559D01*
X131251Y239731D01*
X131418Y239900D01*
X131589Y240064D01*
X131763Y240225D01*
X131942Y240381D01*
X132124Y240533D01*
X132310Y240680D01*
X132499Y240822D01*
X132692Y240960D01*
X132888Y241094D01*
X133088Y241222D01*
X133290Y241346D01*
X133496Y241464D01*
X133704Y241578D01*
X133915Y241686D01*
X134128Y241789D01*
X134344Y241887D01*
X134562Y241980D01*
X134783Y242068D01*
X135005Y242150D01*
X135230Y242226D01*
X135456Y242297D01*
X135684Y242363D01*
X135913Y242423D01*
X136144Y242477D01*
X136376Y242526D01*
X136609Y242569D01*
X136843Y242606D01*
X137078Y242638D01*
X137314Y242664D01*
X137550Y242684D01*
X137787Y242698D01*
X138024Y242707D01*
X138261Y242710D01*
X163576Y242710D01*
X163576Y260596D02*
X128524Y260596D01*
X163576Y250859D02*
X163576Y270332D01*
X163576Y281551D02*
X128524Y281551D01*
X128524Y285445D02*
X128524Y277656D01*
X163576Y277656D02*
X163576Y285445D01*
X153839Y294674D02*
X138261Y294674D01*
X153839Y294674D02*
X154076Y294677D01*
X154313Y294686D01*
X154550Y294700D01*
X154786Y294720D01*
X155022Y294746D01*
X155257Y294778D01*
X155491Y294815D01*
X155724Y294858D01*
X155956Y294907D01*
X156187Y294961D01*
X156416Y295021D01*
X156644Y295087D01*
X156870Y295158D01*
X157095Y295234D01*
X157317Y295316D01*
X157538Y295404D01*
X157756Y295497D01*
X157972Y295595D01*
X158185Y295698D01*
X158396Y295806D01*
X158604Y295920D01*
X158810Y296038D01*
X159012Y296162D01*
X159212Y296290D01*
X159408Y296424D01*
X159601Y296562D01*
X159790Y296704D01*
X159976Y296851D01*
X160158Y297003D01*
X160337Y297159D01*
X160511Y297320D01*
X160682Y297484D01*
X160849Y297653D01*
X161011Y297825D01*
X161169Y298002D01*
X161323Y298183D01*
X161473Y298367D01*
X161618Y298554D01*
X161758Y298745D01*
X161894Y298940D01*
X162024Y299138D01*
X162150Y299339D01*
X162271Y299543D01*
X162388Y299749D01*
X162499Y299959D01*
X162604Y300171D01*
X162705Y300386D01*
X162800Y300603D01*
X162890Y300822D01*
X162975Y301044D01*
X163054Y301267D01*
X163128Y301492D01*
X163197Y301720D01*
X163259Y301948D01*
X163317Y302178D01*
X163368Y302410D01*
X163414Y302642D01*
X163454Y302876D01*
X163489Y303111D01*
X163518Y303346D01*
X163541Y303582D01*
X163558Y303819D01*
X163570Y304055D01*
X163575Y304292D01*
X163575Y304530D01*
X163570Y304767D01*
X163558Y305003D01*
X163541Y305240D01*
X163518Y305476D01*
X163489Y305711D01*
X163454Y305946D01*
X163414Y306180D01*
X163368Y306412D01*
X163317Y306644D01*
X163259Y306874D01*
X163197Y307102D01*
X163128Y307330D01*
X163054Y307555D01*
X162975Y307778D01*
X162890Y308000D01*
X162800Y308219D01*
X162705Y308436D01*
X162604Y308651D01*
X162499Y308863D01*
X162388Y309073D01*
X162271Y309280D01*
X162150Y309483D01*
X162024Y309684D01*
X161894Y309882D01*
X161758Y310077D01*
X161618Y310268D01*
X161473Y310455D01*
X161323Y310639D01*
X161169Y310820D01*
X161011Y310997D01*
X160849Y311169D01*
X160682Y311338D01*
X160511Y311502D01*
X160337Y311663D01*
X160158Y311819D01*
X159976Y311971D01*
X159790Y312118D01*
X159601Y312260D01*
X159408Y312398D01*
X159212Y312532D01*
X159012Y312660D01*
X158810Y312784D01*
X158604Y312902D01*
X158396Y313016D01*
X158185Y313124D01*
X157972Y313227D01*
X157756Y313325D01*
X157538Y313418D01*
X157317Y313506D01*
X157095Y313588D01*
X156870Y313664D01*
X156644Y313735D01*
X156416Y313801D01*
X156187Y313861D01*
X155956Y313915D01*
X155724Y313964D01*
X155491Y314007D01*
X155257Y314044D01*
X155022Y314076D01*
X154786Y314102D01*
X154550Y314122D01*
X154313Y314136D01*
X154076Y314145D01*
X153839Y314148D01*
X153839Y314147D02*
X138261Y314147D01*
X138261Y314148D02*
X138024Y314145D01*
X137787Y314136D01*
X137550Y314122D01*
X137314Y314102D01*
X137078Y314076D01*
X136843Y314044D01*
X136609Y314007D01*
X136376Y313964D01*
X136144Y313915D01*
X135913Y313861D01*
X135684Y313801D01*
X135456Y313735D01*
X135230Y313664D01*
X135005Y313588D01*
X134783Y313506D01*
X134562Y313418D01*
X134344Y313325D01*
X134128Y313227D01*
X133915Y313124D01*
X133704Y313016D01*
X133496Y312902D01*
X133290Y312784D01*
X133088Y312660D01*
X132888Y312532D01*
X132692Y312398D01*
X132499Y312260D01*
X132310Y312118D01*
X132124Y311971D01*
X131942Y311819D01*
X131763Y311663D01*
X131589Y311502D01*
X131418Y311338D01*
X131251Y311169D01*
X131089Y310997D01*
X130931Y310820D01*
X130777Y310639D01*
X130627Y310455D01*
X130482Y310268D01*
X130342Y310077D01*
X130206Y309882D01*
X130076Y309684D01*
X129950Y309483D01*
X129829Y309280D01*
X129712Y309073D01*
X129601Y308863D01*
X129496Y308651D01*
X129395Y308436D01*
X129300Y308219D01*
X129210Y308000D01*
X129125Y307778D01*
X129046Y307555D01*
X128972Y307330D01*
X128903Y307102D01*
X128841Y306874D01*
X128783Y306644D01*
X128732Y306412D01*
X128686Y306180D01*
X128646Y305946D01*
X128611Y305711D01*
X128582Y305476D01*
X128559Y305240D01*
X128542Y305003D01*
X128530Y304767D01*
X128525Y304530D01*
X128525Y304292D01*
X128530Y304055D01*
X128542Y303819D01*
X128559Y303582D01*
X128582Y303346D01*
X128611Y303111D01*
X128646Y302876D01*
X128686Y302642D01*
X128732Y302410D01*
X128783Y302178D01*
X128841Y301948D01*
X128903Y301720D01*
X128972Y301492D01*
X129046Y301267D01*
X129125Y301044D01*
X129210Y300822D01*
X129300Y300603D01*
X129395Y300386D01*
X129496Y300171D01*
X129601Y299959D01*
X129712Y299749D01*
X129829Y299542D01*
X129950Y299339D01*
X130076Y299138D01*
X130206Y298940D01*
X130342Y298745D01*
X130482Y298554D01*
X130627Y298367D01*
X130777Y298183D01*
X130931Y298002D01*
X131089Y297825D01*
X131251Y297653D01*
X131418Y297484D01*
X131589Y297320D01*
X131763Y297159D01*
X131942Y297003D01*
X132124Y296851D01*
X132310Y296704D01*
X132499Y296562D01*
X132692Y296424D01*
X132888Y296290D01*
X133088Y296162D01*
X133290Y296038D01*
X133496Y295920D01*
X133704Y295806D01*
X133915Y295698D01*
X134128Y295595D01*
X134344Y295497D01*
X134562Y295404D01*
X134783Y295316D01*
X135005Y295234D01*
X135230Y295158D01*
X135456Y295087D01*
X135684Y295021D01*
X135913Y294961D01*
X136144Y294907D01*
X136376Y294858D01*
X136609Y294815D01*
X136843Y294778D01*
X137078Y294746D01*
X137314Y294720D01*
X137550Y294700D01*
X137787Y294686D01*
X138024Y294677D01*
X138261Y294674D01*
X128524Y324201D02*
X163576Y324201D01*
X128524Y343675D01*
X163576Y343675D01*
X163576Y379679D02*
X163573Y379891D01*
X163566Y380102D01*
X163553Y380314D01*
X163535Y380525D01*
X163512Y380735D01*
X163484Y380945D01*
X163451Y381154D01*
X163413Y381363D01*
X163370Y381570D01*
X163321Y381776D01*
X163268Y381981D01*
X163210Y382185D01*
X163147Y382387D01*
X163079Y382588D01*
X163007Y382786D01*
X162929Y382983D01*
X162847Y383179D01*
X162760Y383372D01*
X162668Y383563D01*
X162572Y383751D01*
X162472Y383938D01*
X162366Y384121D01*
X162257Y384303D01*
X162143Y384481D01*
X162025Y384657D01*
X161902Y384830D01*
X161776Y385000D01*
X161645Y385166D01*
X161511Y385330D01*
X161372Y385490D01*
X161230Y385647D01*
X161084Y385800D01*
X160934Y385950D01*
X160781Y386096D01*
X160624Y386238D01*
X160464Y386377D01*
X160300Y386511D01*
X160134Y386642D01*
X159964Y386768D01*
X159791Y386891D01*
X159615Y387009D01*
X159437Y387123D01*
X159255Y387232D01*
X159072Y387338D01*
X158885Y387438D01*
X158697Y387534D01*
X158506Y387626D01*
X158313Y387713D01*
X158117Y387795D01*
X157920Y387873D01*
X157722Y387945D01*
X157521Y388013D01*
X157319Y388076D01*
X157115Y388134D01*
X156910Y388187D01*
X156704Y388236D01*
X156497Y388279D01*
X156288Y388317D01*
X156079Y388350D01*
X155869Y388378D01*
X155659Y388401D01*
X155448Y388419D01*
X155236Y388432D01*
X155025Y388439D01*
X154813Y388442D01*
X163576Y379679D02*
X163573Y379407D01*
X163563Y379135D01*
X163546Y378863D01*
X163523Y378592D01*
X163494Y378321D01*
X163458Y378051D01*
X163415Y377782D01*
X163366Y377514D01*
X163310Y377248D01*
X163248Y376983D01*
X163180Y376719D01*
X163105Y376457D01*
X163024Y376198D01*
X162937Y375940D01*
X162843Y375684D01*
X162744Y375431D01*
X162638Y375180D01*
X162526Y374931D01*
X162408Y374686D01*
X162285Y374443D01*
X162155Y374204D01*
X162020Y373968D01*
X161879Y373735D01*
X161732Y373505D01*
X161580Y373279D01*
X161423Y373057D01*
X161260Y372839D01*
X161092Y372625D01*
X160919Y372415D01*
X160741Y372209D01*
X160558Y372007D01*
X160370Y371810D01*
X160177Y371618D01*
X159980Y371430D01*
X159778Y371247D01*
X159572Y371070D01*
X159362Y370897D01*
X159147Y370729D01*
X158929Y370566D01*
X158706Y370409D01*
X158480Y370257D01*
X158251Y370111D01*
X158018Y369970D01*
X157781Y369835D01*
X157542Y369706D01*
X157299Y369583D01*
X157053Y369465D01*
X156805Y369354D01*
X156554Y369248D01*
X156300Y369149D01*
X156045Y369056D01*
X155787Y368969D01*
X147997Y385521D02*
X148159Y385686D01*
X148324Y385848D01*
X148493Y386005D01*
X148666Y386158D01*
X148843Y386306D01*
X149023Y386451D01*
X149207Y386590D01*
X149394Y386726D01*
X149585Y386856D01*
X149778Y386982D01*
X149975Y387103D01*
X150175Y387220D01*
X150377Y387331D01*
X150582Y387437D01*
X150790Y387539D01*
X151000Y387635D01*
X151212Y387726D01*
X151426Y387812D01*
X151643Y387892D01*
X151861Y387967D01*
X152081Y388037D01*
X152303Y388101D01*
X152527Y388160D01*
X152751Y388213D01*
X152977Y388261D01*
X153204Y388303D01*
X153432Y388340D01*
X153661Y388371D01*
X153891Y388397D01*
X154121Y388417D01*
X154351Y388431D01*
X154582Y388439D01*
X154813Y388442D01*
X147997Y385521D02*
X128524Y368969D01*
X128524Y388442D01*
X136313Y397544D02*
X163576Y405333D01*
X136313Y397544D02*
X136313Y417017D01*
X128524Y411175D02*
X144103Y411175D01*
X146050Y426119D02*
X146740Y426127D01*
X147429Y426152D01*
X148117Y426193D01*
X148804Y426251D01*
X149490Y426325D01*
X150173Y426415D01*
X150855Y426521D01*
X151533Y426644D01*
X152209Y426783D01*
X152881Y426938D01*
X153549Y427109D01*
X154212Y427296D01*
X154871Y427499D01*
X155526Y427717D01*
X156174Y427951D01*
X156817Y428201D01*
X157454Y428465D01*
X158084Y428745D01*
X158708Y429040D01*
X158873Y429099D01*
X159036Y429162D01*
X159198Y429229D01*
X159359Y429300D01*
X159517Y429374D01*
X159674Y429453D01*
X159829Y429535D01*
X159982Y429621D01*
X160132Y429711D01*
X160280Y429804D01*
X160426Y429901D01*
X160570Y430001D01*
X160711Y430105D01*
X160850Y430212D01*
X160986Y430323D01*
X161119Y430437D01*
X161249Y430554D01*
X161377Y430674D01*
X161501Y430797D01*
X161623Y430924D01*
X161741Y431053D01*
X161857Y431185D01*
X161969Y431320D01*
X162077Y431457D01*
X162183Y431597D01*
X162284Y431740D01*
X162383Y431885D01*
X162478Y432032D01*
X162569Y432182D01*
X162656Y432334D01*
X162740Y432488D01*
X162820Y432644D01*
X162896Y432801D01*
X162969Y432961D01*
X163037Y433122D01*
X163102Y433285D01*
X163162Y433450D01*
X163219Y433616D01*
X163271Y433783D01*
X163320Y433951D01*
X163364Y434121D01*
X163404Y434291D01*
X163440Y434463D01*
X163472Y434635D01*
X163499Y434808D01*
X163523Y434982D01*
X163542Y435156D01*
X163557Y435331D01*
X163567Y435506D01*
X163574Y435681D01*
X163576Y435856D01*
X163574Y436031D01*
X163567Y436206D01*
X163557Y436381D01*
X163542Y436556D01*
X163523Y436730D01*
X163499Y436904D01*
X163472Y437077D01*
X163440Y437249D01*
X163404Y437421D01*
X163364Y437591D01*
X163320Y437761D01*
X163271Y437929D01*
X163219Y438096D01*
X163162Y438262D01*
X163102Y438427D01*
X163037Y438590D01*
X162969Y438751D01*
X162896Y438911D01*
X162820Y439069D01*
X162740Y439224D01*
X162656Y439378D01*
X162569Y439530D01*
X162478Y439680D01*
X162383Y439827D01*
X162284Y439972D01*
X162183Y440115D01*
X162077Y440255D01*
X161969Y440392D01*
X161857Y440527D01*
X161741Y440659D01*
X161623Y440788D01*
X161501Y440915D01*
X161377Y441038D01*
X161249Y441158D01*
X161119Y441275D01*
X160986Y441389D01*
X160850Y441500D01*
X160711Y441607D01*
X160570Y441711D01*
X160426Y441811D01*
X160280Y441908D01*
X160132Y442001D01*
X159981Y442091D01*
X159829Y442177D01*
X159674Y442259D01*
X159517Y442338D01*
X159359Y442412D01*
X159198Y442483D01*
X159036Y442550D01*
X158873Y442613D01*
X158708Y442672D01*
X158708Y442671D02*
X158084Y442966D01*
X157454Y443246D01*
X156817Y443510D01*
X156174Y443760D01*
X155526Y443994D01*
X154871Y444212D01*
X154212Y444415D01*
X153549Y444602D01*
X152881Y444773D01*
X152209Y444928D01*
X151533Y445067D01*
X150855Y445190D01*
X150173Y445296D01*
X149490Y445386D01*
X148804Y445460D01*
X148117Y445518D01*
X147429Y445559D01*
X146740Y445584D01*
X146050Y445592D01*
X146050Y426118D02*
X145360Y426126D01*
X144671Y426151D01*
X143983Y426192D01*
X143296Y426250D01*
X142610Y426324D01*
X141926Y426414D01*
X141245Y426520D01*
X140567Y426643D01*
X139891Y426782D01*
X139219Y426937D01*
X138551Y427108D01*
X137887Y427295D01*
X137228Y427498D01*
X136574Y427716D01*
X135926Y427950D01*
X135283Y428200D01*
X134646Y428464D01*
X134016Y428744D01*
X133392Y429039D01*
X133392Y429040D02*
X133227Y429099D01*
X133064Y429162D01*
X132902Y429229D01*
X132741Y429300D01*
X132583Y429374D01*
X132426Y429453D01*
X132271Y429535D01*
X132118Y429621D01*
X131968Y429711D01*
X131820Y429804D01*
X131673Y429901D01*
X131530Y430001D01*
X131389Y430105D01*
X131250Y430212D01*
X131114Y430323D01*
X130981Y430437D01*
X130851Y430554D01*
X130723Y430674D01*
X130599Y430797D01*
X130477Y430924D01*
X130359Y431053D01*
X130243Y431185D01*
X130131Y431320D01*
X130023Y431457D01*
X129917Y431597D01*
X129816Y431740D01*
X129717Y431885D01*
X129622Y432032D01*
X129531Y432182D01*
X129444Y432334D01*
X129360Y432488D01*
X129280Y432644D01*
X129204Y432801D01*
X129131Y432961D01*
X129063Y433122D01*
X128998Y433285D01*
X128938Y433450D01*
X128881Y433616D01*
X128829Y433783D01*
X128780Y433951D01*
X128736Y434121D01*
X128696Y434291D01*
X128660Y434463D01*
X128628Y434635D01*
X128601Y434808D01*
X128577Y434982D01*
X128558Y435156D01*
X128543Y435331D01*
X128533Y435506D01*
X128526Y435681D01*
X128524Y435856D01*
X133392Y442672D02*
X134016Y442967D01*
X134646Y443247D01*
X135283Y443511D01*
X135926Y443761D01*
X136574Y443995D01*
X137228Y444213D01*
X137887Y444416D01*
X138551Y444603D01*
X139219Y444774D01*
X139891Y444929D01*
X140567Y445068D01*
X141245Y445191D01*
X141926Y445297D01*
X142610Y445387D01*
X143296Y445461D01*
X143983Y445519D01*
X144671Y445560D01*
X145360Y445585D01*
X146050Y445593D01*
X133392Y442672D02*
X133227Y442613D01*
X133064Y442550D01*
X132902Y442483D01*
X132741Y442412D01*
X132583Y442338D01*
X132426Y442259D01*
X132271Y442177D01*
X132118Y442091D01*
X131968Y442001D01*
X131820Y441908D01*
X131674Y441811D01*
X131530Y441711D01*
X131389Y441607D01*
X131250Y441500D01*
X131114Y441389D01*
X130981Y441275D01*
X130851Y441158D01*
X130723Y441038D01*
X130599Y440915D01*
X130477Y440788D01*
X130359Y440659D01*
X130243Y440527D01*
X130131Y440392D01*
X130023Y440255D01*
X129917Y440115D01*
X129816Y439972D01*
X129717Y439827D01*
X129622Y439680D01*
X129531Y439530D01*
X129444Y439378D01*
X129360Y439224D01*
X129280Y439069D01*
X129204Y438911D01*
X129131Y438751D01*
X129063Y438590D01*
X128998Y438427D01*
X128938Y438262D01*
X128881Y438096D01*
X128829Y437929D01*
X128780Y437761D01*
X128736Y437591D01*
X128696Y437421D01*
X128660Y437249D01*
X128628Y437077D01*
X128601Y436904D01*
X128577Y436730D01*
X128558Y436556D01*
X128543Y436381D01*
X128533Y436206D01*
X128526Y436031D01*
X128524Y435856D01*
X136313Y428066D02*
X155787Y443645D01*
X163576Y467987D02*
X128524Y479671D01*
X163576Y491355D01*
X153839Y498509D02*
X138261Y498509D01*
X153839Y498509D02*
X154076Y498512D01*
X154313Y498521D01*
X154550Y498535D01*
X154786Y498555D01*
X155022Y498581D01*
X155257Y498613D01*
X155491Y498650D01*
X155724Y498693D01*
X155956Y498742D01*
X156187Y498796D01*
X156416Y498856D01*
X156644Y498922D01*
X156870Y498993D01*
X157095Y499069D01*
X157317Y499151D01*
X157538Y499239D01*
X157756Y499332D01*
X157972Y499430D01*
X158185Y499533D01*
X158396Y499641D01*
X158604Y499755D01*
X158810Y499873D01*
X159012Y499997D01*
X159212Y500125D01*
X159408Y500259D01*
X159601Y500397D01*
X159790Y500539D01*
X159976Y500686D01*
X160158Y500838D01*
X160337Y500994D01*
X160511Y501155D01*
X160682Y501319D01*
X160849Y501488D01*
X161011Y501660D01*
X161169Y501837D01*
X161323Y502018D01*
X161473Y502202D01*
X161618Y502389D01*
X161758Y502580D01*
X161894Y502775D01*
X162024Y502973D01*
X162150Y503174D01*
X162271Y503378D01*
X162388Y503584D01*
X162499Y503794D01*
X162604Y504006D01*
X162705Y504221D01*
X162800Y504438D01*
X162890Y504657D01*
X162975Y504879D01*
X163054Y505102D01*
X163128Y505327D01*
X163197Y505555D01*
X163259Y505783D01*
X163317Y506013D01*
X163368Y506245D01*
X163414Y506477D01*
X163454Y506711D01*
X163489Y506946D01*
X163518Y507181D01*
X163541Y507417D01*
X163558Y507654D01*
X163570Y507890D01*
X163575Y508127D01*
X163575Y508365D01*
X163570Y508602D01*
X163558Y508838D01*
X163541Y509075D01*
X163518Y509311D01*
X163489Y509546D01*
X163454Y509781D01*
X163414Y510015D01*
X163368Y510247D01*
X163317Y510479D01*
X163259Y510709D01*
X163197Y510937D01*
X163128Y511165D01*
X163054Y511390D01*
X162975Y511613D01*
X162890Y511835D01*
X162800Y512054D01*
X162705Y512271D01*
X162604Y512486D01*
X162499Y512698D01*
X162388Y512908D01*
X162271Y513115D01*
X162150Y513318D01*
X162024Y513519D01*
X161894Y513717D01*
X161758Y513912D01*
X161618Y514103D01*
X161473Y514290D01*
X161323Y514474D01*
X161169Y514655D01*
X161011Y514832D01*
X160849Y515004D01*
X160682Y515173D01*
X160511Y515337D01*
X160337Y515498D01*
X160158Y515654D01*
X159976Y515806D01*
X159790Y515953D01*
X159601Y516095D01*
X159408Y516233D01*
X159212Y516367D01*
X159012Y516495D01*
X158810Y516619D01*
X158604Y516737D01*
X158396Y516851D01*
X158185Y516959D01*
X157972Y517062D01*
X157756Y517160D01*
X157538Y517253D01*
X157317Y517341D01*
X157095Y517423D01*
X156870Y517499D01*
X156644Y517570D01*
X156416Y517636D01*
X156187Y517696D01*
X155956Y517750D01*
X155724Y517799D01*
X155491Y517842D01*
X155257Y517879D01*
X155022Y517911D01*
X154786Y517937D01*
X154550Y517957D01*
X154313Y517971D01*
X154076Y517980D01*
X153839Y517983D01*
X153839Y517982D02*
X138261Y517982D01*
X138261Y517983D02*
X138024Y517980D01*
X137787Y517971D01*
X137550Y517957D01*
X137314Y517937D01*
X137078Y517911D01*
X136843Y517879D01*
X136609Y517842D01*
X136376Y517799D01*
X136144Y517750D01*
X135913Y517696D01*
X135684Y517636D01*
X135456Y517570D01*
X135230Y517499D01*
X135005Y517423D01*
X134783Y517341D01*
X134562Y517253D01*
X134344Y517160D01*
X134128Y517062D01*
X133915Y516959D01*
X133704Y516851D01*
X133496Y516737D01*
X133290Y516619D01*
X133088Y516495D01*
X132888Y516367D01*
X132692Y516233D01*
X132499Y516095D01*
X132310Y515953D01*
X132124Y515806D01*
X131942Y515654D01*
X131763Y515498D01*
X131589Y515337D01*
X131418Y515173D01*
X131251Y515004D01*
X131089Y514832D01*
X130931Y514655D01*
X130777Y514474D01*
X130627Y514290D01*
X130482Y514103D01*
X130342Y513912D01*
X130206Y513717D01*
X130076Y513519D01*
X129950Y513318D01*
X129829Y513115D01*
X129712Y512908D01*
X129601Y512698D01*
X129496Y512486D01*
X129395Y512271D01*
X129300Y512054D01*
X129210Y511835D01*
X129125Y511613D01*
X129046Y511390D01*
X128972Y511165D01*
X128903Y510937D01*
X128841Y510709D01*
X128783Y510479D01*
X128732Y510247D01*
X128686Y510015D01*
X128646Y509781D01*
X128611Y509546D01*
X128582Y509311D01*
X128559Y509075D01*
X128542Y508838D01*
X128530Y508602D01*
X128525Y508365D01*
X128525Y508127D01*
X128530Y507890D01*
X128542Y507654D01*
X128559Y507417D01*
X128582Y507181D01*
X128611Y506946D01*
X128646Y506711D01*
X128686Y506477D01*
X128732Y506245D01*
X128783Y506013D01*
X128841Y505783D01*
X128903Y505555D01*
X128972Y505327D01*
X129046Y505102D01*
X129125Y504879D01*
X129210Y504657D01*
X129300Y504438D01*
X129395Y504221D01*
X129496Y504006D01*
X129601Y503794D01*
X129712Y503584D01*
X129829Y503377D01*
X129950Y503174D01*
X130076Y502973D01*
X130206Y502775D01*
X130342Y502580D01*
X130482Y502389D01*
X130627Y502202D01*
X130777Y502018D01*
X130931Y501837D01*
X131089Y501660D01*
X131251Y501488D01*
X131418Y501319D01*
X131589Y501155D01*
X131763Y500994D01*
X131942Y500838D01*
X132124Y500686D01*
X132310Y500539D01*
X132499Y500397D01*
X132692Y500259D01*
X132888Y500125D01*
X133088Y499997D01*
X133290Y499873D01*
X133496Y499755D01*
X133704Y499641D01*
X133915Y499533D01*
X134128Y499430D01*
X134344Y499332D01*
X134562Y499239D01*
X134783Y499151D01*
X135005Y499069D01*
X135230Y498993D01*
X135456Y498922D01*
X135684Y498856D01*
X135913Y498796D01*
X136144Y498742D01*
X136376Y498693D01*
X136609Y498650D01*
X136843Y498613D01*
X137078Y498581D01*
X137314Y498555D01*
X137550Y498535D01*
X137787Y498521D01*
X138024Y498512D01*
X138261Y498509D01*
X128524Y528022D02*
X163576Y528022D01*
X128524Y528022D02*
X128524Y543601D01*
X128524Y559681D02*
X163576Y559681D01*
X163576Y569417D02*
X163576Y549944D01*
X163576Y601591D02*
X128524Y589907D01*
X128524Y613275D02*
X163576Y601591D01*
X137287Y610354D02*
X137287Y592828D01*
X124629Y619519D02*
X167471Y635097D01*
X128524Y651087D02*
X128524Y658876D01*
X128524Y651087D02*
X128526Y650899D01*
X128533Y650711D01*
X128544Y650523D01*
X128560Y650335D01*
X128581Y650148D01*
X128606Y649962D01*
X128635Y649776D01*
X128669Y649591D01*
X128708Y649406D01*
X128750Y649223D01*
X128798Y649041D01*
X128849Y648860D01*
X128905Y648680D01*
X128966Y648502D01*
X129030Y648325D01*
X129099Y648150D01*
X129172Y647976D01*
X129249Y647805D01*
X129331Y647635D01*
X129416Y647467D01*
X129506Y647302D01*
X129599Y647138D01*
X129696Y646977D01*
X129798Y646819D01*
X129903Y646662D01*
X130012Y646509D01*
X130124Y646358D01*
X130240Y646210D01*
X130360Y646064D01*
X130483Y645922D01*
X130609Y645783D01*
X130739Y645646D01*
X130872Y645513D01*
X131009Y645383D01*
X131148Y645257D01*
X131290Y645134D01*
X131436Y645014D01*
X131584Y644898D01*
X131735Y644786D01*
X131888Y644677D01*
X132045Y644572D01*
X132203Y644470D01*
X132364Y644373D01*
X132528Y644280D01*
X132693Y644190D01*
X132861Y644105D01*
X133031Y644023D01*
X133202Y643946D01*
X133376Y643873D01*
X133551Y643804D01*
X133728Y643740D01*
X133906Y643679D01*
X134086Y643623D01*
X134267Y643572D01*
X134449Y643524D01*
X134632Y643482D01*
X134817Y643443D01*
X135002Y643409D01*
X135188Y643380D01*
X135374Y643355D01*
X135561Y643334D01*
X135749Y643318D01*
X135937Y643307D01*
X136125Y643300D01*
X136313Y643298D01*
X136313Y643297D02*
X155787Y643297D01*
X155787Y643298D02*
X155978Y643300D01*
X156169Y643307D01*
X156360Y643319D01*
X156550Y643336D01*
X156740Y643357D01*
X156930Y643382D01*
X157119Y643413D01*
X157307Y643448D01*
X157494Y643487D01*
X157680Y643531D01*
X157864Y643580D01*
X158048Y643633D01*
X158230Y643691D01*
X158411Y643753D01*
X158590Y643820D01*
X158768Y643891D01*
X158943Y643966D01*
X159117Y644046D01*
X159289Y644130D01*
X159459Y644218D01*
X159626Y644310D01*
X159791Y644406D01*
X159954Y644506D01*
X160114Y644611D01*
X160272Y644719D01*
X160427Y644831D01*
X160579Y644947D01*
X160728Y645066D01*
X160875Y645189D01*
X161018Y645316D01*
X161158Y645446D01*
X161295Y645579D01*
X161428Y645716D01*
X161558Y645856D01*
X161685Y645999D01*
X161808Y646146D01*
X161927Y646295D01*
X162043Y646447D01*
X162155Y646602D01*
X162263Y646760D01*
X162368Y646920D01*
X162468Y647083D01*
X162564Y647248D01*
X162656Y647415D01*
X162744Y647585D01*
X162828Y647757D01*
X162908Y647931D01*
X162983Y648106D01*
X163054Y648284D01*
X163121Y648463D01*
X163183Y648644D01*
X163241Y648826D01*
X163294Y649010D01*
X163343Y649194D01*
X163387Y649380D01*
X163426Y649567D01*
X163461Y649755D01*
X163492Y649944D01*
X163517Y650134D01*
X163538Y650324D01*
X163555Y650514D01*
X163567Y650705D01*
X163574Y650896D01*
X163576Y651087D01*
X163576Y658876D01*
D11*
X25400Y850900D02*
X444500Y850900D01*
X457200Y838200D01*
X457200Y25400D01*
X444500Y12700D01*
X25400Y12700D01*
X12700Y25400D01*
X12700Y838200D01*
X25400Y850900D01*
M02*
