G04 EAGLE Gerber RS-274X export*
G75*
%MOMM*%
%FSLAX34Y34*%
%LPD*%
%INSoldermask Bottom*%
%IPPOS*%
%AMOC8*
5,1,8,0,0,1.08239X$1,22.5*%
G01*
%ADD10C,2.203200*%
%ADD11C,2.303200*%
%ADD12C,1.903200*%
%ADD13C,2.103200*%
%ADD14C,1.727200*%
%ADD15R,2.273200X2.273200*%
%ADD16C,2.273200*%
%ADD17C,0.959600*%


D10*
X127000Y838200D03*
X127000Y25400D03*
X1257300Y38100D03*
X1257300Y812800D03*
D11*
X63500Y330200D03*
X63500Y380200D03*
X63500Y430200D03*
X63500Y480200D03*
X63500Y530200D03*
X63500Y50800D03*
X63500Y100800D03*
X63500Y150800D03*
X63500Y200800D03*
X63500Y250800D03*
X63500Y609600D03*
X63500Y659600D03*
X63500Y709600D03*
X63500Y759600D03*
X63500Y809600D03*
D12*
X1358900Y60690D03*
D13*
X1358900Y105690D03*
D14*
X723900Y805180D02*
X723900Y820420D01*
X749300Y820420D02*
X749300Y805180D01*
X774700Y805180D02*
X774700Y820420D01*
X800100Y820420D02*
X800100Y805180D01*
X1143000Y805180D02*
X1143000Y820420D01*
X1168400Y820420D02*
X1168400Y805180D01*
X1193800Y805180D02*
X1193800Y820420D01*
X1219200Y820420D02*
X1219200Y805180D01*
X533400Y58420D02*
X533400Y43180D01*
X558800Y43180D02*
X558800Y58420D01*
X584200Y58420D02*
X584200Y43180D01*
X673100Y43180D02*
X673100Y58420D01*
X698500Y58420D02*
X698500Y43180D01*
X723900Y43180D02*
X723900Y58420D01*
X812800Y58420D02*
X812800Y43180D01*
X838200Y43180D02*
X838200Y58420D01*
X863600Y58420D02*
X863600Y43180D01*
X749300Y309880D02*
X749300Y325120D01*
X774700Y325120D02*
X774700Y309880D01*
X800100Y309880D02*
X800100Y325120D01*
X825500Y325120D02*
X825500Y309880D01*
X850900Y309880D02*
X850900Y325120D01*
X876300Y325120D02*
X876300Y309880D01*
X901700Y309880D02*
X901700Y325120D01*
X927100Y325120D02*
X927100Y309880D01*
X952500Y309880D02*
X952500Y325120D01*
X977900Y325120D02*
X977900Y309880D01*
X1003300Y309880D02*
X1003300Y325120D01*
X1028700Y325120D02*
X1028700Y309880D01*
X1054100Y309880D02*
X1054100Y325120D01*
X1079500Y325120D02*
X1079500Y309880D01*
X1104900Y309880D02*
X1104900Y325120D01*
X1130300Y325120D02*
X1130300Y309880D01*
X1155700Y309880D02*
X1155700Y325120D01*
X1181100Y325120D02*
X1181100Y309880D01*
X1206500Y309880D02*
X1206500Y325120D01*
X749300Y563880D02*
X749300Y579120D01*
X774700Y579120D02*
X774700Y563880D01*
X800100Y563880D02*
X800100Y579120D01*
X825500Y579120D02*
X825500Y563880D01*
X850900Y563880D02*
X850900Y579120D01*
X876300Y579120D02*
X876300Y563880D01*
X901700Y563880D02*
X901700Y579120D01*
X927100Y579120D02*
X927100Y563880D01*
X952500Y563880D02*
X952500Y579120D01*
X977900Y579120D02*
X977900Y563880D01*
X1003300Y563880D02*
X1003300Y579120D01*
X1028700Y579120D02*
X1028700Y563880D01*
X1054100Y563880D02*
X1054100Y579120D01*
X1079500Y579120D02*
X1079500Y563880D01*
X1104900Y563880D02*
X1104900Y579120D01*
X1130300Y579120D02*
X1130300Y563880D01*
X1155700Y563880D02*
X1155700Y579120D01*
X1181100Y579120D02*
X1181100Y563880D01*
X1206500Y563880D02*
X1206500Y579120D01*
X1376680Y393700D02*
X1391920Y393700D01*
X1391920Y419100D02*
X1376680Y419100D01*
X1376680Y444500D02*
X1391920Y444500D01*
X1391920Y469900D02*
X1376680Y469900D01*
X1376680Y495300D02*
X1391920Y495300D01*
X1391920Y520700D02*
X1376680Y520700D01*
X1376680Y546100D02*
X1391920Y546100D01*
X1391920Y571500D02*
X1376680Y571500D01*
D11*
X347000Y490600D03*
X225000Y490600D03*
X205000Y430600D03*
X225000Y370600D03*
X347000Y370600D03*
X347000Y211200D03*
X225000Y211200D03*
X205000Y151200D03*
X225000Y91200D03*
X347000Y91200D03*
X347000Y770000D03*
X225000Y770000D03*
X205000Y710000D03*
X225000Y650000D03*
X347000Y650000D03*
D15*
X1079500Y711200D03*
D16*
X1054100Y711200D03*
X1028700Y711200D03*
D15*
X1219200Y711200D03*
D16*
X1193800Y711200D03*
X1168400Y711200D03*
D15*
X1358900Y711200D03*
D16*
X1333500Y711200D03*
X1308100Y711200D03*
D15*
X660400Y711200D03*
D16*
X635000Y711200D03*
X609600Y711200D03*
D15*
X800100Y711200D03*
D16*
X774700Y711200D03*
X749300Y711200D03*
D15*
X939800Y711200D03*
D16*
X914400Y711200D03*
X889000Y711200D03*
D15*
X508000Y152400D03*
D16*
X533400Y152400D03*
X558800Y152400D03*
D15*
X647700Y152400D03*
D16*
X673100Y152400D03*
X698500Y152400D03*
D15*
X787400Y152400D03*
D16*
X812800Y152400D03*
X838200Y152400D03*
D14*
X889000Y805180D02*
X889000Y820420D01*
X914400Y820420D02*
X914400Y805180D01*
X939800Y805180D02*
X939800Y820420D01*
X1028700Y820420D02*
X1028700Y805180D01*
X1054100Y805180D02*
X1054100Y820420D01*
X1079500Y820420D02*
X1079500Y805180D01*
X635000Y805180D02*
X635000Y820420D01*
X609600Y820420D02*
X609600Y805180D01*
X584200Y805180D02*
X584200Y820420D01*
X558800Y820420D02*
X558800Y805180D01*
X533400Y805180D02*
X533400Y820420D01*
X1295400Y820420D02*
X1295400Y805180D01*
X1320800Y805180D02*
X1320800Y820420D01*
X1346200Y820420D02*
X1346200Y805180D01*
X1371600Y805180D02*
X1371600Y820420D01*
D17*
X584200Y469900D03*
X990600Y228600D03*
X1308100Y342900D03*
X1413510Y91440D03*
X1413510Y156210D03*
X685800Y381000D03*
X685800Y431800D03*
X685800Y482600D03*
X482600Y469900D03*
X482600Y393700D03*
X482600Y431800D03*
X584200Y427990D03*
X952500Y203200D03*
X1079500Y203200D03*
X1181100Y203200D03*
X1040740Y152400D03*
X1165200Y177800D03*
X1397000Y215900D03*
X1397000Y317500D03*
X1054100Y203200D03*
X736600Y508000D03*
X787400Y469900D03*
X812800Y469900D03*
X1041400Y673100D03*
X704850Y725170D03*
X673100Y534670D03*
X977900Y419100D03*
X1155700Y444500D03*
X1219200Y431800D03*
X1193800Y444500D03*
X673100Y622300D03*
X1282700Y292100D03*
X1054100Y88900D03*
X1143000Y821690D03*
M02*
