G04 EAGLE Gerber RS-274X export*
G75*
%MOMM*%
%FSLAX34Y34*%
%LPD*%
%INSolderpaste Top*%
%IPPOS*%
%AMOC8*
5,1,8,0,0,1.08239X$1,22.5*%
G01*
%ADD10R,1.300000X1.500000*%
%ADD11R,0.950000X1.250000*%
%ADD12R,3.200000X1.250000*%
%ADD13R,1.000000X2.850000*%
%ADD14R,5.550000X5.950000*%
%ADD15R,1.550000X0.700000*%
%ADD16R,2.000000X2.000000*%
%ADD17R,1.200000X1.200000*%
%ADD18R,1.300000X1.600000*%


D10*
X1114400Y203200D03*
X1095400Y203200D03*
X1146200Y203200D03*
X1165200Y203200D03*
X986130Y203200D03*
X967130Y203200D03*
X1017930Y203200D03*
X1036930Y203200D03*
D11*
X1039000Y122900D03*
X1016000Y122900D03*
X993000Y122900D03*
D12*
X1016000Y54900D03*
D13*
X1165900Y143100D03*
X1143000Y143100D03*
X1120100Y143100D03*
D14*
X1143000Y75600D03*
D15*
X506150Y469900D03*
X506150Y457200D03*
X506150Y444500D03*
X506150Y431800D03*
X506150Y419100D03*
X506150Y406400D03*
X506150Y393700D03*
X560650Y393700D03*
X560650Y406400D03*
X560650Y419100D03*
X560650Y431800D03*
X560650Y444500D03*
X560650Y457200D03*
X560650Y469900D03*
D16*
X1303900Y60690D03*
X1303900Y122190D03*
X1413900Y60690D03*
X1413900Y122190D03*
D17*
X1394800Y304800D03*
X1373800Y304800D03*
X1394800Y266700D03*
X1373800Y266700D03*
D18*
X1311300Y304800D03*
X1330300Y304800D03*
X1311300Y266700D03*
X1330300Y266700D03*
X657200Y482600D03*
X638200Y482600D03*
X657200Y381000D03*
X638200Y381000D03*
X657200Y431800D03*
X638200Y431800D03*
X1311300Y228600D03*
X1330300Y228600D03*
D17*
X1394800Y228600D03*
X1373800Y228600D03*
M02*
